SplineFontDB: 3.0
FontName: TitilliumWeb-Black
FullName: Titillium WebBlack
FamilyName: Titillium Web
Weight: Black
Copyright: Copyright (c) 2009-2011 by Accademia di Belle Arti di Urbino and students of MA course of Visual design. Some rights reserved.
Version: 1.001;PS 35.000;hotconv 1.0.70;makeotf.lib2.5.55311
ItalicAngle: 0
UnderlinePosition: -1
UnderlineWidth: 127
Ascent: 800
Descent: 200
sfntRevision: 0x00010000
LayerCount: 2
Layer: 0 1 "Back"  1
Layer: 1 1 "Fore"  0
XUID: [1021 162 1150486344 16326504]
FSType: 8
OS2Version: 3
OS2_WeightWidthSlopeOnly: 0
OS2_UseTypoMetrics: 1
CreationTime: 1349090286
ModificationTime: 1349108892
PfmFamily: 81
TTFWeight: 900
TTFWidth: 5
LineGap: 0
VLineGap: 0
Panose: 0 0 10 0 0 0 0 0 0 0
OS2TypoAscent: 1133
OS2TypoAOffset: 0
OS2TypoDescent: -388
OS2TypoDOffset: 0
OS2TypoLinegap: 0
OS2WinAscent: 1133
OS2WinAOffset: 0
OS2WinDescent: 388
OS2WinDOffset: 0
HheadAscent: 1133
HheadAOffset: 0
HheadDescent: -388
HheadDOffset: 0
OS2SubXSize: 650
OS2SubYSize: 600
OS2SubXOff: 0
OS2SubYOff: 75
OS2SupXSize: 650
OS2SupYSize: 600
OS2SupXOff: 0
OS2SupYOff: 350
OS2StrikeYSize: 127
OS2StrikeYPos: 303
OS2Vendor: 'UKWN'
OS2CodePages: 20000093.00000000
OS2UnicodeRanges: 00000007.00000001.00000000.00000000
Lookup: 1 0 0 "'locl' Localized Forms in Latin lookup 0"  {"'locl' Localized Forms in Latin lookup 0 subtable"  } ['locl' ('DFLT' <'dflt' > 'latn' <'dflt' > ) ]
Lookup: 1 0 0 "'frac' Diagonal Fractions in Latin lookup 1"  {"'frac' Diagonal Fractions in Latin lookup 1 subtable"  } ['frac' ('DFLT' <'dflt' > 'latn' <'dflt' > ) ]
Lookup: 6 0 0 "'frac' Diagonal Fractions in Latin lookup 2"  {"'frac' Diagonal Fractions in Latin lookup 2 subtable"  } ['frac' ('DFLT' <'dflt' > 'latn' <'dflt' > ) ]
Lookup: 1 0 0 "'frac' Diagonal Fractions in Latin lookup 3"  {"'frac' Diagonal Fractions in Latin lookup 3 subtable"  } ['frac' ('DFLT' <'dflt' > 'latn' <'dflt' > ) ]

StartChar: exclam
Encoding: 33 33 4
Width: 290
GlyphClass: 2
Flags: W
LayerCount: 2
Fore
SplineSet
31 0 m 1,0,-1
 31 198 l 1,1,-1
 259 198 l 1,2,-1
 259 0 l 1,3,-1
 31 0 l 1,0,-1
38 244 m 1,4,-1
 24 670 l 1,5,-1
 266 670 l 1,6,-1
 252 244 l 1,7,-1
 38 244 l 1,4,-1
EndSplineSet
EndChar

StartChar: quotedbl
Encoding: 34 34 5
Width: 544
GlyphClass: 2
Flags: W
LayerCount: 2
Fore
SplineSet
45 420 m 1,0,-1
 13 670 l 1,1,-1
 252 670 l 1,2,-1
 221 420 l 1,3,-1
 45 420 l 1,0,-1
323 420 m 1,4,-1
 291 670 l 1,5,-1
 530 670 l 1,6,-1
 499 420 l 1,7,-1
 323 420 l 1,4,-1
EndSplineSet
EndChar

StartChar: numbersign
Encoding: 35 35 6
Width: 550
GlyphClass: 2
Flags: W
LayerCount: 2
Fore
SplineSet
57 0 m 1,0,-1
 60 113 l 1,1,-1
 5 113 l 1,2,-1
 12 290 l 1,3,-1
 65 290 l 1,4,-1
 67 370 l 1,5,-1
 12 370 l 1,6,-1
 19 547 l 1,7,-1
 71 547 l 1,8,-1
 75 670 l 1,9,-1
 251 670 l 1,10,-1
 247 547 l 1,11,-1
 309 547 l 1,12,-1
 313 670 l 1,13,-1
 490 670 l 1,14,-1
 486 547 l 1,15,-1
 544 547 l 1,16,-1
 537 370 l 1,17,-1
 482 370 l 1,18,-1
 480 290 l 1,19,-1
 536 290 l 1,20,-1
 532 113 l 1,21,-1
 475 113 l 1,22,-1
 472 0 l 1,23,-1
 295 0 l 1,24,-1
 298 113 l 1,25,-1
 236 113 l 1,26,-1
 233 0 l 1,27,-1
 57 0 l 1,0,-1
243 370 m 1,28,-1
 241 290 l 1,29,-1
 303 290 l 1,30,-1
 305 370 l 1,31,-1
 243 370 l 1,28,-1
EndSplineSet
EndChar

StartChar: dollar
Encoding: 36 36 7
Width: 550
GlyphClass: 2
Flags: W
LayerCount: 2
Fore
SplineSet
520 468 m 1,0,1
 382 483 382 483 319 483 c 128,-1,2
 256 483 256 483 246 479.5 c 128,-1,3
 236 476 236 476 236 465.5 c 128,-1,4
 236 455 236 455 248 449 c 128,-1,5
 260 443 260 443 314.5 431 c 128,-1,6
 369 419 369 419 404 408.5 c 128,-1,7
 439 398 439 398 471 382 c 128,-1,8
 503 366 503 366 518 344 c 0,9,10
 548 299 548 299 548 213 c 0,11,12
 548 96 548 96 488.5 44 c 128,-1,13
 429 -8 429 -8 309 -12 c 1,14,-1
 309 -85 l 1,15,-1
 247 -85 l 1,16,-1
 247 -12 l 1,17,18
 131 -6 131 -6 43 16 c 1,19,-1
 12 23 l 1,20,-1
 21 196 l 1,21,22
 171 174 171 174 267 174 c 0,23,24
 296 174 296 174 307 179.5 c 128,-1,25
 318 185 318 185 318 196 c 128,-1,26
 318 207 318 207 306.5 211 c 128,-1,27
 295 215 295 215 243 223 c 0,28,29
 106 245 106 245 56.5 291 c 128,-1,30
 7 337 7 337 7 440 c 0,31,32
 7 567 7 567 66 617 c 128,-1,33
 125 667 125 667 247 669 c 1,34,-1
 247 751 l 1,35,-1
 309 751 l 1,36,-1
 309 669 l 1,37,38
 398 665 398 665 494 650 c 2,39,-1
 526 645 l 1,40,-1
 520 468 l 1,0,1
EndSplineSet
EndChar

StartChar: percent
Encoding: 37 37 8
Width: 666
GlyphClass: 2
Flags: W
LayerCount: 2
Fore
SplineSet
228 -59 m 1,0,-1
 386 701 l 1,1,-1
 430 692 l 1,2,-1
 271 -67 l 1,3,-1
 228 -59 l 1,0,-1
49 627.5 m 128,-1,5
 81 668 81 668 162.5 668 c 128,-1,6
 244 668 244 668 274.5 628 c 128,-1,7
 305 588 305 588 305 490 c 128,-1,8
 305 392 305 392 274 351.5 c 128,-1,9
 243 311 243 311 161 311 c 128,-1,10
 79 311 79 311 48 351.5 c 128,-1,11
 17 392 17 392 17 489.5 c 128,-1,4
 17 587 17 587 49 627.5 c 128,-1,5
161 562 m 128,-1,13
 149 562 149 562 146 551 c 128,-1,14
 143 540 143 540 143 497.5 c 128,-1,15
 143 455 143 455 145 440 c 128,-1,16
 147 425 147 425 150 421.5 c 128,-1,17
 153 418 153 418 163 418 c 128,-1,18
 173 418 173 418 176 429 c 128,-1,19
 179 440 179 440 179 490.5 c 128,-1,20
 179 541 179 541 176 551.5 c 128,-1,12
 173 562 173 562 161 562 c 128,-1,13
393 304.5 m 128,-1,22
 425 345 425 345 506.5 345 c 128,-1,23
 588 345 588 345 618.5 305 c 128,-1,24
 649 265 649 265 649 167 c 128,-1,25
 649 69 649 69 618 28.5 c 128,-1,26
 587 -12 587 -12 505 -12 c 128,-1,27
 423 -12 423 -12 392 28.5 c 128,-1,28
 361 69 361 69 361 166.5 c 128,-1,21
 361 264 361 264 393 304.5 c 128,-1,22
505 239 m 128,-1,30
 493 239 493 239 490 228 c 128,-1,31
 487 217 487 217 487 174.5 c 128,-1,32
 487 132 487 132 489 117 c 128,-1,33
 491 102 491 102 494 98.5 c 128,-1,34
 497 95 497 95 507 95 c 128,-1,35
 517 95 517 95 520 106 c 128,-1,36
 523 117 523 117 523 167.5 c 128,-1,37
 523 218 523 218 520 228.5 c 128,-1,29
 517 239 517 239 505 239 c 128,-1,30
EndSplineSet
EndChar

StartChar: ampersand
Encoding: 38 38 9
Width: 702
GlyphClass: 2
Flags: W
LayerCount: 2
Fore
SplineSet
337 683 m 0,0,1
 520 683 520 683 566 590 c 1,2,3
 585 554 585 554 585 492 c 128,-1,4
 585 430 585 430 559 398 c 128,-1,5
 533 366 533 366 440 342 c 1,6,-1
 499 291 l 1,7,8
 510 312 510 312 515 331 c 1,9,-1
 697 324 l 1,10,11
 672 227 672 227 639 168 c 1,12,-1
 704 112 l 1,13,-1
 658 -13 l 1,14,-1
 523 42 l 1,15,16
 434 -13 434 -13 285 -13 c 128,-1,17
 136 -13 136 -13 71 31.5 c 128,-1,18
 6 76 6 76 6 190 c 0,19,20
 6 268 6 268 33 311 c 128,-1,21
 60 354 60 354 114 377 c 1,22,23
 87 418 87 418 87 500 c 0,24,25
 87 683 87 683 337 683 c 0,0,1
304 498 m 0,26,27
 304 465 304 465 329 440 c 1,28,29
 365 465 365 465 365 498 c 0,30,31
 365 543 365 543 334.5 543 c 128,-1,32
 304 543 304 543 304 498 c 0,26,27
308 168 m 0,33,34
 327 168 327 168 343 172 c 1,35,-1
 236 262 l 1,36,37
 232 249 232 249 232 229 c 0,38,39
 232 168 232 168 308 168 c 0,33,34
EndSplineSet
EndChar

StartChar: quotesingle
Encoding: 39 39 10
Width: 266
GlyphClass: 2
Flags: W
LayerCount: 2
Fore
SplineSet
45 420 m 1,0,-1
 13 670 l 1,1,-1
 252 670 l 1,2,-1
 221 420 l 1,3,-1
 45 420 l 1,0,-1
EndSplineSet
EndChar

StartChar: parenleft
Encoding: 40 40 11
Width: 326
GlyphClass: 2
Flags: W
LayerCount: 2
Fore
SplineSet
264 517 m 128,-1,1
 243 398 243 398 243 301.5 c 128,-1,2
 243 205 243 205 261.5 98.5 c 128,-1,3
 280 -8 280 -8 299 -66 c 2,4,-1
 318 -125 l 1,5,-1
 115 -125 l 1,6,7
 52 -14 52 -14 26 156 c 1,8,9
 16 228 16 228 16 322.5 c 128,-1,10
 16 417 16 417 41 529 c 128,-1,11
 66 641 66 641 90 696 c 1,12,-1
 115 750 l 1,13,-1
 318 750 l 1,14,15
 310 724 310 724 297.5 680 c 128,-1,0
 285 636 285 636 264 517 c 128,-1,1
EndSplineSet
Substitution2: "'case' Case-Sensitive Forms in Latin lookup 4 subtable" parenleft.cap
EndChar

StartChar: parenright
Encoding: 41 41 12
Width: 326
GlyphClass: 2
Flags: W
LayerCount: 2
Fore
SplineSet
62 113 m 128,-1,1
 83 232 83 232 83 328.5 c 128,-1,2
 83 425 83 425 64.5 531.5 c 128,-1,3
 46 638 46 638 27 696 c 2,4,-1
 8 755 l 1,5,-1
 211 755 l 1,6,7
 274 644 274 644 300 474 c 1,8,9
 310 402 310 402 310 307.5 c 128,-1,10
 310 213 310 213 285 101 c 128,-1,11
 260 -11 260 -11 236 -66 c 1,12,-1
 211 -120 l 1,13,-1
 8 -120 l 1,14,15
 16 -94 16 -94 28.5 -50 c 128,-1,0
 41 -6 41 -6 62 113 c 128,-1,1
EndSplineSet
Substitution2: "'case' Case-Sensitive Forms in Latin lookup 4 subtable" parenright.cap
EndChar

StartChar: asterisk
Encoding: 42 42 13
Width: 415
GlyphClass: 2
Flags: W
LayerCount: 2
Fore
SplineSet
390 469 m 1,0,-1
 289 476 l 1,1,-1
 327 381 l 1,2,-1
 202 340 l 1,3,-1
 176 438 l 1,4,-1
 98 373 l 1,5,-1
 20 480 l 1,6,-1
 105 534 l 1,7,-1
 19 588 l 1,8,-1
 97 696 l 1,9,-1
 174 631 l 1,10,-1
 199 730 l 1,11,-1
 326 689 l 1,12,-1
 288 595 l 1,13,-1
 390 603 l 1,14,-1
 390 469 l 1,0,-1
EndSplineSet
EndChar

StartChar: plus
Encoding: 43 43 14
Width: 550
GlyphClass: 2
Flags: W
LayerCount: 2
Fore
SplineSet
44 164 m 1,0,-1
 44 344 l 1,1,-1
 185 344 l 1,2,-1
 185 483 l 1,3,-1
 365 483 l 1,4,-1
 365 344 l 1,5,-1
 506 344 l 1,6,-1
 506 164 l 1,7,-1
 365 164 l 1,8,-1
 365 23 l 1,9,-1
 185 23 l 1,10,-1
 185 164 l 1,11,-1
 44 164 l 1,0,-1
EndSplineSet
EndChar

StartChar: comma
Encoding: 44 44 15
Width: 289
GlyphClass: 2
Flags: W
LayerCount: 2
Fore
SplineSet
13 -103 m 1,0,-1
 35 193 l 1,1,-1
 277 193 l 1,2,-1
 198 -103 l 1,3,-1
 13 -103 l 1,0,-1
EndSplineSet
EndChar

StartChar: hyphen
Encoding: 45 45 16
Width: 356
GlyphClass: 2
Flags: W
LayerCount: 2
Fore
SplineSet
29 161 m 1,0,-1
 29 342 l 1,1,-1
 327 342 l 1,2,-1
 327 161 l 1,3,-1
 29 161 l 1,0,-1
EndSplineSet
EndChar

StartChar: period
Encoding: 46 46 17
Width: 282
GlyphClass: 2
Flags: W
LayerCount: 2
Fore
SplineSet
27 0 m 1,0,-1
 27 199 l 1,1,-1
 255 199 l 1,2,-1
 255 0 l 1,3,-1
 27 0 l 1,0,-1
EndSplineSet
EndChar

StartChar: slash
Encoding: 47 47 18
Width: 550
GlyphClass: 2
Flags: W
LayerCount: 2
Fore
SplineSet
15 -30 m 1,0,-1
 318 720 l 1,1,-1
 535 676 l 1,2,-1
 232 -74 l 1,3,-1
 15 -30 l 1,0,-1
EndSplineSet
Substitution2: "'frac' Diagonal Fractions in Latin lookup 3 subtable" fraction
EndChar

StartChar: zero
Encoding: 48 48 19
Width: 550
GlyphClass: 2
Flags: W
LayerCount: 2
Fore
SplineSet
72 591.5 m 128,-1,1
 131 672 131 672 276 672 c 128,-1,2
 421 672 421 672 478 592.5 c 128,-1,3
 535 513 535 513 535 330.5 c 128,-1,4
 535 148 535 148 477.5 67.5 c 128,-1,5
 420 -13 420 -13 274 -13 c 128,-1,6
 128 -13 128 -13 70.5 67.5 c 128,-1,7
 13 148 13 148 13 329.5 c 128,-1,0
 13 511 13 511 72 591.5 c 128,-1,1
274 484 m 128,-1,9
 263 484 263 484 257 479 c 128,-1,10
 251 474 251 474 247 457 c 0,11,12
 240 427 240 427 240 329.5 c 128,-1,13
 240 232 240 232 246.5 203.5 c 128,-1,14
 253 175 253 175 274 175 c 128,-1,15
 295 175 295 175 301.5 203.5 c 128,-1,16
 308 232 308 232 308 307 c 128,-1,17
 308 382 308 382 306.5 411 c 128,-1,18
 305 440 305 440 301 457 c 128,-1,19
 297 474 297 474 291 479 c 128,-1,8
 285 484 285 484 274 484 c 128,-1,9
EndSplineSet
Substitution2: "'frac' Diagonal Fractions in Latin lookup 1 subtable" zerosuperior
EndChar

StartChar: one
Encoding: 49 49 20
Width: 550
GlyphClass: 2
Flags: W
LayerCount: 2
Fore
SplineSet
467 659 m 1,0,-1
 467 0 l 1,1,-1
 240 0 l 1,2,-1
 240 416 l 1,3,-1
 102 361 l 1,4,-1
 42 523 l 1,5,-1
 276 659 l 1,6,-1
 467 659 l 1,0,-1
EndSplineSet
Substitution2: "'frac' Diagonal Fractions in Latin lookup 1 subtable" onesuperior
EndChar

StartChar: two
Encoding: 50 50 21
Width: 550
GlyphClass: 2
Flags: W
LayerCount: 2
Fore
SplineSet
501 0 m 1,0,-1
 43 0 l 1,1,-1
 43 172 l 1,2,-1
 130 256 l 2,3,4
 158 282 158 282 184 308 c 2,5,6
 184 308 184 308 226 350 c 0,7,8
 243 367 243 367 257 388 c 128,-1,9
 271 409 271 409 273.5 419.5 c 128,-1,10
 276 430 276 430 276 441 c 0,11,12
 276 467 276 467 261 474 c 128,-1,13
 246 481 246 481 208 481 c 0,14,15
 136 481 136 481 76 470 c 2,16,-1
 55 466 l 1,17,-1
 45 637 l 1,18,19
 149 674 149 674 262.5 674 c 128,-1,20
 376 674 376 674 440.5 622.5 c 128,-1,21
 505 571 505 571 505 479.5 c 128,-1,22
 505 388 505 388 475 336 c 128,-1,23
 445 284 445 284 363 227 c 2,24,-1
 296 180 l 1,25,-1
 501 180 l 1,26,-1
 501 0 l 1,0,-1
EndSplineSet
Substitution2: "'frac' Diagonal Fractions in Latin lookup 1 subtable" twosuperior
EndChar

StartChar: three
Encoding: 51 51 22
Width: 550
GlyphClass: 2
Flags: W
LayerCount: 2
Fore
SplineSet
225 672 m 0,0,1
 372 672 372 672 438.5 630 c 128,-1,2
 505 588 505 588 505 482 c 0,3,4
 505 427 505 427 491.5 398 c 128,-1,5
 478 369 478 369 444 345 c 1,6,7
 482 316 482 316 498 287.5 c 128,-1,8
 514 259 514 259 514 207 c 0,9,10
 514 82 514 82 449 34.5 c 128,-1,11
 384 -13 384 -13 248 -13 c 0,12,13
 165 -13 165 -13 68 6 c 1,14,-1
 35 13 l 1,15,-1
 41 188 l 1,16,17
 156 178 156 178 205 178 c 128,-1,18
 254 178 254 178 270 183.5 c 128,-1,19
 286 189 286 189 286 207.5 c 128,-1,20
 286 226 286 226 275 233 c 128,-1,21
 264 240 264 240 233 243 c 1,22,-1
 92 243 l 1,23,-1
 92 420 l 1,24,-1
 224 420 l 2,25,26
 278 420 278 420 278 450.5 c 128,-1,27
 278 481 278 481 209 481 c 0,28,29
 162 481 162 481 71 474 c 2,30,-1
 45 472 l 1,31,-1
 40 643 l 1,32,33
 155 672 155 672 225 672 c 0,0,1
EndSplineSet
Substitution2: "'frac' Diagonal Fractions in Latin lookup 1 subtable" threesuperior
EndChar

StartChar: four
Encoding: 52 52 23
Width: 550
GlyphClass: 2
Flags: W
LayerCount: 2
Fore
SplineSet
289 0 m 1,0,-1
 289 80 l 1,1,-1
 18 80 l 1,2,-1
 18 242 l 1,3,-1
 108 659 l 1,4,-1
 370 659 l 1,5,-1
 241 268 l 1,6,-1
 290 268 l 1,7,-1
 310 381 l 1,8,-1
 516 388 l 1,9,-1
 516 268 l 1,10,-1
 541 268 l 1,11,-1
 541 80 l 1,12,-1
 516 80 l 1,13,-1
 516 0 l 1,14,-1
 289 0 l 1,0,-1
EndSplineSet
Substitution2: "'frac' Diagonal Fractions in Latin lookup 1 subtable" foursuperior
EndChar

StartChar: five
Encoding: 53 53 24
Width: 550
GlyphClass: 2
Flags: W
LayerCount: 2
Fore
SplineSet
506 659 m 1,0,-1
 506 459 l 1,1,-1
 223 459 l 1,2,-1
 218 415 l 1,3,4
 261 430 261 430 307 430 c 0,5,6
 423 430 423 430 477 383 c 128,-1,7
 531 336 531 336 531 217 c 0,8,9
 531 -13 531 -13 281 -13 c 0,10,11
 234 -13 234 -13 168 -3.5 c 128,-1,12
 102 6 102 6 60 16 c 2,13,-1
 17 26 l 1,14,-1
 34 189 l 1,15,16
 169 169 169 169 259 169 c 0,17,18
 310 169 310 169 310 196.5 c 128,-1,19
 310 224 310 224 262 224 c 0,20,21
 230 224 230 224 194 215 c 2,22,-1
 182 212 l 1,23,-1
 34 230 l 1,24,-1
 48 659 l 1,25,-1
 506 659 l 1,0,-1
EndSplineSet
Substitution2: "'frac' Diagonal Fractions in Latin lookup 1 subtable" fivesuperior
EndChar

StartChar: six
Encoding: 54 54 25
Width: 550
GlyphClass: 2
Flags: W
LayerCount: 2
Fore
SplineSet
306 489 m 0,0,1
 267 489 267 489 250 472 c 128,-1,2
 233 455 233 455 230 421 c 1,3,-1
 240 425 l 2,4,5
 275 439 275 439 313 439 c 0,6,7
 427 439 427 439 481 384.5 c 128,-1,8
 535 330 535 330 535 214.5 c 128,-1,9
 535 99 535 99 468 43 c 128,-1,10
 401 -13 401 -13 284 -13 c 0,11,12
 146 -13 146 -13 81 71 c 128,-1,13
 16 155 16 155 16 323 c 0,14,15
 16 524 16 524 98 602 c 0,16,17
 137 640 137 640 185 656 c 128,-1,18
 233 672 233 672 283 672 c 0,19,20
 370 672 370 672 481 646 c 1,21,-1
 518 638 l 1,22,-1
 502 472 l 1,23,24
 390 489 390 489 306 489 c 0,0,1
286 262 m 0,25,26
 255 262 255 262 229 250 c 1,27,28
 229 204 229 204 240 184.5 c 128,-1,29
 251 165 251 165 284 165 c 0,30,31
 331 165 331 165 331 213.5 c 128,-1,32
 331 262 331 262 286 262 c 0,25,26
EndSplineSet
Substitution2: "'frac' Diagonal Fractions in Latin lookup 1 subtable" sixsuperior
EndChar

StartChar: seven
Encoding: 55 55 26
Width: 550
GlyphClass: 2
Flags: W
LayerCount: 2
Fore
SplineSet
49 449 m 1,0,-1
 49 659 l 1,1,-1
 501 659 l 1,2,-1
 501 438 l 1,3,-1
 325 -13 l 1,4,-1
 101 33 l 1,5,-1
 267 424 l 1,6,-1
 267 449 l 1,7,-1
 49 449 l 1,0,-1
EndSplineSet
Substitution2: "'frac' Diagonal Fractions in Latin lookup 1 subtable" sevensuperior
EndChar

StartChar: eight
Encoding: 56 56 27
Width: 550
GlyphClass: 2
Flags: W
LayerCount: 2
Fore
SplineSet
274 672 m 0,0,1
 461 672 461 672 508 582 c 0,2,3
 526 546 526 546 526 487.5 c 128,-1,4
 526 429 526 429 510.5 395 c 128,-1,5
 495 361 495 361 450 335 c 1,6,7
 502 310 502 310 519 277.5 c 128,-1,8
 536 245 536 245 536 175 c 0,9,10
 536 -13 536 -13 274 -13 c 128,-1,11
 12 -13 12 -13 12 177 c 0,12,13
 12 242 12 242 31 274.5 c 128,-1,14
 50 307 50 307 99 336 c 1,15,16
 56 362 56 362 40 395.5 c 128,-1,17
 24 429 24 429 24 494 c 0,18,19
 24 672 24 672 274 672 c 0,0,1
304.5 165.5 m 128,-1,21
 314 175 314 175 314 204 c 128,-1,22
 314 233 314 233 288 259 c 1,23,-1
 261 259 l 1,24,25
 234 237 234 237 234 196.5 c 128,-1,26
 234 156 234 156 274 156 c 0,27,20
 295 156 295 156 304.5 165.5 c 128,-1,21
248.5 494 m 128,-1,29
 242 483 242 483 242 458 c 128,-1,30
 242 433 242 433 261 410 c 1,31,-1
 288 410 l 1,32,33
 307 430 307 430 307 460 c 0,34,35
 307 505 307 505 273 505 c 0,36,28
 255 505 255 505 248.5 494 c 128,-1,29
EndSplineSet
Substitution2: "'frac' Diagonal Fractions in Latin lookup 1 subtable" eightsuperior
EndChar

StartChar: nine
Encoding: 57 57 28
Width: 550
GlyphClass: 2
Flags: W
LayerCount: 2
Fore
SplineSet
243 170 m 0,0,1
 282 170 282 170 299 187 c 128,-1,2
 316 204 316 204 319 238 c 1,3,-1
 309 234 l 2,4,5
 274 220 274 220 236 220 c 0,6,7
 122 220 122 220 68 274.5 c 128,-1,8
 14 329 14 329 14 444.5 c 128,-1,9
 14 560 14 560 81 616 c 128,-1,10
 148 672 148 672 265 672 c 0,11,12
 403 672 403 672 468 588 c 128,-1,13
 533 504 533 504 533 336 c 0,14,15
 533 135 533 135 452 57 c 0,16,17
 412 19 412 19 364 3 c 128,-1,18
 316 -13 316 -13 266 -13 c 0,19,20
 179 -13 179 -13 68 12 c 1,21,-1
 31 21 l 1,22,-1
 47 187 l 1,23,24
 159 170 159 170 243 170 c 0,0,1
263 397 m 0,25,26
 294 397 294 397 320 409 c 1,27,28
 320 455 320 455 309 474.5 c 128,-1,29
 298 494 298 494 265 494 c 0,30,31
 218 494 218 494 218 445.5 c 128,-1,32
 218 397 218 397 263 397 c 0,25,26
EndSplineSet
Substitution2: "'frac' Diagonal Fractions in Latin lookup 1 subtable" ninesuperior
EndChar

StartChar: colon
Encoding: 58 58 29
Width: 288
GlyphClass: 2
Flags: W
LayerCount: 2
Fore
SplineSet
30 0 m 1,0,-1
 30 199 l 1,1,-1
 258 199 l 1,2,-1
 258 0 l 1,3,-1
 30 0 l 1,0,-1
30 265 m 1,4,-1
 30 464 l 1,5,-1
 258 464 l 1,6,-1
 258 265 l 1,7,-1
 30 265 l 1,4,-1
EndSplineSet
EndChar

StartChar: semicolon
Encoding: 59 59 30
Width: 294
GlyphClass: 2
Flags: W
LayerCount: 2
Fore
SplineSet
13 -103 m 1,0,-1
 35 193 l 1,1,-1
 277 193 l 1,2,-1
 198 -103 l 1,3,-1
 13 -103 l 1,0,-1
38 265 m 1,4,-1
 38 464 l 1,5,-1
 266 464 l 1,6,-1
 266 265 l 1,7,-1
 38 265 l 1,4,-1
EndSplineSet
EndChar

StartChar: less
Encoding: 60 60 31
Width: 550
GlyphClass: 2
Flags: W
LayerCount: 2
Fore
SplineSet
462 293 m 1,0,-1
 223 261 l 1,1,-1
 462 218 l 1,2,-1
 462 -13 l 1,3,-1
 76 145 l 1,4,-1
 76 366 l 1,5,-1
 462 517 l 1,6,-1
 462 293 l 1,0,-1
EndSplineSet
EndChar

StartChar: equal
Encoding: 61 61 32
Width: 550
GlyphClass: 2
Flags: W
LayerCount: 2
Fore
SplineSet
59 282 m 1,0,-1
 59 452 l 1,1,-1
 491 452 l 1,2,-1
 491 282 l 1,3,-1
 59 282 l 1,0,-1
59 57 m 1,4,-1
 59 227 l 1,5,-1
 491 227 l 1,6,-1
 491 57 l 1,7,-1
 59 57 l 1,4,-1
EndSplineSet
EndChar

StartChar: greater
Encoding: 62 62 33
Width: 550
GlyphClass: 2
Flags: W
LayerCount: 2
Fore
SplineSet
326 261 m 1,0,-1
 87 293 l 1,1,-1
 87 517 l 1,2,-1
 473 366 l 1,3,-1
 473 145 l 1,4,-1
 87 -13 l 1,5,-1
 87 218 l 1,6,-1
 326 261 l 1,0,-1
EndSplineSet
EndChar

StartChar: question
Encoding: 63 63 34
Width: 473
GlyphClass: 2
Flags: W
LayerCount: 2
Fore
SplineSet
456 496 m 0,0,1
 456 422 456 422 437.5 387.5 c 128,-1,2
 419 353 419 353 368 317 c 0,3,4
 291 262 291 262 289 236 c 2,5,-1
 288 217 l 1,6,-1
 113 217 l 1,7,8
 90 248 90 248 90 290 c 128,-1,9
 90 332 90 332 106.5 355.5 c 128,-1,10
 123 379 123 379 167.5 412 c 128,-1,11
 212 445 212 445 221 456 c 128,-1,12
 230 467 230 467 230 486.5 c 128,-1,13
 230 506 230 506 216 514.5 c 128,-1,14
 202 523 202 523 170 523 c 0,15,16
 108 523 108 523 45 512 c 1,17,-1
 24 509 l 1,18,-1
 17 666 l 1,19,20
 130 703 130 703 240.5 703 c 128,-1,21
 351 703 351 703 403.5 656 c 128,-1,22
 456 609 456 609 456 496 c 0,0,1
88 0 m 1,23,-1
 88 180 l 1,24,-1
 316 180 l 1,25,-1
 316 0 l 1,26,-1
 88 0 l 1,23,-1
EndSplineSet
EndChar

StartChar: at
Encoding: 64 64 35
Width: 1027
GlyphClass: 2
Flags: W
LayerCount: 2
Fore
SplineSet
1008 315 m 2,0,-1
 1008 298 l 2,1,2
 1008 126 1008 126 959 63 c 128,-1,3
 910 0 910 0 782.5 0 c 128,-1,4
 655 0 655 0 601 53 c 1,5,6
 531 0 531 0 448 0 c 0,7,8
 337 0 337 0 288 58.5 c 128,-1,9
 239 117 239 117 239 245 c 0,10,11
 239 505 239 505 423 505 c 0,12,13
 454 505 454 505 483.5 495.5 c 128,-1,14
 513 486 513 486 527 476 c 2,15,-1
 541 467 l 1,16,-1
 541 492 l 1,17,-1
 765 492 l 1,18,-1
 765 300 l 2,19,20
 765 221 765 221 774 194.5 c 128,-1,21
 783 168 783 168 805.5 168 c 128,-1,22
 828 168 828 168 834.5 192 c 128,-1,23
 841 216 841 216 841 298 c 2,24,-1
 841 316 l 2,25,26
 841 397 841 397 825.5 447 c 128,-1,27
 810 497 810 497 770.5 526.5 c 128,-1,28
 731 556 731 556 674.5 566.5 c 128,-1,29
 618 577 618 577 536 577 c 128,-1,30
 454 577 454 577 403 570 c 128,-1,31
 352 563 352 563 307 543 c 128,-1,32
 262 523 262 523 236 488 c 0,33,34
 180 413 180 413 180 261 c 0,35,36
 180 116 180 116 210 50 c 1,37,38
 228 13 228 13 252 -9 c 128,-1,39
 276 -31 276 -31 316 -44 c 0,40,41
 383 -67 383 -67 517 -67 c 1,42,-1
 660 -57 l 1,43,-1
 663 -210 l 1,44,45
 565 -219 565 -219 517 -219 c 0,46,47
 370 -219 370 -219 275 -193 c 128,-1,48
 180 -167 180 -167 124 -106.5 c 128,-1,49
 68 -46 68 -46 45.5 41 c 128,-1,50
 23 128 23 128 23 260.5 c 128,-1,51
 23 393 23 393 56.5 485 c 128,-1,52
 90 577 90 577 157 630 c 128,-1,53
 224 683 224 683 314 706 c 128,-1,54
 404 729 404 729 527 729 c 0,55,56
 776 729 776 729 892 633.5 c 128,-1,57
 1008 538 1008 538 1008 315 c 2,0,-1
472.5 193.5 m 128,-1,59
 480 178 480 178 499 178 c 128,-1,60
 518 178 518 178 546 189 c 1,61,62
 541 223 541 223 541 279 c 2,63,-1
 541 320 l 1,64,65
 526 324 526 324 505.5 324 c 128,-1,66
 485 324 485 324 475 309.5 c 128,-1,67
 465 295 465 295 465 252 c 128,-1,58
 465 209 465 209 472.5 193.5 c 128,-1,59
EndSplineSet
EndChar

StartChar: A
Encoding: 65 65 36
Width: 639
GlyphClass: 2
Flags: W
LayerCount: 2
Fore
SplineSet
-5 0 m 1,0,-1
 143 670 l 1,1,-1
 494 670 l 1,2,-1
 645 0 l 1,3,-1
 411 0 l 1,4,-1
 392 77 l 1,5,-1
 239 77 l 1,6,-1
 223 0 l 1,7,-1
 -5 0 l 1,0,-1
307 488 m 1,8,-1
 269 254 l 1,9,-1
 368 254 l 1,10,-1
 332 488 l 1,11,-1
 307 488 l 1,8,-1
EndSplineSet
Position2: "'cpsp' Capital Spacing in Latin lookup 0 subtable" dx=5 dy=0 dh=10 dv=0
EndChar

StartChar: B
Encoding: 66 66 37
Width: 607
GlyphClass: 2
Flags: W
LayerCount: 2
Fore
SplineSet
30 670 m 1,0,-1
 333 670 l 2,1,2
 578 670 578 670 578 504 c 0,3,4
 578 441 578 441 564.5 407 c 128,-1,5
 551 373 551 373 509 343 c 1,6,7
 558 322 558 322 576.5 291.5 c 128,-1,8
 595 261 595 261 595 190 c 0,9,10
 595 0 595 0 337 0 c 2,11,-1
 30 0 l 1,12,-1
 30 670 l 1,0,-1
316 265 m 2,13,-1
 262 265 l 1,14,-1
 262 155 l 1,15,-1
 316 155 l 2,16,17
 351 155 351 155 363 166.5 c 128,-1,18
 375 178 375 178 375 209.5 c 128,-1,19
 375 241 375 241 362 253 c 128,-1,20
 349 265 349 265 316 265 c 2,13,-1
313 517 m 2,21,-1
 262 517 l 1,22,-1
 262 410 l 1,23,-1
 314 410 l 2,24,25
 344 410 344 410 356 423 c 128,-1,26
 368 436 368 436 368 464.5 c 128,-1,27
 368 493 368 493 355 505 c 128,-1,28
 342 517 342 517 313 517 c 2,21,-1
EndSplineSet
Position2: "'cpsp' Capital Spacing in Latin lookup 0 subtable" dx=5 dy=0 dh=10 dv=0
EndChar

StartChar: C
Encoding: 67 67 38
Width: 533
GlyphClass: 2
Flags: W
LayerCount: 2
Fore
SplineSet
519 13 m 1,0,1
 413 -13 413 -13 302 -13 c 128,-1,2
 191 -13 191 -13 131 18.5 c 128,-1,3
 71 50 71 50 44.5 124 c 128,-1,4
 18 198 18 198 18 337 c 0,5,6
 18 536 18 536 79.5 609.5 c 128,-1,7
 141 683 141 683 314 683 c 0,8,9
 386 683 386 683 484 663 c 2,10,-1
 519 656 l 1,11,-1
 513 477 l 1,12,13
 431 487 431 487 361.5 487 c 128,-1,14
 292 487 292 487 272 460.5 c 128,-1,15
 252 434 252 434 252 351 c 128,-1,16
 252 268 252 268 261.5 236 c 128,-1,17
 271 204 271 204 292 193.5 c 128,-1,18
 313 183 313 183 360 183 c 1,19,-1
 516 189 l 1,20,-1
 519 13 l 1,0,1
EndSplineSet
Position2: "'cpsp' Capital Spacing in Latin lookup 0 subtable" dx=5 dy=0 dh=10 dv=0
EndChar

StartChar: D
Encoding: 68 68 39
Width: 654
GlyphClass: 2
Flags: W
LayerCount: 2
Fore
SplineSet
323 0 m 2,0,-1
 30 0 l 1,1,-1
 30 670 l 1,2,-1
 313 670 l 2,3,4
 486 670 486 670 562 592 c 128,-1,5
 638 514 638 514 638 342.5 c 128,-1,6
 638 171 638 171 565 85.5 c 128,-1,7
 492 0 492 0 323 0 c 2,0,-1
385.5 451 m 128,-1,9
 367 481 367 481 303 481 c 2,10,-1
 262 481 l 1,11,-1
 262 189 l 1,12,-1
 303 189 l 2,13,14
 355 189 355 189 380 215 c 0,15,16
 404 241 404 241 404 331 c 128,-1,8
 404 421 404 421 385.5 451 c 128,-1,9
EndSplineSet
Position2: "'cpsp' Capital Spacing in Latin lookup 0 subtable" dx=5 dy=0 dh=10 dv=0
EndChar

StartChar: E
Encoding: 69 69 40
Width: 549
GlyphClass: 2
Flags: W
LayerCount: 2
Fore
SplineSet
30 0 m 1,0,-1
 30 670 l 1,1,-1
 532 670 l 1,2,-1
 532 485 l 1,3,-1
 262 485 l 1,4,-1
 262 428 l 1,5,-1
 472 428 l 1,6,-1
 472 245 l 1,7,-1
 262 245 l 1,8,-1
 262 185 l 1,9,-1
 532 185 l 1,10,-1
 532 0 l 1,11,-1
 30 0 l 1,0,-1
EndSplineSet
Position2: "'cpsp' Capital Spacing in Latin lookup 0 subtable" dx=5 dy=0 dh=10 dv=0
EndChar

StartChar: F
Encoding: 70 70 41
Width: 521
GlyphClass: 2
Flags: W
LayerCount: 2
Fore
SplineSet
30 0 m 1,0,-1
 30 670 l 1,1,-1
 513 670 l 1,2,-1
 513 481 l 1,3,-1
 262 481 l 1,4,-1
 262 373 l 1,5,-1
 453 373 l 1,6,-1
 453 184 l 1,7,-1
 262 184 l 1,8,-1
 262 0 l 1,9,-1
 30 0 l 1,0,-1
EndSplineSet
Position2: "'cpsp' Capital Spacing in Latin lookup 0 subtable" dx=5 dy=0 dh=10 dv=0
EndChar

StartChar: G
Encoding: 71 71 42
Width: 619
GlyphClass: 2
Flags: W
LayerCount: 2
Fore
SplineSet
592 394 m 1,0,-1
 592 20 l 1,1,2
 411 -9 411 -9 324 -9 c 128,-1,3
 237 -9 237 -9 175.5 10.5 c 128,-1,4
 114 30 114 30 79 75 c 128,-1,5
 44 120 44 120 30.5 181 c 128,-1,6
 17 242 17 242 17 336 c 0,7,8
 17 529 17 529 89 606 c 128,-1,9
 161 683 161 683 332 683 c 0,10,11
 383 683 383 683 447 674.5 c 128,-1,12
 511 666 511 666 549 658 c 2,13,-1
 587 649 l 1,14,-1
 587 474 l 1,15,16
 443 487 443 487 382.5 487 c 128,-1,17
 322 487 322 487 303.5 481.5 c 128,-1,18
 285 476 285 476 274 468.5 c 128,-1,19
 263 461 263 461 258 439 c 0,20,21
 251 408 251 408 251 330 c 128,-1,22
 251 252 251 252 269 216.5 c 128,-1,23
 287 181 287 181 342 181 c 1,24,-1
 376 182 l 1,25,-1
 376 232 l 1,26,-1
 346 232 l 1,27,-1
 345 394 l 1,28,-1
 592 394 l 1,0,-1
EndSplineSet
Position2: "'cpsp' Capital Spacing in Latin lookup 0 subtable" dx=5 dy=0 dh=10 dv=0
EndChar

StartChar: H
Encoding: 72 72 43
Width: 655
GlyphClass: 2
Flags: W
LayerCount: 2
Fore
SplineSet
393 0 m 1,0,-1
 393 234 l 1,1,-1
 262 234 l 1,2,-1
 262 0 l 1,3,-1
 30 0 l 1,4,-1
 30 670 l 1,5,-1
 262 670 l 1,6,-1
 262 423 l 1,7,-1
 393 423 l 1,8,-1
 393 670 l 1,9,-1
 625 670 l 1,10,-1
 625 0 l 1,11,-1
 393 0 l 1,0,-1
EndSplineSet
Position2: "'cpsp' Capital Spacing in Latin lookup 0 subtable" dx=5 dy=0 dh=10 dv=0
EndChar

StartChar: I
Encoding: 73 73 44
Width: 292
GlyphClass: 2
Flags: W
LayerCount: 2
Fore
SplineSet
30 0 m 1,0,-1
 30 670 l 1,1,-1
 262 670 l 1,2,-1
 262 0 l 1,3,-1
 30 0 l 1,0,-1
EndSplineSet
Position2: "'cpsp' Capital Spacing in Latin lookup 0 subtable" dx=5 dy=0 dh=10 dv=0
EndChar

StartChar: J
Encoding: 74 74 45
Width: 321
GlyphClass: 2
Flags: W
LayerCount: 2
Fore
SplineSet
294 670 m 1,0,-1
 294 177 l 2,1,2
 294 79 294 79 246 33 c 1,3,4
 209 -4 209 -4 112 -10 c 0,5,6
 75 -13 75 -13 15 -13 c 1,7,-1
 15 178 l 1,8,9
 28 178 28 178 34 178.5 c 128,-1,10
 40 179 40 179 46.5 184.5 c 128,-1,11
 53 190 53 190 55 197 c 128,-1,12
 57 204 57 204 59 222 c 0,13,14
 62 250 62 250 62 322 c 2,15,-1
 62 670 l 1,16,-1
 294 670 l 1,0,-1
EndSplineSet
Position2: "'cpsp' Capital Spacing in Latin lookup 0 subtable" dx=5 dy=0 dh=10 dv=0
EndChar

StartChar: K
Encoding: 75 75 46
Width: 609
GlyphClass: 2
Flags: W
LayerCount: 2
Fore
SplineSet
262 223 m 1,0,-1
 262 0 l 1,1,-1
 30 0 l 1,2,-1
 30 670 l 1,3,-1
 262 670 l 1,4,-1
 262 433 l 1,5,-1
 302 433 l 1,6,-1
 377 670 l 1,7,-1
 607 670 l 1,8,-1
 500 346 l 1,9,-1
 617 0 l 1,10,-1
 384 0 l 1,11,-1
 303 223 l 1,12,-1
 262 223 l 1,0,-1
EndSplineSet
Position2: "'cpsp' Capital Spacing in Latin lookup 0 subtable" dx=5 dy=0 dh=10 dv=0
EndChar

StartChar: L
Encoding: 76 76 47
Width: 489
GlyphClass: 2
Flags: W
LayerCount: 2
Fore
SplineSet
480 0 m 1,0,-1
 30 0 l 1,1,-1
 30 670 l 1,2,-1
 262 670 l 1,3,-1
 262 189 l 1,4,-1
 480 189 l 1,5,-1
 480 0 l 1,0,-1
EndSplineSet
Position2: "'cpsp' Capital Spacing in Latin lookup 0 subtable" dx=5 dy=0 dh=10 dv=0
EndChar

StartChar: M
Encoding: 77 77 48
Width: 855
GlyphClass: 2
Flags: W
LayerCount: 2
Fore
SplineSet
30 0 m 1,0,-1
 30 670 l 1,1,-1
 375 670 l 1,2,-1
 427 414 l 1,3,-1
 470 670 l 1,4,-1
 825 670 l 1,5,-1
 825 0 l 1,6,-1
 593 0 l 1,7,-1
 593 345 l 1,8,-1
 582 345 l 1,9,-1
 524 7 l 1,10,-1
 330 7 l 1,11,-1
 273 345 l 1,12,-1
 262 345 l 1,13,-1
 262 0 l 1,14,-1
 30 0 l 1,0,-1
EndSplineSet
Position2: "'cpsp' Capital Spacing in Latin lookup 0 subtable" dx=5 dy=0 dh=10 dv=0
EndChar

StartChar: N
Encoding: 78 78 49
Width: 688
GlyphClass: 2
Flags: W
LayerCount: 2
Fore
SplineSet
30 0 m 1,0,-1
 30 670 l 1,1,-1
 258 670 l 1,2,-1
 412 416 l 1,3,-1
 426 416 l 1,4,-1
 426 670 l 1,5,-1
 658 670 l 1,6,-1
 658 0 l 1,7,-1
 429 0 l 1,8,-1
 277 273 l 1,9,-1
 262 273 l 1,10,-1
 262 0 l 1,11,-1
 30 0 l 1,0,-1
EndSplineSet
Position2: "'cpsp' Capital Spacing in Latin lookup 0 subtable" dx=5 dy=0 dh=10 dv=0
EndChar

StartChar: O
Encoding: 79 79 50
Width: 670
GlyphClass: 2
Flags: W
LayerCount: 2
Fore
SplineSet
266.5 212.5 m 128,-1,1
 283 175 283 175 335.5 175 c 128,-1,2
 388 175 388 175 404 212 c 128,-1,3
 420 249 420 249 420 335.5 c 128,-1,4
 420 422 420 422 404.5 458.5 c 128,-1,5
 389 495 389 495 336 495 c 128,-1,6
 283 495 283 495 266.5 457.5 c 128,-1,7
 250 420 250 420 250 335 c 128,-1,0
 250 250 250 250 266.5 212.5 c 128,-1,1
578 69.5 m 128,-1,9
 502 -13 502 -13 335.5 -13 c 128,-1,10
 169 -13 169 -13 92.5 70 c 128,-1,11
 16 153 16 153 16 335.5 c 128,-1,12
 16 518 16 518 92 600.5 c 128,-1,13
 168 683 168 683 335 683 c 128,-1,14
 502 683 502 683 578 600.5 c 128,-1,15
 654 518 654 518 654 335 c 128,-1,8
 654 152 654 152 578 69.5 c 128,-1,9
EndSplineSet
Position2: "'cpsp' Capital Spacing in Latin lookup 0 subtable" dx=5 dy=0 dh=10 dv=0
EndChar

StartChar: P
Encoding: 80 80 51
Width: 612
GlyphClass: 2
Flags: W
LayerCount: 2
Fore
SplineSet
293 142 m 2,0,-1
 262 142 l 1,1,-1
 262 0 l 1,2,-1
 30 0 l 1,3,-1
 30 670 l 1,4,-1
 293 670 l 2,5,6
 452 670 452 670 524.5 615 c 128,-1,7
 597 560 597 560 597 408.5 c 128,-1,8
 597 257 597 257 524 199.5 c 128,-1,9
 451 142 451 142 293 142 c 2,0,-1
262 325 m 1,10,-1
 283 325 l 2,11,12
 326 325 326 325 344.5 344 c 128,-1,13
 363 363 363 363 363 409 c 128,-1,14
 363 455 363 455 345.5 471 c 128,-1,15
 328 487 328 487 283 487 c 2,16,-1
 262 487 l 1,17,-1
 262 325 l 1,10,-1
EndSplineSet
Position2: "'cpsp' Capital Spacing in Latin lookup 0 subtable" dx=5 dy=0 dh=10 dv=0
EndChar

StartChar: Q
Encoding: 81 81 52
Width: 667
GlyphClass: 2
Flags: W
LayerCount: 2
Fore
SplineSet
332 -13 m 0,0,1
 165 -13 165 -13 90.5 68.5 c 128,-1,2
 16 150 16 150 16 335 c 128,-1,3
 16 520 16 520 89.5 601.5 c 128,-1,4
 163 683 163 683 332 683 c 128,-1,5
 501 683 501 683 576 601.5 c 128,-1,6
 651 520 651 520 651 324 c 128,-1,7
 651 128 651 128 555 48 c 1,8,-1
 635 -71 l 1,9,-1
 459 -158 l 1,10,-1
 361 -12 l 1,11,12
 352 -13 352 -13 332 -13 c 0,0,1
262.5 213.5 m 128,-1,14
 281 175 281 175 332.5 175 c 128,-1,15
 384 175 384 175 400.5 213 c 128,-1,16
 417 251 417 251 417 335.5 c 128,-1,17
 417 420 417 420 400.5 457.5 c 128,-1,18
 384 495 384 495 332.5 495 c 128,-1,19
 281 495 281 495 262.5 456.5 c 128,-1,20
 244 418 244 418 244 335 c 128,-1,13
 244 252 244 252 262.5 213.5 c 128,-1,14
EndSplineSet
Position2: "'cpsp' Capital Spacing in Latin lookup 0 subtable" dx=5 dy=0 dh=10 dv=0
EndChar

StartChar: R
Encoding: 82 82 53
Width: 617
GlyphClass: 2
Flags: W
LayerCount: 2
Fore
SplineSet
319 173 m 1,0,-1
 262 173 l 1,1,-1
 262 0 l 1,2,-1
 30 0 l 1,3,-1
 30 670 l 1,4,-1
 312 670 l 2,5,6
 467 670 467 670 534 618.5 c 128,-1,7
 601 567 601 567 601 427.5 c 128,-1,8
 601 288 601 288 527 228 c 1,9,-1
 593 0 l 1,10,-1
 357 0 l 1,11,-1
 319 173 l 1,0,-1
318 356 m 2,12,13
 367 356 367 356 367 421.5 c 128,-1,14
 367 487 367 487 312 487 c 2,15,-1
 261 487 l 1,16,-1
 261 356 l 1,17,-1
 318 356 l 2,12,13
EndSplineSet
Position2: "'cpsp' Capital Spacing in Latin lookup 0 subtable" dx=5 dy=0 dh=10 dv=0
EndChar

StartChar: S
Encoding: 83 83 54
Width: 578
GlyphClass: 2
Flags: W
LayerCount: 2
Fore
SplineSet
540 477 m 1,0,1
 399 492 399 492 335 492 c 128,-1,2
 271 492 271 492 260.5 488.5 c 128,-1,3
 250 485 250 485 250 474 c 128,-1,4
 250 463 250 463 262 457 c 128,-1,5
 274 451 274 451 337.5 437 c 128,-1,6
 401 423 401 423 441.5 409.5 c 128,-1,7
 482 396 482 396 514.5 371.5 c 128,-1,8
 547 347 547 347 557.5 311.5 c 128,-1,9
 568 276 568 276 568 216 c 0,10,11
 568 92 568 92 502 39 c 128,-1,12
 436 -14 436 -14 303 -14 c 0,13,14
 239 -14 239 -14 168.5 -5 c 128,-1,15
 98 4 98 4 60 13 c 2,16,-1
 21 22 l 1,17,-1
 31 199 l 1,18,19
 184 177 184 177 282 177 c 0,20,21
 334 177 334 177 334 200 c 0,22,23
 334 210 334 210 322 214.5 c 128,-1,24
 310 219 310 219 257 227 c 0,25,26
 117 249 117 249 66.5 295.5 c 128,-1,27
 16 342 16 342 16 448 c 0,28,29
 16 583 16 583 81 633 c 128,-1,30
 146 683 146 683 281 683 c 0,31,32
 376 683 376 683 504 664 c 1,33,-1
 546 657 l 1,34,-1
 540 477 l 1,0,1
EndSplineSet
Position2: "'cpsp' Capital Spacing in Latin lookup 0 subtable" dx=5 dy=0 dh=10 dv=0
EndChar

StartChar: T
Encoding: 84 84 55
Width: 519
GlyphClass: 2
Flags: W
LayerCount: 2
Fore
SplineSet
9 481 m 1,0,-1
 9 670 l 1,1,-1
 509 670 l 1,2,-1
 509 481 l 1,3,-1
 379 481 l 1,4,-1
 379 0 l 1,5,-1
 147 0 l 1,6,-1
 147 481 l 1,7,-1
 9 481 l 1,0,-1
EndSplineSet
Position2: "'cpsp' Capital Spacing in Latin lookup 0 subtable" dx=5 dy=0 dh=10 dv=0
EndChar

StartChar: U
Encoding: 85 85 56
Width: 641
GlyphClass: 2
Flags: W
LayerCount: 2
Fore
SplineSet
258 670 m 1,0,-1
 258 231 l 2,1,2
 258 202 258 202 272.5 190 c 128,-1,3
 287 178 287 178 321 178 c 128,-1,4
 355 178 355 178 369 190 c 128,-1,5
 383 202 383 202 383 231 c 2,6,-1
 383 670 l 1,7,-1
 615 670 l 1,8,-1
 615 244 l 2,9,10
 615 102 615 102 544 44.5 c 128,-1,11
 473 -13 473 -13 320.5 -13 c 128,-1,12
 168 -13 168 -13 97 43 c 128,-1,13
 26 99 26 99 26 240 c 2,14,-1
 26 670 l 1,15,-1
 258 670 l 1,0,-1
EndSplineSet
Position2: "'cpsp' Capital Spacing in Latin lookup 0 subtable" dx=5 dy=0 dh=10 dv=0
EndChar

StartChar: V
Encoding: 86 86 57
Width: 598
GlyphClass: 2
Flags: W
LayerCount: 2
Fore
SplineSet
602 670 m 1,0,-1
 471 0 l 1,1,-1
 129 0 l 1,2,-1
 -7 670 l 1,3,-1
 239 670 l 1,4,-1
 291 234 l 1,5,-1
 309 234 l 1,6,-1
 356 670 l 1,7,-1
 602 670 l 1,0,-1
EndSplineSet
Position2: "'cpsp' Capital Spacing in Latin lookup 0 subtable" dx=5 dy=0 dh=10 dv=0
EndChar

StartChar: W
Encoding: 87 87 58
Width: 915
GlyphClass: 2
Flags: W
LayerCount: 2
Fore
SplineSet
85 0 m 1,0,-1
 6 670 l 1,1,-1
 237 670 l 1,2,-1
 269 234 l 1,3,-1
 287 234 l 1,4,-1
 332 660 l 1,5,-1
 585 660 l 1,6,-1
 635 234 l 1,7,-1
 653 234 l 1,8,-1
 673 670 l 1,9,-1
 906 670 l 1,10,-1
 832 0 l 1,11,-1
 493 0 l 1,12,-1
 460 412 l 1,13,-1
 450 413 l 1,14,-1
 416 0 l 1,15,-1
 85 0 l 1,0,-1
EndSplineSet
Position2: "'cpsp' Capital Spacing in Latin lookup 0 subtable" dx=5 dy=0 dh=10 dv=0
EndChar

StartChar: X
Encoding: 88 88 59
Width: 583
GlyphClass: 2
Flags: W
LayerCount: 2
Fore
SplineSet
228 670 m 1,0,-1
 289 486 l 1,1,-1
 367 670 l 1,2,-1
 595 670 l 1,3,-1
 450 351 l 1,4,-1
 586 0 l 1,5,-1
 348 0 l 1,6,-1
 289 178 l 1,7,-1
 228 0 l 1,8,-1
 -8 0 l 1,9,-1
 135 321 l 1,10,-1
 -8 670 l 1,11,-1
 228 670 l 1,0,-1
EndSplineSet
Position2: "'cpsp' Capital Spacing in Latin lookup 0 subtable" dx=5 dy=0 dh=10 dv=0
EndChar

StartChar: Y
Encoding: 89 89 60
Width: 590
GlyphClass: 2
Flags: W
LayerCount: 2
Fore
SplineSet
410 0 m 1,0,-1
 178 0 l 1,1,-1
 178 210 l 1,2,-1
 -13 670 l 1,3,-1
 233 670 l 1,4,-1
 296 473 l 1,5,-1
 361 670 l 1,6,-1
 606 670 l 1,7,-1
 410 210 l 1,8,-1
 410 0 l 1,0,-1
EndSplineSet
Position2: "'cpsp' Capital Spacing in Latin lookup 0 subtable" dx=5 dy=0 dh=10 dv=0
EndChar

StartChar: Z
Encoding: 90 90 61
Width: 569
GlyphClass: 2
Flags: W
LayerCount: 2
Fore
SplineSet
19 481 m 1,0,-1
 19 670 l 1,1,-1
 549 670 l 1,2,-1
 549 481 l 1,3,-1
 332 206 l 1,4,-1
 332 189 l 1,5,-1
 549 189 l 1,6,-1
 549 0 l 1,7,-1
 19 0 l 1,8,-1
 19 180 l 1,9,-1
 241 464 l 1,10,-1
 241 481 l 1,11,-1
 19 481 l 1,0,-1
EndSplineSet
Position2: "'cpsp' Capital Spacing in Latin lookup 0 subtable" dx=5 dy=0 dh=10 dv=0
EndChar

StartChar: bracketleft
Encoding: 91 91 62
Width: 341
GlyphClass: 2
Flags: W
LayerCount: 2
Fore
SplineSet
322 749 m 1,0,-1
 322 568 l 1,1,-1
 258 568 l 1,2,-1
 258 58 l 1,3,-1
 322 58 l 1,4,-1
 322 -123 l 1,5,-1
 33 -123 l 1,6,-1
 33 749 l 1,7,-1
 322 749 l 1,0,-1
EndSplineSet
Substitution2: "'case' Case-Sensitive Forms in Latin lookup 4 subtable" bracketleft.cap
EndChar

StartChar: backslash
Encoding: 92 92 63
Width: 550
GlyphClass: 2
Flags: W
LayerCount: 2
Fore
SplineSet
232 720 m 1,0,-1
 535 -30 l 1,1,-1
 318 -74 l 1,2,-1
 15 676 l 1,3,-1
 232 720 l 1,0,-1
EndSplineSet
EndChar

StartChar: bracketright
Encoding: 93 93 64
Width: 339
GlyphClass: 2
Flags: W
LayerCount: 2
Fore
SplineSet
17 568 m 1,0,-1
 17 749 l 1,1,-1
 306 749 l 1,2,-1
 306 -123 l 1,3,-1
 17 -123 l 1,4,-1
 17 58 l 1,5,-1
 81 58 l 1,6,-1
 81 568 l 1,7,-1
 17 568 l 1,0,-1
EndSplineSet
Substitution2: "'case' Case-Sensitive Forms in Latin lookup 4 subtable" bracketright.cap
EndChar

StartChar: asciicircum
Encoding: 94 94 65
Width: 633
GlyphClass: 2
Flags: W
LayerCount: 2
Fore
SplineSet
378 313 m 1,0,-1
 319 530 l 1,1,-1
 256 313 l 1,2,-1
 46 313 l 1,3,-1
 190 670 l 1,4,-1
 444 670 l 1,5,-1
 588 313 l 1,6,-1
 378 313 l 1,0,-1
EndSplineSet
EndChar

StartChar: underscore
Encoding: 95 95 66
Width: 600
GlyphClass: 2
Flags: W
LayerCount: 2
Fore
SplineSet
40 -185 m 1,0,-1
 40 -58 l 1,1,-1
 560 -58 l 1,2,-1
 560 -185 l 1,3,-1
 40 -185 l 1,0,-1
EndSplineSet
EndChar

StartChar: grave
Encoding: 96 96 67
Width: 423
GlyphClass: 2
Flags: W
LayerCount: 2
Fore
SplineSet
78 723 m 1,0,-1
 315 723 l 1,1,-1
 358 557 l 1,2,-1
 187 557 l 1,3,-1
 78 723 l 1,0,-1
EndSplineSet
EndChar

StartChar: a
Encoding: 97 97 68
Width: 557
GlyphClass: 2
Flags: W
LayerCount: 2
Fore
SplineSet
518 342 m 2,0,-1
 518 152 l 1,1,2
 527 145 527 145 542 141 c 1,3,-1
 539 -1 l 1,4,5
 461 -13 461 -13 432 -13 c 128,-1,6
 403 -13 403 -13 379 -4.5 c 128,-1,7
 355 4 355 4 347 13 c 2,8,-1
 339 22 l 1,9,10
 277 -13 277 -13 188.5 -13 c 128,-1,11
 100 -13 100 -13 55 27.5 c 128,-1,12
 10 68 10 68 10 158 c 128,-1,13
 10 248 10 248 61 278.5 c 128,-1,14
 112 309 112 309 222 313 c 2,15,-1
 294 316 l 1,16,-1
 294 325 l 2,17,18
 294 344 294 344 252 344 c 0,19,20
 161 344 161 344 70 334 c 1,21,-1
 37 331 l 1,22,-1
 32 483 l 1,23,24
 164 518 164 518 273 518 c 0,25,26
 387 518 387 518 450 484 c 0,27,28
 518 448 518 448 518 342 c 2,0,-1
256 141 m 0,29,30
 275 141 275 141 294 156 c 1,31,-1
 294 193 l 1,32,-1
 260 191 l 2,33,34
 234 189 234 189 234 165 c 128,-1,35
 234 141 234 141 256 141 c 0,29,30
EndSplineSet
EndChar

StartChar: b
Encoding: 98 98 69
Width: 569
GlyphClass: 2
Flags: W
LayerCount: 2
Fore
SplineSet
355 518 m 0,0,1
 553 518 553 518 553 261 c 0,2,3
 553 107 553 107 494 47 c 128,-1,4
 435 -13 435 -13 279 -13 c 0,5,6
 215 -13 215 -13 72 4 c 1,7,-1
 27 10 l 1,8,-1
 27 690 l 1,9,-1
 251 690 l 1,10,-1
 251 502 l 1,11,12
 317 518 317 518 355 518 c 0,0,1
283 168 m 0,13,14
 327 168 327 168 327 256 c 0,15,16
 327 303 327 303 317 320 c 128,-1,17
 307 337 307 337 283 337 c 1,18,-1
 251 330 l 1,19,-1
 251 171 l 1,20,21
 264 168 264 168 283 168 c 0,13,14
EndSplineSet
EndChar

StartChar: c
Encoding: 99 99 70
Width: 465
GlyphClass: 2
Flags: W
LayerCount: 2
Fore
SplineSet
266 518 m 0,0,1
 335 518 335 518 419 498 c 1,2,-1
 447 492 l 1,3,-1
 440 315 l 1,4,5
 337 323 337 323 302 323 c 128,-1,6
 267 323 267 323 254.5 307.5 c 128,-1,7
 242 292 242 292 242 252.5 c 128,-1,8
 242 213 242 213 254.5 198 c 128,-1,9
 267 183 267 183 299 183 c 1,10,-1
 442 190 l 1,11,-1
 449 15 l 1,12,13
 353 -13 353 -13 266 -13 c 0,14,15
 122 -13 122 -13 69 46.5 c 128,-1,16
 16 106 16 106 16 254.5 c 128,-1,17
 16 403 16 403 73 460.5 c 128,-1,18
 130 518 130 518 266 518 c 0,0,1
EndSplineSet
EndChar

StartChar: d
Encoding: 100 100 71
Width: 570
GlyphClass: 2
Flags: W
LayerCount: 2
Fore
SplineSet
542 690 m 1,0,-1
 542 0 l 1,1,-1
 321 0 l 1,2,-1
 319 22 l 1,3,4
 264 -13 264 -13 214 -13 c 0,5,6
 104 -13 104 -13 60 54.5 c 128,-1,7
 16 122 16 122 16 252 c 0,8,9
 16 518 16 518 237 518 c 1,10,-1
 318 512 l 1,11,-1
 318 690 l 1,12,-1
 542 690 l 1,0,-1
286 337 m 0,13,14
 259 337 259 337 250.5 315 c 128,-1,15
 242 293 242 293 242 252.5 c 128,-1,16
 242 212 242 212 251 190 c 128,-1,17
 260 168 260 168 287 168 c 1,18,-1
 318 171 l 1,19,-1
 318 334 l 1,20,21
 296 337 296 337 286 337 c 0,13,14
EndSplineSet
EndChar

StartChar: e
Encoding: 101 101 72
Width: 552
GlyphClass: 2
Flags: W
LayerCount: 2
Fore
SplineSet
239 187 m 1,0,1
 240 152 240 152 284 152 c 0,2,3
 384 152 384 152 484 158 c 1,4,-1
 523 161 l 1,5,-1
 528 16 l 1,6,7
 395 -13 395 -13 263.5 -13 c 128,-1,8
 132 -13 132 -13 73.5 47.5 c 128,-1,9
 15 108 15 108 15 243.5 c 128,-1,10
 15 379 15 379 78 448.5 c 128,-1,11
 141 518 141 518 274.5 518 c 128,-1,12
 408 518 408 518 473 461 c 128,-1,13
 538 404 538 404 538 286 c 1,14,-1
 528 187 l 1,15,-1
 239 187 l 1,0,1
314 309 m 1,16,17
 314 338 314 338 305.5 350 c 128,-1,18
 297 362 297 362 276 362 c 128,-1,19
 255 362 255 362 247 350 c 128,-1,20
 239 338 239 338 238 309 c 1,21,-1
 314 309 l 1,16,17
EndSplineSet
EndChar

StartChar: f
Encoding: 102 102 73
Width: 358
GlyphClass: 2
Flags: W
LayerCount: 2
Fore
SplineSet
269 324 m 1,0,-1
 269 0 l 1,1,-1
 45 0 l 1,2,-1
 45 324 l 1,3,-1
 18 324 l 1,4,-1
 18 505 l 1,5,-1
 45 505 l 1,6,-1
 45 509 l 2,7,8
 45 617 45 617 81 660 c 128,-1,9
 117 703 117 703 217 703 c 0,10,11
 266 703 266 703 332 693 c 2,12,-1
 351 690 l 1,13,-1
 351 528 l 1,14,15
 269 528 269 528 269 515 c 2,16,-1
 269 505 l 1,17,-1
 349 505 l 1,18,-1
 349 324 l 1,19,-1
 269 324 l 1,0,-1
EndSplineSet
EndChar

StartChar: g
Encoding: 103 103 74
Width: 562
GlyphClass: 2
Flags: W
LayerCount: 2
Fore
SplineSet
92 -196 m 1,0,1
 12 -170 12 -170 12 -81 c 0,2,3
 12 -45 12 -45 26 -17 c 128,-1,4
 40 11 40 11 76 39 c 1,5,6
 40 64 40 64 40 114 c 0,7,8
 40 125 40 125 54.5 143.5 c 128,-1,9
 69 162 69 162 84 174 c 1,10,-1
 98 187 l 1,11,12
 17 225 17 225 17 331 c 128,-1,13
 17 437 17 437 74.5 477.5 c 128,-1,14
 132 518 132 518 265 518 c 0,15,16
 298 518 298 518 352 510 c 1,17,-1
 368 507 l 1,18,-1
 553 510 l 1,19,-1
 553 379 l 1,20,-1
 506 379 l 1,21,22
 515 354 515 354 515 338 c 0,23,24
 515 230 515 230 460 193.5 c 128,-1,25
 405 157 405 157 273 157 c 0,26,27
 253 157 253 157 235 160 c 1,28,29
 231 154 231 154 231 148 c 0,30,31
 231 138 231 138 349 138 c 128,-1,32
 467 138 467 138 508.5 103 c 128,-1,33
 550 68 550 68 550 -24.5 c 128,-1,34
 550 -117 550 -117 482 -168.5 c 128,-1,35
 414 -220 414 -220 288 -220 c 128,-1,36
 162 -220 162 -220 92 -196 c 1,0,1
195 -53 m 0,37,38
 195 -66 195 -66 271 -66 c 128,-1,39
 347 -66 347 -66 347 -50 c 0,40,41
 347 -40 347 -40 334 -37.5 c 128,-1,42
 321 -35 321 -35 281 -35 c 1,43,-1
 204 -31 l 1,44,45
 195 -36 195 -36 195 -53 c 0,37,38
266 303 m 128,-1,47
 287 303 287 303 296 311 c 128,-1,48
 305 319 305 319 305 339 c 128,-1,49
 305 359 305 359 296 367 c 128,-1,50
 287 375 287 375 266 375 c 128,-1,51
 245 375 245 375 236 367 c 128,-1,52
 227 359 227 359 227 339 c 128,-1,53
 227 319 227 319 236 311 c 128,-1,46
 245 303 245 303 266 303 c 128,-1,47
EndSplineSet
EndChar

StartChar: h
Encoding: 104 104 75
Width: 578
GlyphClass: 2
Flags: W
LayerCount: 2
Fore
SplineSet
252 0 m 1,0,-1
 28 0 l 1,1,-1
 28 690 l 1,2,-1
 252 690 l 1,3,-1
 252 501 l 1,4,5
 322 518 322 518 359 518 c 0,6,7
 468 518 468 518 511.5 461 c 128,-1,8
 555 404 555 404 555 261 c 2,9,-1
 555 0 l 1,10,-1
 331 0 l 1,11,-1
 331 238 l 2,12,13
 331 325 331 325 293 325 c 1,14,-1
 252 319 l 1,15,-1
 252 0 l 1,0,-1
EndSplineSet
EndChar

StartChar: i
Encoding: 105 105 76
Width: 280
GlyphClass: 2
Flags: W
LayerCount: 2
Fore
SplineSet
28 0 m 1,0,-1
 28 505 l 1,1,-1
 252 505 l 1,2,-1
 252 0 l 1,3,-1
 28 0 l 1,0,-1
27 537 m 1,4,-1
 27 690 l 1,5,-1
 253 690 l 1,6,-1
 253 537 l 1,7,-1
 27 537 l 1,4,-1
EndSplineSet
EndChar

StartChar: j
Encoding: 106 106 77
Width: 280
GlyphClass: 2
Flags: W
LayerCount: 2
Fore
SplineSet
27 538 m 1,0,-1
 27 690 l 1,1,-1
 253 690 l 1,2,-1
 253 538 l 1,3,-1
 27 538 l 1,0,-1
28 66 m 2,4,-1
 28 505 l 1,5,-1
 252 505 l 1,6,-1
 252 73 l 2,7,8
 252 -32 252 -32 236.5 -70 c 128,-1,9
 221 -108 221 -108 206.5 -126 c 128,-1,10
 192 -144 192 -144 161 -162 c 1,11,12
 113 -188 113 -188 11 -220 c 1,13,-1
 -61 -50 l 1,14,15
 1 -21 1 -21 14.5 -4 c 128,-1,16
 28 13 28 13 28 66 c 2,4,-1
EndSplineSet
EndChar

StartChar: k
Encoding: 107 107 78
Width: 553
GlyphClass: 2
Flags: W
LayerCount: 2
Fore
SplineSet
252 0 m 1,0,-1
 28 0 l 1,1,-1
 28 690 l 1,2,-1
 252 690 l 1,3,-1
 252 343 l 1,4,-1
 281 343 l 1,5,-1
 326 505 l 1,6,-1
 547 505 l 1,7,-1
 475 261 l 1,8,-1
 553 0 l 1,9,-1
 329 0 l 1,10,-1
 282 148 l 1,11,-1
 252 148 l 1,12,-1
 252 0 l 1,0,-1
EndSplineSet
EndChar

StartChar: l
Encoding: 108 108 79
Width: 280
GlyphClass: 2
Flags: W
LayerCount: 2
Fore
SplineSet
28 0 m 1,0,-1
 28 690 l 1,1,-1
 252 690 l 1,2,-1
 252 0 l 1,3,-1
 28 0 l 1,0,-1
EndSplineSet
EndChar

StartChar: m
Encoding: 109 109 80
Width: 861
GlyphClass: 2
Flags: W
LayerCount: 2
Fore
SplineSet
252 0 m 1,0,-1
 28 0 l 1,1,-1
 28 505 l 1,2,-1
 251 505 l 1,3,-1
 251 479 l 1,4,5
 317 518 317 518 380.5 518 c 128,-1,6
 444 518 444 518 485 473 c 1,7,8
 556 518 556 518 635 518 c 0,9,10
 752 518 752 518 795 455.5 c 128,-1,11
 838 393 838 393 838 255 c 2,12,-1
 838 0 l 1,13,-1
 614 0 l 1,14,-1
 614 228 l 2,15,16
 614 325 614 325 581 325 c 1,17,-1
 538 319 l 1,18,19
 545 298 545 298 545 232 c 2,20,-1
 545 0 l 1,21,-1
 321 0 l 1,22,-1
 321 228 l 2,23,24
 321 325 321 325 289 325 c 1,25,-1
 252 320 l 1,26,-1
 252 0 l 1,0,-1
EndSplineSet
EndChar

StartChar: n
Encoding: 110 110 81
Width: 578
GlyphClass: 2
Flags: W
LayerCount: 2
Fore
SplineSet
252 0 m 1,0,-1
 28 0 l 1,1,-1
 28 505 l 1,2,-1
 251 505 l 1,3,-1
 251 479 l 1,4,5
 314 518 314 518 361 518 c 0,6,7
 469 518 469 518 512 459.5 c 128,-1,8
 555 401 555 401 555 253 c 2,9,-1
 555 0 l 1,10,-1
 331 0 l 1,11,-1
 331 238 l 2,12,13
 331 325 331 325 295 325 c 1,14,-1
 252 318 l 1,15,-1
 252 0 l 1,0,-1
EndSplineSet
EndChar

StartChar: o
Encoding: 111 111 82
Width: 564
GlyphClass: 2
Flags: W
LayerCount: 2
Fore
SplineSet
282 518 m 128,-1,1
 416 518 416 518 482.5 455.5 c 128,-1,2
 549 393 549 393 549 252 c 128,-1,3
 549 111 549 111 482.5 49 c 128,-1,4
 416 -13 416 -13 282 -13 c 128,-1,5
 148 -13 148 -13 81.5 49 c 128,-1,6
 15 111 15 111 15 252 c 128,-1,7
 15 393 15 393 81.5 455.5 c 128,-1,0
 148 518 148 518 282 518 c 128,-1,1
282 168 m 128,-1,9
 305 168 305 168 314 186 c 128,-1,10
 323 204 323 204 323 252.5 c 128,-1,11
 323 301 323 301 314 319 c 128,-1,12
 305 337 305 337 282 337 c 128,-1,13
 259 337 259 337 250 319 c 128,-1,14
 241 301 241 301 241 252.5 c 128,-1,15
 241 204 241 204 250 186 c 128,-1,8
 259 168 259 168 282 168 c 128,-1,9
EndSplineSet
EndChar

StartChar: p
Encoding: 112 112 83
Width: 570
GlyphClass: 2
Flags: W
LayerCount: 2
Fore
SplineSet
356 518 m 0,0,1
 462 518 462 518 508 450 c 128,-1,2
 554 382 554 382 554 247.5 c 128,-1,3
 554 113 554 113 503.5 50 c 128,-1,4
 453 -13 453 -13 334 -13 c 0,5,6
 310 -13 310 -13 266 -3 c 2,7,-1
 252 0 l 1,8,-1
 252 -195 l 1,9,-1
 28 -195 l 1,10,-1
 28 505 l 1,11,-1
 249 505 l 1,12,-1
 251 479 l 1,13,14
 300 518 300 518 356 518 c 0,0,1
284 168 m 0,15,16
 328 168 328 168 328 256 c 0,17,18
 328 303 328 303 318 320 c 128,-1,19
 308 337 308 337 284 337 c 1,20,-1
 252 330 l 1,21,-1
 252 171 l 1,22,23
 265 168 265 168 284 168 c 0,15,16
EndSplineSet
EndChar

StartChar: q
Encoding: 113 113 84
Width: 570
GlyphClass: 2
Flags: W
LayerCount: 2
Fore
SplineSet
214 -13 m 0,0,1
 16 -13 16 -13 16 245 c 0,2,3
 16 395 16 395 80.5 457 c 128,-1,4
 145 519 145 519 290 519 c 0,5,6
 351 519 351 519 497 506 c 2,7,-1
 542 502 l 1,8,-1
 542 -194 l 1,9,-1
 318 -194 l 1,10,-1
 318 4 l 1,11,12
 252 -13 252 -13 214 -13 c 0,0,1
286 338 m 0,13,14
 242 338 242 338 242 250 c 0,15,16
 242 203 242 203 252 186 c 128,-1,17
 262 169 262 169 286 169 c 1,18,-1
 318 175 l 1,19,-1
 318 335 l 1,20,21
 305 338 305 338 286 338 c 0,13,14
EndSplineSet
EndChar

StartChar: r
Encoding: 114 114 85
Width: 368
GlyphClass: 2
Flags: W
LayerCount: 2
Fore
SplineSet
252 0 m 1,0,-1
 28 0 l 1,1,-1
 28 505 l 1,2,-1
 252 505 l 1,3,-1
 252 458 l 1,4,5
 315 518 315 518 358 518 c 1,6,-1
 358 310 l 1,7,8
 324 310 324 310 270 283 c 2,9,-1
 252 274 l 1,10,-1
 252 0 l 1,0,-1
EndSplineSet
EndChar

StartChar: s
Encoding: 115 115 86
Width: 489
GlyphClass: 2
Flags: W
LayerCount: 2
Fore
SplineSet
457 335 m 1,0,1
 333 349 333 349 288 349 c 128,-1,2
 243 349 243 349 243 341 c 0,3,4
 243 335 243 335 321.5 326.5 c 128,-1,5
 400 318 400 318 436 281.5 c 128,-1,6
 472 245 472 245 472 157 c 128,-1,7
 472 69 472 69 417.5 28 c 128,-1,8
 363 -13 363 -13 250 -13 c 0,9,10
 187 -13 187 -13 130 -6.5 c 128,-1,11
 73 0 73 0 48 7 c 2,12,-1
 22 14 l 1,13,-1
 27 165 l 1,14,15
 151 148 151 148 199.5 148 c 128,-1,16
 248 148 248 148 248 157 c 0,17,18
 248 162 248 162 169 172.5 c 128,-1,19
 90 183 90 183 54.5 219.5 c 128,-1,20
 19 256 19 256 19 334 c 0,21,22
 19 436 19 436 77.5 477 c 128,-1,23
 136 518 136 518 243 518 c 0,24,25
 357 518 357 518 438 498 c 1,26,-1
 465 492 l 1,27,-1
 457 335 l 1,0,1
EndSplineSet
EndChar

StartChar: t
Encoding: 116 116 87
Width: 371
GlyphClass: 2
Flags: W
LayerCount: 2
Fore
SplineSet
273 324 m 1,0,-1
 273 220 l 2,1,2
 273 195 273 195 279.5 186.5 c 128,-1,3
 286 178 286 178 306 178 c 2,4,-1
 351 179 l 1,5,-1
 354 5 l 1,6,7
 268 -13 268 -13 222 -13 c 0,8,9
 129 -13 129 -13 89 25.5 c 128,-1,10
 49 64 49 64 49 168 c 2,11,-1
 49 324 l 1,12,-1
 10 324 l 1,13,-1
 10 505 l 1,14,-1
 49 505 l 1,15,-1
 49 605 l 1,16,-1
 273 605 l 1,17,-1
 273 505 l 1,18,-1
 354 505 l 1,19,-1
 354 324 l 1,20,-1
 273 324 l 1,0,-1
EndSplineSet
EndChar

StartChar: u
Encoding: 117 117 88
Width: 577
GlyphClass: 2
Flags: W
LayerCount: 2
Fore
SplineSet
325 505 m 1,0,-1
 549 505 l 1,1,-1
 549 0 l 1,2,-1
 327 0 l 1,3,-1
 327 24 l 1,4,5
 263 -13 263 -13 213 -13 c 0,6,7
 107 -13 107 -13 65 48.5 c 128,-1,8
 23 110 23 110 23 244 c 2,9,-1
 23 505 l 1,10,-1
 247 505 l 1,11,-1
 247 259 l 2,12,13
 247 214 247 214 255 197 c 128,-1,14
 263 180 263 180 281 180 c 1,15,-1
 325 186 l 1,16,-1
 325 505 l 1,0,-1
EndSplineSet
EndChar

StartChar: v
Encoding: 118 118 89
Width: 547
GlyphClass: 2
Flags: W
LayerCount: 2
Fore
SplineSet
1 505 m 1,0,-1
 239 505 l 1,1,-1
 275 187 l 1,2,-1
 288 187 l 1,3,-1
 322 505 l 1,4,-1
 546 505 l 1,5,-1
 461 0 l 1,6,-1
 86 0 l 1,7,-1
 1 505 l 1,0,-1
EndSplineSet
EndChar

StartChar: w
Encoding: 119 119 90
Width: 792
GlyphClass: 2
Flags: W
LayerCount: 2
Fore
SplineSet
10 505 m 1,0,-1
 257 505 l 1,1,-1
 267 187 l 1,2,-1
 279 187 l 1,3,-1
 302 492 l 1,4,-1
 505 492 l 1,5,-1
 537 187 l 1,6,-1
 549 187 l 1,7,-1
 560 505 l 1,8,-1
 781 505 l 1,9,-1
 730 0 l 1,10,-1
 411 0 l 1,11,-1
 394 218 l 1,12,-1
 375 0 l 1,13,-1
 70 0 l 1,14,-1
 10 505 l 1,0,-1
EndSplineSet
EndChar

StartChar: x
Encoding: 120 120 91
Width: 538
GlyphClass: 2
Flags: W
LayerCount: 2
Fore
SplineSet
98 250 m 1,0,-1
 -1 505 l 1,1,-1
 239 505 l 1,2,-1
 279 363 l 1,3,-1
 319 505 l 1,4,-1
 539 505 l 1,5,-1
 450 254 l 1,6,-1
 536 0 l 1,7,-1
 294 0 l 1,8,-1
 254 127 l 1,9,-1
 221 0 l 1,10,-1
 -1 0 l 1,11,-1
 98 250 l 1,0,-1
EndSplineSet
EndChar

StartChar: y
Encoding: 121 121 92
Width: 546
GlyphClass: 2
Flags: W
LayerCount: 2
Fore
SplineSet
86 0 m 1,0,-1
 1 505 l 1,1,-1
 239 505 l 1,2,-1
 275 187 l 1,3,-1
 289 187 l 1,4,-1
 321 505 l 1,5,-1
 546 505 l 1,6,-1
 427 -195 l 1,7,-1
 181 -195 l 1,8,-1
 244 0 l 1,9,-1
 86 0 l 1,0,-1
EndSplineSet
EndChar

StartChar: z
Encoding: 122 122 93
Width: 500
GlyphClass: 2
Flags: W
LayerCount: 2
Fore
SplineSet
24 310 m 1,0,-1
 24 505 l 1,1,-1
 475 505 l 1,2,-1
 475 332 l 1,3,-1
 322 195 l 1,4,-1
 478 195 l 1,5,-1
 478 0 l 1,6,-1
 24 0 l 1,7,-1
 24 183 l 1,8,-1
 172 310 l 1,9,-1
 24 310 l 1,0,-1
EndSplineSet
EndChar

StartChar: braceleft
Encoding: 123 123 94
Width: 361
GlyphClass: 2
Flags: W
LayerCount: 2
Fore
SplineSet
273 518 m 1,0,-1
 276 437 l 1,1,2
 276 386 276 386 264.5 362.5 c 128,-1,3
 253 339 253 339 220 321 c 1,4,5
 252 303 252 303 264 279.5 c 128,-1,6
 276 256 276 256 276 211 c 1,7,-1
 273 113 l 1,8,9
 273 75 273 75 286 62.5 c 128,-1,10
 299 50 299 50 344 46 c 1,11,-1
 344 -134 l 1,12,13
 227 -134 227 -134 174.5 -121 c 128,-1,14
 122 -108 122 -108 98 -90 c 1,15,16
 46 -48 46 -48 46 38 c 0,17,18
 46 59 46 59 52.5 119 c 128,-1,19
 59 179 59 179 59 190 c 0,20,21
 59 221 59 221 15 230 c 1,22,-1
 15 399 l 1,23,24
 59 407 59 407 59 433 c 1,25,-1
 46 586 l 1,26,27
 46 668 46 668 84 704 c 1,28,29
 126 742 126 742 188 752 c 1,30,31
 253 761 253 761 344 761 c 1,32,-1
 344 581 l 1,33,34
 298 577 298 577 285.5 566 c 128,-1,35
 273 555 273 555 273 518 c 1,0,-1
EndSplineSet
Substitution2: "'case' Case-Sensitive Forms in Latin lookup 4 subtable" braceleft.cap
EndChar

StartChar: bar
Encoding: 124 124 95
Width: 286
GlyphClass: 2
Flags: W
LayerCount: 2
Fore
SplineSet
34 -220 m 1,0,-1
 34 703 l 1,1,-1
 252 703 l 1,2,-1
 252 -220 l 1,3,-1
 34 -220 l 1,0,-1
EndSplineSet
EndChar

StartChar: braceright
Encoding: 125 125 96
Width: 359
GlyphClass: 2
Flags: W
LayerCount: 2
Fore
SplineSet
86 105 m 1,0,-1
 83 186 l 1,1,2
 83 238 83 238 94.5 261 c 128,-1,3
 106 284 106 284 139 302 c 1,4,5
 107 320 107 320 95 343.5 c 128,-1,6
 83 367 83 367 83 412 c 1,7,-1
 86 510 l 1,8,9
 86 548 86 548 73 560.5 c 128,-1,10
 60 573 60 573 15 577 c 1,11,-1
 15 757 l 1,12,13
 132 757 132 757 184.5 744 c 128,-1,14
 237 731 237 731 260 712 c 0,15,16
 313 671 313 671 313 585 c 0,17,18
 313 564 313 564 306.5 504 c 128,-1,19
 300 444 300 444 300 433 c 0,20,21
 300 402 300 402 344 393 c 1,22,-1
 344 224 l 1,23,24
 300 216 300 216 300 190 c 1,25,-1
 313 37 l 1,26,27
 313 -45 313 -45 275 -80 c 0,28,29
 233 -119 233 -119 170 -128 c 0,30,31
 106 -138 106 -138 15 -138 c 1,32,-1
 15 42 l 1,33,34
 61 46 61 46 73.5 57 c 128,-1,35
 86 68 86 68 86 105 c 1,0,-1
EndSplineSet
Substitution2: "'case' Case-Sensitive Forms in Latin lookup 4 subtable" braceright.cap
EndChar

StartChar: asciitilde
Encoding: 126 126 97
Width: 550
GlyphClass: 2
Flags: W
LayerCount: 2
Fore
SplineSet
372 136 m 128,-1,1
 343 136 343 136 270 158 c 128,-1,2
 197 180 197 180 178 180 c 128,-1,3
 159 180 159 180 131.5 170 c 128,-1,4
 104 160 104 160 88 150 c 2,5,-1
 71 140 l 1,6,-1
 61 312 l 1,7,8
 82 333 82 333 119 349 c 128,-1,9
 156 365 156 365 185 365 c 128,-1,10
 214 365 214 365 283.5 343 c 128,-1,11
 353 321 353 321 374 321 c 0,12,13
 413 321 413 321 462 350 c 2,14,-1
 479 360 l 1,15,-1
 487 189 l 1,16,17
 470 169 470 169 435.5 152.5 c 128,-1,0
 401 136 401 136 372 136 c 128,-1,1
EndSplineSet
EndChar

StartChar: exclamdown
Encoding: 161 161 99
Width: 290
GlyphClass: 2
Flags: W
LayerCount: 2
Fore
SplineSet
259 505 m 1,0,-1
 259 307 l 1,1,-1
 31 307 l 1,2,-1
 31 505 l 1,3,-1
 259 505 l 1,0,-1
252 261 m 1,4,-1
 266 -165 l 1,5,-1
 24 -165 l 1,6,-1
 38 261 l 1,7,-1
 252 261 l 1,4,-1
EndSplineSet
Substitution2: "'case' Case-Sensitive Forms in Latin lookup 4 subtable" exclamdown.cap
EndChar

StartChar: cent
Encoding: 162 162 100
Width: 550
GlyphClass: 2
Flags: W
LayerCount: 2
Fore
SplineSet
248 -86 m 1,0,-1
 248 42 l 1,1,2
 133 45 133 45 87 93.5 c 128,-1,3
 41 142 41 142 41 255.5 c 128,-1,4
 41 369 41 369 90 416 c 128,-1,5
 139 463 139 463 248 466 c 1,6,-1
 248 591 l 1,7,-1
 308 591 l 1,8,-1
 308 465 l 1,9,10
 395 463 395 463 476 450 c 2,11,-1
 500 446 l 1,12,-1
 494 296 l 1,13,14
 392 300 392 300 311 300 c 0,15,16
 284 300 284 300 273.5 289 c 128,-1,17
 263 278 263 278 263 253.5 c 128,-1,18
 263 229 263 229 273.5 218.5 c 128,-1,19
 284 208 284 208 311 208 c 2,20,-1
 496 212 l 1,21,-1
 502 64 l 1,22,23
 419 47 419 47 308 43 c 1,24,-1
 308 -86 l 1,25,-1
 248 -86 l 1,0,-1
EndSplineSet
EndChar

StartChar: sterling
Encoding: 163 163 101
Width: 550
GlyphClass: 2
Flags: W
LayerCount: 2
Fore
SplineSet
95 183 m 1,0,-1
 95 326 l 1,1,-1
 33 326 l 1,2,-1
 33 386 l 1,3,-1
 95 386 l 1,4,-1
 95 427 l 2,5,6
 95 502 95 502 107 549.5 c 128,-1,7
 119 597 119 597 147.5 623.5 c 128,-1,8
 176 650 176 650 216.5 660 c 128,-1,9
 257 670 257 670 306 670 c 0,10,11
 396 670 396 670 470 654 c 1,12,-1
 497 649 l 1,13,-1
 491 483 l 1,14,15
 420 487 420 487 376.5 487 c 128,-1,16
 333 487 333 487 314.5 471.5 c 128,-1,17
 296 456 296 456 296 414 c 2,18,-1
 296 386 l 1,19,-1
 433 386 l 1,20,-1
 433 326 l 1,21,-1
 296 326 l 1,22,-1
 296 183 l 1,23,-1
 389 183 l 1,24,-1
 507 198 l 1,25,-1
 525 16 l 1,26,-1
 404 0 l 1,27,-1
 33 0 l 1,28,-1
 33 183 l 1,29,-1
 95 183 l 1,0,-1
EndSplineSet
EndChar

StartChar: currency
Encoding: 164 164 102
Width: 550
GlyphClass: 2
Flags: W
LayerCount: 2
Fore
SplineSet
138 438 m 1,0,1
 196 483 196 483 272.5 483 c 128,-1,2
 349 483 349 483 409 435 c 1,3,-1
 468 495 l 1,4,-1
 511 452 l 1,5,-1
 451 393 l 1,6,7
 496 334 496 334 496 259 c 128,-1,8
 496 184 496 184 451 125 c 1,9,-1
 511 66 l 1,10,-1
 468 23 l 1,11,-1
 409 82 l 1,12,13
 349 35 349 35 272.5 35 c 128,-1,14
 196 35 196 35 138 79 c 1,15,-1
 82 23 l 1,16,-1
 39 66 l 1,17,-1
 95 121 l 1,18,19
 48 181 48 181 48 258.5 c 128,-1,20
 48 336 48 336 95 396 c 1,21,-1
 39 452 l 1,22,-1
 82 495 l 1,23,-1
 138 438 l 1,0,1
271 168 m 128,-1,25
 310 168 310 168 336.5 194 c 128,-1,26
 363 220 363 220 363 259 c 128,-1,27
 363 298 363 298 336 323 c 1,28,29
 310 350 310 350 271 350 c 128,-1,30
 232 350 232 350 207 323 c 1,31,32
 181 298 181 298 181 259 c 128,-1,33
 181 220 181 220 206.5 194 c 128,-1,24
 232 168 232 168 271 168 c 128,-1,25
EndSplineSet
EndChar

StartChar: yen
Encoding: 165 165 103
Width: 581
GlyphClass: 2
Flags: W
LayerCount: 2
Fore
SplineSet
48 299 m 1,0,-1
 48 359 l 1,1,-1
 128 359 l 1,2,-1
 16 657 l 1,3,-1
 252 657 l 1,4,-1
 289 450 l 1,5,-1
 330 657 l 1,6,-1
 566 657 l 1,7,-1
 448 359 l 1,8,-1
 528 359 l 1,9,-1
 528 299 l 1,10,-1
 424 299 l 1,11,-1
 400 237 l 1,12,-1
 400 207 l 1,13,-1
 528 207 l 1,14,-1
 528 147 l 1,15,-1
 400 147 l 1,16,-1
 400 0 l 1,17,-1
 174 0 l 1,18,-1
 174 147 l 1,19,-1
 48 147 l 1,20,-1
 48 207 l 1,21,-1
 174 207 l 1,22,-1
 174 237 l 1,23,-1
 150 299 l 1,24,-1
 48 299 l 1,0,-1
EndSplineSet
EndChar

StartChar: brokenbar
Encoding: 166 166 104
Width: 284
GlyphClass: 2
Flags: W
LayerCount: 2
Fore
SplineSet
33 703 m 1,0,-1
 251 703 l 1,1,-1
 251 308 l 1,2,-1
 33 308 l 1,3,-1
 33 703 l 1,0,-1
33 170 m 1,4,-1
 251 170 l 1,5,-1
 251 -220 l 1,6,-1
 33 -220 l 1,7,-1
 33 170 l 1,4,-1
EndSplineSet
EndChar

StartChar: section
Encoding: 167 167 105
Width: 595
GlyphClass: 2
Flags: W
LayerCount: 2
Fore
SplineSet
546 469 m 1,0,1
 376 489 376 489 330.5 489 c 128,-1,2
 285 489 285 489 270.5 483.5 c 128,-1,3
 256 478 256 478 256 463.5 c 128,-1,4
 256 449 256 449 274 441 c 128,-1,5
 292 433 292 433 358 420 c 0,6,7
 483 395 483 395 528 363 c 128,-1,8
 573 331 573 331 573 247.5 c 128,-1,9
 573 164 573 164 528 121 c 1,10,11
 548 98 548 98 555.5 77 c 128,-1,12
 563 56 563 56 563 11 c 0,13,14
 563 -195 563 -195 316 -195 c 0,15,16
 256 -195 256 -195 186 -182.5 c 128,-1,17
 116 -170 116 -170 76 -157 c 2,18,-1
 37 -144 l 1,19,-1
 54 16 l 1,20,21
 62 13 62 13 156.5 -1 c 128,-1,22
 251 -15 251 -15 286 -15 c 0,23,24
 340 -15 340 -15 340 13 c 0,25,26
 340 26 340 26 318 33.5 c 128,-1,27
 296 41 296 41 199.5 60 c 128,-1,28
 103 79 103 79 62.5 113 c 128,-1,29
 22 147 22 147 22 217.5 c 128,-1,30
 22 288 22 288 65 340 c 1,31,32
 36 373 36 373 33 410 c 0,33,34
 32 423 32 423 32 449 c 0,35,36
 32 573 32 573 97.5 621.5 c 128,-1,37
 163 670 163 670 281 670 c 0,38,39
 329 670 329 670 397 660 c 128,-1,40
 465 650 465 650 508 640 c 2,41,-1
 552 629 l 1,42,-1
 546 469 l 1,0,1
253 280 m 1,43,44
 242 262 242 262 242 247 c 128,-1,45
 242 232 242 232 249.5 227 c 128,-1,46
 257 222 257 222 303 208 c 128,-1,47
 349 194 349 194 353 192 c 1,48,49
 362 211 362 211 362 233 c 128,-1,50
 362 255 362 255 301 267 c 0,51,52
 265 275 265 275 253 280 c 1,43,44
EndSplineSet
EndChar

StartChar: dieresis
Encoding: 168 168 106
Width: 418
GlyphClass: 2
Flags: W
LayerCount: 2
Fore
SplineSet
234 559 m 1,0,-1
 234 713 l 1,1,-1
 398 713 l 1,2,-1
 398 559 l 1,3,-1
 234 559 l 1,0,-1
24 559 m 1,4,-1
 24 713 l 1,5,-1
 188 713 l 1,6,-1
 188 559 l 1,7,-1
 24 559 l 1,4,-1
EndSplineSet
EndChar

StartChar: copyright
Encoding: 169 169 107
Width: 597
GlyphClass: 2
Flags: W
LayerCount: 2
Fore
SplineSet
101.5 232 m 128,-1,1
 23 314 23 314 23 435.5 c 128,-1,2
 23 557 23 557 101 637.5 c 128,-1,3
 179 718 179 718 300.5 718 c 128,-1,4
 422 718 422 718 498 636 c 128,-1,5
 574 554 574 554 574 432.5 c 128,-1,6
 574 311 574 311 498 230.5 c 128,-1,7
 422 150 422 150 301 150 c 128,-1,0
 180 150 180 150 101.5 232 c 128,-1,1
85 434 m 128,-1,9
 85 341 85 341 146 275.5 c 128,-1,10
 207 210 207 210 298.5 210 c 128,-1,11
 390 210 390 210 451 275 c 128,-1,12
 512 340 512 340 512 433 c 128,-1,13
 512 526 512 526 450.5 592 c 128,-1,14
 389 658 389 658 298 658 c 128,-1,15
 207 658 207 658 146 592.5 c 128,-1,8
 85 527 85 527 85 434 c 128,-1,9
208.5 305 m 128,-1,17
 179 341 179 341 179 435 c 128,-1,18
 179 529 179 529 209.5 563.5 c 128,-1,19
 240 598 240 598 311 598 c 0,20,21
 339 598 339 598 369 590 c 1,22,-1
 391 583 l 1,23,-1
 384 497 l 1,24,-1
 362 500 l 1,25,26
 323 503 323 503 317 503 c 0,27,28
 297 503 297 503 289.5 489.5 c 128,-1,29
 282 476 282 476 282 439 c 0,30,31
 282 364 282 364 317 364 c 0,32,33
 336 364 336 364 362 366 c 1,34,-1
 384 369 l 1,35,-1
 391 287 l 1,36,-1
 370 278 l 1,37,38
 343 269 343 269 307 269 c 0,39,16
 238 269 238 269 208.5 305 c 128,-1,17
EndSplineSet
EndChar

StartChar: ordfeminine
Encoding: 170 170 108
Width: 351
GlyphClass: 2
Flags: W
LayerCount: 2
Fore
SplineSet
274 379 m 0,0,1
 237 379 237 379 207 398 c 1,2,3
 171 379 171 379 126 379 c 0,4,5
 16 379 16 379 16 471 c 0,6,7
 16 520 16 520 47.5 536.5 c 128,-1,8
 79 553 79 553 141 555 c 2,9,-1
 188 557 l 1,10,-1
 188 562 l 2,11,12
 188 572 188 572 164 572 c 1,13,-1
 31 565 l 1,14,-1
 29 647 l 1,15,16
 100 666 100 666 174 666 c 128,-1,17
 248 666 248 666 283 644 c 128,-1,18
 318 622 318 622 318 571 c 2,19,-1
 318 468 l 1,20,21
 322 465 322 465 334 463 c 1,22,-1
 332 385 l 1,23,24
 288 379 288 379 274 379 c 0,0,1
147 474 m 0,25,26
 147 463 147 463 162.5 463 c 128,-1,27
 178 463 178 463 188 471 c 1,28,-1
 188 491 l 1,29,-1
 170 490 l 2,30,31
 147 489 147 489 147 474 c 0,25,26
EndSplineSet
EndChar

StartChar: guillemotleft
Encoding: 171 171 109
Width: 624
GlyphClass: 2
Flags: W
LayerCount: 2
Fore
SplineSet
335 422 m 1,0,-1
 221 253 l 1,1,-1
 335 84 l 1,2,-1
 173 10 l 1,3,-1
 14 240 l 1,4,-1
 14 261 l 1,5,-1
 175 496 l 1,6,-1
 335 422 l 1,0,-1
605 422 m 1,7,-1
 491 253 l 1,8,-1
 605 84 l 1,9,-1
 443 10 l 1,10,-1
 284 240 l 1,11,-1
 284 261 l 1,12,-1
 445 496 l 1,13,-1
 605 422 l 1,7,-1
EndSplineSet
EndChar

StartChar: logicalnot
Encoding: 172 172 110
Width: 550
GlyphClass: 2
Flags: W
LayerCount: 2
Fore
SplineSet
537 543 m 1,0,-1
 537 231 l 1,1,-1
 386 231 l 1,2,-1
 386 392 l 1,3,-1
 1 392 l 1,4,-1
 1 543 l 1,5,-1
 537 543 l 1,0,-1
EndSplineSet
EndChar

StartChar: registered
Encoding: 174 174 111
Width: 597
GlyphClass: 2
Flags: W
LayerCount: 2
Fore
SplineSet
101.5 231.5 m 128,-1,1
 23 313 23 313 23 435 c 128,-1,2
 23 557 23 557 101 637.5 c 128,-1,3
 179 718 179 718 300 718 c 128,-1,4
 421 718 421 718 497.5 635.5 c 128,-1,5
 574 553 574 553 574 432 c 128,-1,6
 574 311 574 311 498 230.5 c 128,-1,7
 422 150 422 150 301 150 c 128,-1,0
 180 150 180 150 101.5 231.5 c 128,-1,1
85 434 m 128,-1,9
 85 342 85 342 147 276 c 128,-1,10
 209 210 209 210 299.5 210 c 128,-1,11
 390 210 390 210 451 275 c 128,-1,12
 512 340 512 340 512 433 c 128,-1,13
 512 526 512 526 450.5 592 c 128,-1,14
 389 658 389 658 299 658 c 128,-1,15
 209 658 209 658 147 592 c 128,-1,8
 85 526 85 526 85 434 c 128,-1,9
274 276 m 1,16,-1
 178 276 l 1,17,-1
 178 591 l 1,18,-1
 314 591 l 2,19,20
 366 591 366 591 397 565.5 c 128,-1,21
 428 540 428 540 428 493.5 c 128,-1,22
 428 447 428 447 420 425.5 c 128,-1,23
 412 404 412 404 390 386 c 1,24,-1
 431 276 l 1,25,-1
 331 276 l 1,26,-1
 303 369 l 1,27,-1
 274 369 l 1,28,-1
 274 276 l 1,16,-1
273 519 m 1,29,-1
 273 440 l 1,30,-1
 301 440 l 2,31,32
 335 440 335 440 335 479.5 c 128,-1,33
 335 519 335 519 300 519 c 2,34,-1
 273 519 l 1,29,-1
EndSplineSet
EndChar

StartChar: macron
Encoding: 175 175 112
Width: 443
GlyphClass: 2
Flags: W
LayerCount: 2
Fore
SplineSet
60 563 m 1,0,-1
 60 707 l 1,1,-1
 387 707 l 1,2,-1
 387 563 l 1,3,-1
 60 563 l 1,0,-1
EndSplineSet
EndChar

StartChar: degree
Encoding: 176 176 113
Width: 550
GlyphClass: 2
Flags: W
LayerCount: 2
Fore
SplineSet
125 540 m 128,-1,1
 125 607 125 607 166.5 648.5 c 128,-1,2
 208 690 208 690 275 690 c 128,-1,3
 342 690 342 690 383.5 648.5 c 128,-1,4
 425 607 425 607 425 540 c 128,-1,5
 425 473 425 473 383.5 432 c 128,-1,6
 342 391 342 391 275 391 c 128,-1,7
 208 391 208 391 166.5 432 c 128,-1,0
 125 473 125 473 125 540 c 128,-1,1
249.5 567 m 128,-1,9
 240 557 240 557 240 540.5 c 128,-1,10
 240 524 240 524 249.5 514 c 128,-1,11
 259 504 259 504 275 504 c 128,-1,12
 291 504 291 504 301.5 514 c 128,-1,13
 312 524 312 524 312 540 c 128,-1,14
 312 556 312 556 302 566.5 c 128,-1,15
 292 577 292 577 275.5 577 c 128,-1,8
 259 577 259 577 249.5 567 c 128,-1,9
EndSplineSet
EndChar

StartChar: plusminus
Encoding: 177 177 114
Width: 550
GlyphClass: 2
Flags: W
LayerCount: 2
Fore
SplineSet
44 251 m 1,0,-1
 44 421 l 1,1,-1
 185 421 l 1,2,-1
 185 505 l 1,3,-1
 365 505 l 1,4,-1
 365 421 l 1,5,-1
 506 421 l 1,6,-1
 506 251 l 1,7,-1
 365 251 l 1,8,-1
 365 180 l 1,9,-1
 185 180 l 1,10,-1
 185 251 l 1,11,-1
 44 251 l 1,0,-1
44 170 m 1,12,-1
 506 170 l 1,13,-1
 506 0 l 1,14,-1
 44 0 l 1,15,-1
 44 170 l 1,12,-1
EndSplineSet
EndChar

StartChar: twosuperior
Encoding: 178 178 115
Width: 350
GlyphClass: 2
Flags: W
LayerCount: 2
Fore
SplineSet
301 273 m 1,0,-1
 43 273 l 1,1,-1
 43 385 l 1,2,-1
 98 435 l 2,3,4
 110 447 110 447 127.5 463 c 128,-1,5
 145 479 145 479 152.5 486 c 128,-1,6
 160 493 160 493 168 503 c 0,7,8
 182 520 182 520 182 537 c 0,9,10
 182 560 182 560 136 560 c 1,11,-1
 51 555 l 1,12,-1
 45 658 l 1,13,14
 111 674 111 674 176 674 c 0,15,16
 308 674 308 674 308 555 c 0,17,18
 308 528 308 528 304 518 c 1,19,-1
 299 501 l 2,20,21
 297 495 297 495 290.5 486 c 128,-1,22
 284 477 284 477 281 472.5 c 128,-1,23
 278 468 278 468 268 458 c 2,24,25
 268 458 268 458 252 442 c 0,26,27
 227 417 227 417 213 405 c 1,28,-1
 193 390 l 1,29,-1
 301 390 l 1,30,-1
 301 273 l 1,0,-1
EndSplineSet
Substitution2: "Single Substitution lookup 5 subtable" twoinferior
EndChar

StartChar: threesuperior
Encoding: 179 179 116
Width: 350
GlyphClass: 2
Flags: W
LayerCount: 2
Fore
SplineSet
148 422 m 1,0,-1
 66 422 l 1,1,-1
 66 524 l 1,2,-1
 143 524 l 2,3,4
 174 524 174 524 174 542 c 128,-1,5
 174 560 174 560 134 560 c 1,6,-1
 39 555 l 1,7,-1
 36 654 l 1,8,9
 111 670 111 670 151 670 c 0,10,11
 237 670 237 670 275.5 646 c 128,-1,12
 314 622 314 622 314 560 c 0,13,14
 314 529 314 529 306 512 c 128,-1,15
 298 495 298 495 278 481 c 1,16,17
 300 464 300 464 309.5 447.5 c 128,-1,18
 319 431 319 431 319 401 c 0,19,20
 319 329 319 329 281.5 301 c 128,-1,21
 244 273 244 273 165 273 c 0,22,23
 117 273 117 273 54 285 c 2,24,-1
 33 289 l 1,25,-1
 36 390 l 1,26,27
 103 384 103 384 128 384 c 128,-1,28
 153 384 153 384 160 385 c 0,29,30
 179 387 179 387 179 403.5 c 128,-1,31
 179 420 179 420 148 422 c 1,0,-1
EndSplineSet
Substitution2: "Single Substitution lookup 5 subtable" threeinferior
EndChar

StartChar: acute
Encoding: 180 180 117
Width: 833
GlyphClass: 2
Flags: W
LayerCount: 2
Fore
SplineSet
219 723 m 1,0,-1
 456 723 l 1,1,-1
 347 557 l 1,2,-1
 176 557 l 1,3,-1
 219 723 l 1,0,-1
EndSplineSet
EndChar

StartChar: mu
Encoding: 181 181 118
Width: 550
GlyphClass: 2
Flags: W
LayerCount: 2
Fore
SplineSet
315 505 m 1,0,-1
 539 505 l 1,1,-1
 539 0 l 1,2,-1
 317 0 l 1,3,-1
 316 22 l 1,4,5
 287 3 287 3 245 0 c 1,6,-1
 245 -248 l 1,7,-1
 21 -248 l 1,8,-1
 21 505 l 1,9,-1
 245 505 l 1,10,-1
 245 259 l 2,11,12
 245 213 245 213 250.5 196.5 c 128,-1,13
 256 180 256 180 271 180 c 1,14,-1
 315 186 l 1,15,-1
 315 505 l 1,0,-1
EndSplineSet
EndChar

StartChar: paragraph
Encoding: 182 182 119
Width: 578
GlyphClass: 2
Flags: W
LayerCount: 2
Fore
SplineSet
557 511 m 1,0,-1
 487 511 l 1,1,-1
 487 0 l 1,2,-1
 259 0 l 1,3,-1
 259 210 l 1,4,-1
 252 210 l 2,5,6
 153 210 153 210 84.5 281 c 128,-1,7
 16 352 16 352 16 454 c 128,-1,8
 16 556 16 556 85.5 628 c 128,-1,9
 155 700 155 700 254 700 c 2,10,-1
 557 700 l 1,11,-1
 557 511 l 1,0,-1
EndSplineSet
EndChar

StartChar: periodcentered
Encoding: 183 183 120
Width: 265
GlyphClass: 2
Flags: W
LayerCount: 2
Fore
SplineSet
30 149 m 1,0,-1
 30 349 l 1,1,-1
 235 349 l 1,2,-1
 235 149 l 1,3,-1
 30 149 l 1,0,-1
EndSplineSet
Substitution2: "'case' Case-Sensitive Forms in Latin lookup 4 subtable" periodcentered.cap
EndChar

StartChar: cedilla
Encoding: 184 184 121
Width: 833
GlyphClass: 2
Flags: W
LayerCount: 2
Fore
SplineSet
584.5 -51.5 m 128,-1,1
 614 -69 614 -69 614 -124 c 128,-1,2
 614 -179 614 -179 582.5 -205 c 128,-1,3
 551 -231 551 -231 487 -231 c 0,4,5
 422 -231 422 -231 377 -223 c 2,6,-1
 360 -220 l 1,7,-1
 364 -142 l 1,8,9
 395 -143 395 -143 412 -143 c 0,10,11
 450 -143 450 -143 450 -121 c 0,12,13
 450 -109 450 -109 442 -105 c 128,-1,14
 434 -101 434 -101 412 -101 c 2,15,-1
 403 -101 l 1,16,-1
 403 11 l 1,17,-1
 476 11 l 1,18,-1
 476 -33 l 1,19,0
 555 -34 555 -34 584.5 -51.5 c 128,-1,1
EndSplineSet
EndChar

StartChar: onesuperior
Encoding: 185 185 122
Width: 350
GlyphClass: 2
Flags: W
LayerCount: 2
Fore
SplineSet
297 670 m 1,0,-1
 297 273 l 1,1,-1
 140 273 l 1,2,-1
 140 494 l 1,3,-1
 57 460 l 1,4,-1
 21 588 l 1,5,-1
 162 670 l 1,6,-1
 297 670 l 1,0,-1
EndSplineSet
Substitution2: "Single Substitution lookup 5 subtable" oneinferior
EndChar

StartChar: ordmasculine
Encoding: 186 186 123
Width: 353
GlyphClass: 2
Flags: W
LayerCount: 2
Fore
SplineSet
177 666 m 128,-1,1
 263 666 263 666 300.5 633 c 128,-1,2
 338 600 338 600 338 522.5 c 128,-1,3
 338 445 338 445 300.5 412 c 128,-1,4
 263 379 263 379 177 379 c 128,-1,5
 91 379 91 379 53 412 c 128,-1,6
 15 445 15 445 15 522.5 c 128,-1,7
 15 600 15 600 53 633 c 128,-1,0
 91 666 91 666 177 666 c 128,-1,1
177 479 m 0,8,9
 193 479 193 479 200 489 c 128,-1,10
 207 499 207 499 207 523 c 128,-1,11
 207 547 207 547 200 556.5 c 128,-1,12
 193 566 193 566 176.5 566 c 128,-1,13
 160 566 160 566 153 556.5 c 128,-1,14
 146 547 146 547 146 523 c 0,15,16
 146 479 146 479 177 479 c 0,8,9
EndSplineSet
EndChar

StartChar: guillemotright
Encoding: 187 187 124
Width: 624
GlyphClass: 2
Flags: W
LayerCount: 2
Fore
SplineSet
19 84 m 1,0,-1
 133 253 l 1,1,-1
 19 422 l 1,2,-1
 181 496 l 1,3,-1
 340 266 l 1,4,-1
 340 245 l 1,5,-1
 179 10 l 1,6,-1
 19 84 l 1,0,-1
289 84 m 1,7,-1
 403 253 l 1,8,-1
 289 422 l 1,9,-1
 451 496 l 1,10,-1
 610 266 l 1,11,-1
 610 245 l 1,12,-1
 449 10 l 1,13,-1
 289 84 l 1,7,-1
EndSplineSet
EndChar

StartChar: onequarter
Encoding: 188 188 125
Width: 968
GlyphClass: 2
Flags: W
LayerCount: 2
Fore
SplineSet
297 670 m 1,0,-1
 297 273 l 1,1,-1
 140 273 l 1,2,-1
 140 494 l 1,3,-1
 57 460 l 1,4,-1
 21 588 l 1,5,-1
 162 670 l 1,6,-1
 297 670 l 1,0,-1
258 5 m 1,7,-1
 561 755 l 1,8,-1
 708 691 l 1,9,-1
 405 -59 l 1,10,-1
 258 5 l 1,7,-1
760 0 m 1,11,-1
 760 48 l 1,12,-1
 597 48 l 1,13,-1
 597 146 l 1,14,-1
 651 397 l 1,15,-1
 809 397 l 1,16,-1
 731 161 l 1,17,-1
 760 161 l 1,18,-1
 760 216 l 1,19,-1
 907 234 l 1,20,-1
 907 161 l 1,21,-1
 922 161 l 1,22,-1
 922 48 l 1,23,-1
 907 48 l 1,24,-1
 907 0 l 1,25,-1
 760 0 l 1,11,-1
EndSplineSet
EndChar

StartChar: onehalf
Encoding: 189 189 126
Width: 959
GlyphClass: 2
Flags: W
LayerCount: 2
Fore
SplineSet
258 5 m 1,0,-1
 561 755 l 1,1,-1
 708 691 l 1,2,-1
 405 -59 l 1,3,-1
 258 5 l 1,0,-1
297 670 m 1,4,-1
 297 273 l 1,5,-1
 140 273 l 1,6,-1
 140 494 l 1,7,-1
 57 460 l 1,8,-1
 21 588 l 1,9,-1
 162 670 l 1,10,-1
 297 670 l 1,4,-1
903 0 m 1,11,-1
 645 0 l 1,12,-1
 645 112 l 1,13,-1
 700 162 l 2,14,15
 712 174 712 174 729.5 190 c 128,-1,16
 747 206 747 206 754.5 213 c 128,-1,17
 762 220 762 220 770 230 c 0,18,19
 784 248 784 248 784 264 c 0,20,21
 784 287 784 287 738 287 c 1,22,-1
 653 282 l 1,23,-1
 647 385 l 1,24,25
 713 401 713 401 778 401 c 0,26,27
 910 401 910 401 910 282 c 0,28,29
 910 255 910 255 906 244 c 2,30,-1
 901 228 l 2,31,32
 899 222 899 222 892.5 213 c 128,-1,33
 886 204 886 204 883 199.5 c 128,-1,34
 880 195 880 195 870 184 c 1,35,36
 870 184 870 184 854 170 c 1,37,38
 829 144 829 144 815 132 c 1,39,-1
 795 117 l 1,40,-1
 903 117 l 1,41,-1
 903 0 l 1,11,-1
EndSplineSet
EndChar

StartChar: threequarters
Encoding: 190 190 127
Width: 1650
GlyphClass: 2
Flags: W
LayerCount: 2
Fore
SplineSet
760 0 m 1,0,-1
 760 48 l 1,1,-1
 597 48 l 1,2,-1
 597 146 l 1,3,-1
 651 397 l 1,4,-1
 809 397 l 1,5,-1
 731 161 l 1,6,-1
 760 161 l 1,7,-1
 760 216 l 1,8,-1
 907 234 l 1,9,-1
 907 161 l 1,10,-1
 922 161 l 1,11,-1
 922 48 l 1,12,-1
 907 48 l 1,13,-1
 907 0 l 1,14,-1
 760 0 l 1,0,-1
258 5 m 1,15,-1
 561 755 l 1,16,-1
 708 691 l 1,17,-1
 405 -59 l 1,18,-1
 258 5 l 1,15,-1
158 422 m 1,19,-1
 76 422 l 1,20,-1
 76 524 l 1,21,-1
 153 524 l 2,22,23
 184 524 184 524 184 542 c 128,-1,24
 184 560 184 560 144 560 c 1,25,-1
 49 555 l 1,26,-1
 46 654 l 1,27,28
 121 670 121 670 161 670 c 0,29,30
 247 670 247 670 285.5 646 c 128,-1,31
 324 622 324 622 324 560 c 0,32,33
 324 529 324 529 316 512 c 128,-1,34
 308 495 308 495 288 481 c 1,35,36
 310 464 310 464 319.5 447.5 c 128,-1,37
 329 431 329 431 329 401 c 0,38,39
 329 329 329 329 291.5 301 c 128,-1,40
 254 273 254 273 175 273 c 0,41,42
 127 273 127 273 64 285 c 2,43,-1
 43 289 l 1,44,-1
 46 390 l 1,45,46
 113 384 113 384 138 384 c 128,-1,47
 163 384 163 384 170 385 c 0,48,49
 189 387 189 387 189 403.5 c 128,-1,50
 189 420 189 420 158 422 c 1,19,-1
EndSplineSet
EndChar

StartChar: questiondown
Encoding: 191 191 128
Width: 471
GlyphClass: 2
Flags: W
LayerCount: 2
Fore
SplineSet
16 9 m 0,0,1
 16 83 16 83 34.5 117.5 c 128,-1,2
 53 152 53 152 104 188 c 0,3,4
 181 243 181 243 183 269 c 2,5,-1
 184 288 l 1,6,-1
 359 288 l 1,7,8
 382 257 382 257 382 215 c 128,-1,9
 382 173 382 173 365.5 149.5 c 128,-1,10
 349 126 349 126 304.5 93 c 128,-1,11
 260 60 260 60 251 49 c 128,-1,12
 242 38 242 38 242 18.5 c 128,-1,13
 242 -1 242 -1 256 -9.5 c 128,-1,14
 270 -18 270 -18 302 -18 c 0,15,16
 364 -18 364 -18 427 -8 c 1,17,-1
 448 -4 l 1,18,-1
 455 -161 l 1,19,20
 342 -198 342 -198 231.5 -198 c 128,-1,21
 121 -198 121 -198 68.5 -151 c 128,-1,22
 16 -104 16 -104 16 9 c 0,0,1
384 505 m 1,23,-1
 384 325 l 1,24,-1
 156 325 l 1,25,-1
 156 505 l 1,26,-1
 384 505 l 1,23,-1
EndSplineSet
Substitution2: "'case' Case-Sensitive Forms in Latin lookup 4 subtable" questiondown.cap
EndChar

StartChar: Agrave
Encoding: 192 192 129
Width: 639
GlyphClass: 2
Flags: W
LayerCount: 2
Fore
SplineSet
147 849 m 1,0,-1
 389 849 l 1,1,-1
 423 713 l 1,2,-1
 251 713 l 1,3,-1
 147 849 l 1,0,-1
-5 0 m 1,4,-1
 143 670 l 1,5,-1
 494 670 l 1,6,-1
 645 0 l 1,7,-1
 411 0 l 1,8,-1
 392 77 l 1,9,-1
 239 77 l 1,10,-1
 223 0 l 1,11,-1
 -5 0 l 1,4,-1
307 488 m 1,12,-1
 269 254 l 1,13,-1
 368 254 l 1,14,-1
 332 488 l 1,15,-1
 307 488 l 1,12,-1
EndSplineSet
Position2: "'cpsp' Capital Spacing in Latin lookup 0 subtable" dx=5 dy=0 dh=10 dv=0
EndChar

StartChar: Aacute
Encoding: 193 193 130
Width: 639
GlyphClass: 2
Flags: W
LayerCount: 2
Fore
SplineSet
-5 0 m 1,0,-1
 143 670 l 1,1,-1
 494 670 l 1,2,-1
 645 0 l 1,3,-1
 411 0 l 1,4,-1
 392 77 l 1,5,-1
 239 77 l 1,6,-1
 223 0 l 1,7,-1
 -5 0 l 1,0,-1
307 488 m 1,8,-1
 269 254 l 1,9,-1
 368 254 l 1,10,-1
 332 488 l 1,11,-1
 307 488 l 1,8,-1
227 849 m 1,12,-1
 469 849 l 1,13,-1
 360 713 l 1,14,-1
 184 713 l 1,15,-1
 227 849 l 1,12,-1
EndSplineSet
Position2: "'cpsp' Capital Spacing in Latin lookup 0 subtable" dx=5 dy=0 dh=10 dv=0
EndChar

StartChar: Acircumflex
Encoding: 194 194 131
Width: 639
GlyphClass: 2
Flags: W
LayerCount: 2
Fore
SplineSet
-5 0 m 1,0,-1
 143 670 l 1,1,-1
 494 670 l 1,2,-1
 645 0 l 1,3,-1
 411 0 l 1,4,-1
 392 77 l 1,5,-1
 239 77 l 1,6,-1
 223 0 l 1,7,-1
 -5 0 l 1,0,-1
307 488 m 1,8,-1
 269 254 l 1,9,-1
 368 254 l 1,10,-1
 332 488 l 1,11,-1
 307 488 l 1,8,-1
138 713 m 1,12,-1
 239 849 l 1,13,-1
 391 849 l 1,14,-1
 503 713 l 1,15,-1
 334 713 l 1,16,-1
 319 775 l 1,17,-1
 307 713 l 1,18,-1
 138 713 l 1,12,-1
EndSplineSet
Position2: "'cpsp' Capital Spacing in Latin lookup 0 subtable" dx=5 dy=0 dh=10 dv=0
EndChar

StartChar: Atilde
Encoding: 195 195 132
Width: 639
GlyphClass: 2
Flags: W
LayerCount: 2
Fore
SplineSet
-5 0 m 1,0,-1
 143 670 l 1,1,-1
 494 670 l 1,2,-1
 645 0 l 1,3,-1
 411 0 l 1,4,-1
 392 77 l 1,5,-1
 239 77 l 1,6,-1
 223 0 l 1,7,-1
 -5 0 l 1,0,-1
307 488 m 1,8,-1
 269 254 l 1,9,-1
 368 254 l 1,10,-1
 332 488 l 1,11,-1
 307 488 l 1,8,-1
447 728 m 128,-1,13
 419 712 419 712 393 712 c 128,-1,14
 367 712 367 712 313.5 729 c 128,-1,15
 260 746 260 746 247 746 c 0,16,17
 220 746 220 746 180 728 c 1,18,-1
 166 721 l 1,19,-1
 137 827 l 1,20,21
 154 847 154 847 187 866.5 c 128,-1,22
 220 886 220 886 249.5 886 c 128,-1,23
 279 886 279 886 330 870 c 128,-1,24
 381 854 381 854 392 854 c 0,25,26
 412 854 412 854 458 872 c 1,27,-1
 473 877 l 1,28,-1
 502 770 l 1,29,30
 496 764 496 764 485.5 754 c 128,-1,12
 475 744 475 744 447 728 c 128,-1,13
EndSplineSet
Position2: "'cpsp' Capital Spacing in Latin lookup 0 subtable" dx=5 dy=0 dh=10 dv=0
EndChar

StartChar: Adieresis
Encoding: 196 196 133
Width: 639
GlyphClass: 2
Flags: W
LayerCount: 2
Fore
SplineSet
-5 0 m 1,0,-1
 143 670 l 1,1,-1
 494 670 l 1,2,-1
 645 0 l 1,3,-1
 411 0 l 1,4,-1
 392 77 l 1,5,-1
 239 77 l 1,6,-1
 223 0 l 1,7,-1
 -5 0 l 1,0,-1
307 488 m 1,8,-1
 269 254 l 1,9,-1
 368 254 l 1,10,-1
 332 488 l 1,11,-1
 307 488 l 1,8,-1
343 713 m 1,12,-1
 343 857 l 1,13,-1
 504 857 l 1,14,-1
 504 713 l 1,15,-1
 343 713 l 1,12,-1
136 713 m 1,16,-1
 136 857 l 1,17,-1
 297 857 l 1,18,-1
 297 713 l 1,19,-1
 136 713 l 1,16,-1
EndSplineSet
Position2: "'cpsp' Capital Spacing in Latin lookup 0 subtable" dx=5 dy=0 dh=10 dv=0
EndChar

StartChar: Aring
Encoding: 197 197 134
Width: 639
GlyphClass: 2
Flags: W
LayerCount: 2
Fore
SplineSet
183 722 m 0,0,1
 183 818 183 818 320 818 c 0,2,3
 382 818 382 818 419.5 794.5 c 128,-1,4
 457 771 457 771 457 722 c 0,5,6
 457 692 457 692 441 670 c 1,7,-1
 494 670 l 1,8,-1
 645 0 l 1,9,-1
 411 0 l 1,10,-1
 392 77 l 1,11,-1
 239 77 l 1,12,-1
 223 0 l 1,13,-1
 -5 0 l 1,14,-1
 143 670 l 1,15,-1
 198 670 l 1,16,17
 183 689 183 689 183 722 c 0,0,1
307 488 m 1,18,-1
 269 254 l 1,19,-1
 368 254 l 1,20,-1
 332 488 l 1,21,-1
 307 488 l 1,18,-1
290 721.5 m 128,-1,23
 290 700 290 700 320.5 700 c 128,-1,24
 351 700 351 700 351 721.5 c 128,-1,25
 351 743 351 743 320.5 743 c 128,-1,22
 290 743 290 743 290 721.5 c 128,-1,23
EndSplineSet
Position2: "'cpsp' Capital Spacing in Latin lookup 0 subtable" dx=5 dy=0 dh=10 dv=0
EndChar

StartChar: AE
Encoding: 198 198 135
Width: 882
GlyphClass: 2
Flags: W
LayerCount: 2
Fore
SplineSet
366 0 m 1,0,-1
 366 77 l 1,1,-1
 239 77 l 1,2,-1
 223 0 l 1,3,-1
 -5 0 l 1,4,-1
 143 670 l 1,5,-1
 865 670 l 1,6,-1
 865 485 l 1,7,-1
 592 485 l 1,8,-1
 592 425 l 1,9,-1
 805 425 l 1,10,-1
 805 248 l 1,11,-1
 592 248 l 1,12,-1
 592 185 l 1,13,-1
 865 185 l 1,14,-1
 865 0 l 1,15,-1
 366 0 l 1,0,-1
366 256 m 1,16,-1
 366 485 l 1,17,-1
 307 485 l 1,18,-1
 270 256 l 1,19,-1
 366 256 l 1,16,-1
EndSplineSet
Position2: "'cpsp' Capital Spacing in Latin lookup 0 subtable" dx=5 dy=0 dh=10 dv=0
EndChar

StartChar: Ccedilla
Encoding: 199 199 136
Width: 533
GlyphClass: 2
Flags: W
LayerCount: 2
Fore
SplineSet
438.5 -40.5 m 128,-1,1
 468 -58 468 -58 468 -113 c 128,-1,2
 468 -168 468 -168 436.5 -194 c 128,-1,3
 405 -220 405 -220 341 -220 c 0,4,5
 289 -220 289 -220 231 -212 c 1,6,-1
 214 -209 l 1,7,-1
 218 -131 l 1,8,9
 249 -132 249 -132 266 -132 c 0,10,11
 304 -132 304 -132 304 -110 c 0,12,13
 304 -98 304 -98 296 -94 c 128,-1,14
 288 -90 288 -90 266 -90 c 2,15,-1
 257 -90 l 1,16,-1
 257 -11 l 1,17,18
 120 -3 120 -3 69 72 c 128,-1,19
 18 147 18 147 18 341.5 c 128,-1,20
 18 536 18 536 79.5 609.5 c 128,-1,21
 141 683 141 683 314 683 c 0,22,23
 386 683 386 683 484 663 c 2,24,-1
 519 656 l 1,25,-1
 513 477 l 1,26,27
 431 487 431 487 361.5 487 c 128,-1,28
 292 487 292 487 272 460.5 c 128,-1,29
 252 434 252 434 252 351 c 128,-1,30
 252 268 252 268 261.5 236 c 128,-1,31
 271 204 271 204 292 193.5 c 128,-1,32
 313 183 313 183 360 183 c 1,33,-1
 516 189 l 1,34,-1
 519 13 l 1,35,36
 429 -9 429 -9 330 -12 c 1,37,-1
 330 -22 l 1,38,0
 409 -23 409 -23 438.5 -40.5 c 128,-1,1
EndSplineSet
Position2: "'cpsp' Capital Spacing in Latin lookup 0 subtable" dx=5 dy=0 dh=10 dv=0
EndChar

StartChar: Egrave
Encoding: 200 200 137
Width: 549
GlyphClass: 2
Flags: W
LayerCount: 2
Fore
SplineSet
30 0 m 1,0,-1
 30 670 l 1,1,-1
 532 670 l 1,2,-1
 532 485 l 1,3,-1
 262 485 l 1,4,-1
 262 428 l 1,5,-1
 472 428 l 1,6,-1
 472 245 l 1,7,-1
 262 245 l 1,8,-1
 262 185 l 1,9,-1
 532 185 l 1,10,-1
 532 0 l 1,11,-1
 30 0 l 1,0,-1
113 849 m 1,12,-1
 355 849 l 1,13,-1
 389 713 l 1,14,-1
 217 713 l 1,15,-1
 113 849 l 1,12,-1
EndSplineSet
Position2: "'cpsp' Capital Spacing in Latin lookup 0 subtable" dx=5 dy=0 dh=10 dv=0
EndChar

StartChar: Eacute
Encoding: 201 201 138
Width: 549
GlyphClass: 2
Flags: W
LayerCount: 2
Fore
SplineSet
30 0 m 1,0,-1
 30 670 l 1,1,-1
 532 670 l 1,2,-1
 532 485 l 1,3,-1
 262 485 l 1,4,-1
 262 428 l 1,5,-1
 472 428 l 1,6,-1
 472 245 l 1,7,-1
 262 245 l 1,8,-1
 262 185 l 1,9,-1
 532 185 l 1,10,-1
 532 0 l 1,11,-1
 30 0 l 1,0,-1
188 849 m 1,12,-1
 430 849 l 1,13,-1
 321 713 l 1,14,-1
 145 713 l 1,15,-1
 188 849 l 1,12,-1
EndSplineSet
Position2: "'cpsp' Capital Spacing in Latin lookup 0 subtable" dx=5 dy=0 dh=10 dv=0
EndChar

StartChar: Ecircumflex
Encoding: 202 202 139
Width: 549
GlyphClass: 2
Flags: W
LayerCount: 2
Fore
SplineSet
30 0 m 1,0,-1
 30 670 l 1,1,-1
 532 670 l 1,2,-1
 532 485 l 1,3,-1
 262 485 l 1,4,-1
 262 428 l 1,5,-1
 472 428 l 1,6,-1
 472 245 l 1,7,-1
 262 245 l 1,8,-1
 262 185 l 1,9,-1
 532 185 l 1,10,-1
 532 0 l 1,11,-1
 30 0 l 1,0,-1
94 713 m 1,12,-1
 195 849 l 1,13,-1
 347 849 l 1,14,-1
 459 713 l 1,15,-1
 290 713 l 1,16,-1
 275 775 l 1,17,-1
 263 713 l 1,18,-1
 94 713 l 1,12,-1
EndSplineSet
Position2: "'cpsp' Capital Spacing in Latin lookup 0 subtable" dx=5 dy=0 dh=10 dv=0
EndChar

StartChar: Edieresis
Encoding: 203 203 140
Width: 549
GlyphClass: 2
Flags: W
LayerCount: 2
Fore
SplineSet
30 0 m 1,0,-1
 30 670 l 1,1,-1
 532 670 l 1,2,-1
 532 485 l 1,3,-1
 262 485 l 1,4,-1
 262 428 l 1,5,-1
 472 428 l 1,6,-1
 472 245 l 1,7,-1
 262 245 l 1,8,-1
 262 185 l 1,9,-1
 532 185 l 1,10,-1
 532 0 l 1,11,-1
 30 0 l 1,0,-1
304 713 m 1,12,-1
 304 857 l 1,13,-1
 465 857 l 1,14,-1
 465 713 l 1,15,-1
 304 713 l 1,12,-1
97 713 m 1,16,-1
 97 857 l 1,17,-1
 258 857 l 1,18,-1
 258 713 l 1,19,-1
 97 713 l 1,16,-1
EndSplineSet
Position2: "'cpsp' Capital Spacing in Latin lookup 0 subtable" dx=5 dy=0 dh=10 dv=0
EndChar

StartChar: Igrave
Encoding: 204 204 141
Width: 286
GlyphClass: 2
Flags: W
LayerCount: 2
Fore
SplineSet
30 0 m 1,0,-1
 30 670 l 1,1,-1
 256 670 l 1,2,-1
 256 0 l 1,3,-1
 30 0 l 1,0,-1
-30 849 m 1,4,-1
 212 849 l 1,5,-1
 246 713 l 1,6,-1
 74 713 l 1,7,-1
 -30 849 l 1,4,-1
EndSplineSet
Position2: "'cpsp' Capital Spacing in Latin lookup 0 subtable" dx=5 dy=0 dh=10 dv=0
EndChar

StartChar: Iacute
Encoding: 205 205 142
Width: 292
GlyphClass: 2
Flags: W
LayerCount: 2
Fore
SplineSet
30 0 m 1,0,-1
 30 670 l 1,1,-1
 262 670 l 1,2,-1
 262 0 l 1,3,-1
 30 0 l 1,0,-1
83 849 m 1,4,-1
 325 849 l 1,5,-1
 216 713 l 1,6,-1
 40 713 l 1,7,-1
 83 849 l 1,4,-1
EndSplineSet
Position2: "'cpsp' Capital Spacing in Latin lookup 0 subtable" dx=5 dy=0 dh=10 dv=0
EndChar

StartChar: Icircumflex
Encoding: 206 206 143
Width: 286
GlyphClass: 2
Flags: W
LayerCount: 2
Fore
SplineSet
30 0 m 1,0,-1
 30 670 l 1,1,-1
 256 670 l 1,2,-1
 256 0 l 1,3,-1
 30 0 l 1,0,-1
-39 713 m 1,4,-1
 62 849 l 1,5,-1
 214 849 l 1,6,-1
 326 713 l 1,7,-1
 157 713 l 1,8,-1
 142 775 l 1,9,-1
 130 713 l 1,10,-1
 -39 713 l 1,4,-1
EndSplineSet
Position2: "'cpsp' Capital Spacing in Latin lookup 0 subtable" dx=5 dy=0 dh=10 dv=0
EndChar

StartChar: Idieresis
Encoding: 207 207 144
Width: 292
GlyphClass: 2
Flags: W
LayerCount: 2
Fore
SplineSet
30 0 m 1,0,-1
 30 670 l 1,1,-1
 262 670 l 1,2,-1
 262 0 l 1,3,-1
 30 0 l 1,0,-1
169 713 m 1,4,-1
 169 857 l 1,5,-1
 330 857 l 1,6,-1
 330 713 l 1,7,-1
 169 713 l 1,4,-1
-38 713 m 1,8,-1
 -38 857 l 1,9,-1
 123 857 l 1,10,-1
 123 713 l 1,11,-1
 -38 713 l 1,8,-1
EndSplineSet
Position2: "'cpsp' Capital Spacing in Latin lookup 0 subtable" dx=5 dy=0 dh=10 dv=0
EndChar

StartChar: Eth
Encoding: 208 208 145
Width: 661
GlyphClass: 2
Flags: W
LayerCount: 2
Fore
SplineSet
-1 270 m 1,0,-1
 -1 407 l 1,1,-1
 37 407 l 1,2,-1
 37 670 l 1,3,-1
 320 670 l 2,4,5
 493 670 493 670 569 592 c 128,-1,6
 645 514 645 514 645 342.5 c 128,-1,7
 645 171 645 171 572 85.5 c 128,-1,8
 499 0 499 0 330 0 c 2,9,-1
 37 0 l 1,10,-1
 37 270 l 1,11,-1
 -1 270 l 1,0,-1
392.5 451 m 128,-1,13
 374 481 374 481 310 481 c 2,14,-1
 269 481 l 1,15,-1
 269 407 l 1,16,-1
 324 407 l 1,17,-1
 324 270 l 1,18,-1
 269 270 l 1,19,-1
 269 189 l 1,20,-1
 310 189 l 2,21,22
 362 189 362 189 386 215 c 0,23,24
 411 241 411 241 411 331 c 128,-1,12
 411 421 411 421 392.5 451 c 128,-1,13
EndSplineSet
Position2: "'cpsp' Capital Spacing in Latin lookup 0 subtable" dx=5 dy=0 dh=10 dv=0
EndChar

StartChar: Ntilde
Encoding: 209 209 146
Width: 688
GlyphClass: 2
Flags: W
LayerCount: 2
Fore
SplineSet
30 0 m 1,0,-1
 30 670 l 1,1,-1
 258 670 l 1,2,-1
 412 416 l 1,3,-1
 426 416 l 1,4,-1
 426 670 l 1,5,-1
 658 670 l 1,6,-1
 658 0 l 1,7,-1
 429 0 l 1,8,-1
 277 273 l 1,9,-1
 262 273 l 1,10,-1
 262 0 l 1,11,-1
 30 0 l 1,0,-1
471 728 m 128,-1,13
 443 712 443 712 417 712 c 128,-1,14
 391 712 391 712 337.5 729 c 128,-1,15
 284 746 284 746 271 746 c 0,16,17
 244 746 244 746 204 728 c 1,18,-1
 190 721 l 1,19,-1
 161 827 l 1,20,21
 178 847 178 847 211 866.5 c 128,-1,22
 244 886 244 886 273.5 886 c 128,-1,23
 303 886 303 886 354 870 c 128,-1,24
 405 854 405 854 416 854 c 0,25,26
 436 854 436 854 482 872 c 1,27,-1
 497 877 l 1,28,-1
 526 770 l 1,29,30
 520 764 520 764 509.5 754 c 128,-1,12
 499 744 499 744 471 728 c 128,-1,13
EndSplineSet
Position2: "'cpsp' Capital Spacing in Latin lookup 0 subtable" dx=5 dy=0 dh=10 dv=0
EndChar

StartChar: Ograve
Encoding: 210 210 147
Width: 670
GlyphClass: 2
Flags: W
LayerCount: 2
Fore
SplineSet
266.5 212.5 m 128,-1,1
 283 175 283 175 335.5 175 c 128,-1,2
 388 175 388 175 404 212 c 128,-1,3
 420 249 420 249 420 335.5 c 128,-1,4
 420 422 420 422 404.5 458.5 c 128,-1,5
 389 495 389 495 336 495 c 128,-1,6
 283 495 283 495 266.5 457.5 c 128,-1,7
 250 420 250 420 250 335 c 128,-1,0
 250 250 250 250 266.5 212.5 c 128,-1,1
578 69.5 m 128,-1,9
 502 -13 502 -13 335.5 -13 c 128,-1,10
 169 -13 169 -13 92.5 70 c 128,-1,11
 16 153 16 153 16 335.5 c 128,-1,12
 16 518 16 518 92 600.5 c 128,-1,13
 168 683 168 683 335 683 c 128,-1,14
 502 683 502 683 578 600.5 c 128,-1,15
 654 518 654 518 654 335 c 128,-1,8
 654 152 654 152 578 69.5 c 128,-1,9
157 849 m 1,16,-1
 399 849 l 1,17,-1
 433 713 l 1,18,-1
 261 713 l 1,19,-1
 157 849 l 1,16,-1
EndSplineSet
Position2: "'cpsp' Capital Spacing in Latin lookup 0 subtable" dx=5 dy=0 dh=10 dv=0
EndChar

StartChar: Oacute
Encoding: 211 211 148
Width: 670
GlyphClass: 2
Flags: W
LayerCount: 2
Fore
SplineSet
266.5 212.5 m 128,-1,1
 283 175 283 175 335.5 175 c 128,-1,2
 388 175 388 175 404 212 c 128,-1,3
 420 249 420 249 420 335.5 c 128,-1,4
 420 422 420 422 404.5 458.5 c 128,-1,5
 389 495 389 495 336 495 c 128,-1,6
 283 495 283 495 266.5 457.5 c 128,-1,7
 250 420 250 420 250 335 c 128,-1,0
 250 250 250 250 266.5 212.5 c 128,-1,1
578 69.5 m 128,-1,9
 502 -13 502 -13 335.5 -13 c 128,-1,10
 169 -13 169 -13 92.5 70 c 128,-1,11
 16 153 16 153 16 335.5 c 128,-1,12
 16 518 16 518 92 600.5 c 128,-1,13
 168 683 168 683 335 683 c 128,-1,14
 502 683 502 683 578 600.5 c 128,-1,15
 654 518 654 518 654 335 c 128,-1,8
 654 152 654 152 578 69.5 c 128,-1,9
246 849 m 1,16,-1
 488 849 l 1,17,-1
 379 713 l 1,18,-1
 203 713 l 1,19,-1
 246 849 l 1,16,-1
EndSplineSet
Position2: "'cpsp' Capital Spacing in Latin lookup 0 subtable" dx=5 dy=0 dh=10 dv=0
EndChar

StartChar: Ocircumflex
Encoding: 212 212 149
Width: 670
GlyphClass: 2
Flags: W
LayerCount: 2
Fore
SplineSet
266.5 212.5 m 128,-1,1
 283 175 283 175 335.5 175 c 128,-1,2
 388 175 388 175 404 212 c 128,-1,3
 420 249 420 249 420 335.5 c 128,-1,4
 420 422 420 422 404.5 458.5 c 128,-1,5
 389 495 389 495 336 495 c 128,-1,6
 283 495 283 495 266.5 457.5 c 128,-1,7
 250 420 250 420 250 335 c 128,-1,0
 250 250 250 250 266.5 212.5 c 128,-1,1
578 69.5 m 128,-1,9
 502 -13 502 -13 335.5 -13 c 128,-1,10
 169 -13 169 -13 92.5 70 c 128,-1,11
 16 153 16 153 16 335.5 c 128,-1,12
 16 518 16 518 92 600.5 c 128,-1,13
 168 683 168 683 335 683 c 128,-1,14
 502 683 502 683 578 600.5 c 128,-1,15
 654 518 654 518 654 335 c 128,-1,8
 654 152 654 152 578 69.5 c 128,-1,9
153 713 m 1,16,-1
 254 849 l 1,17,-1
 406 849 l 1,18,-1
 518 713 l 1,19,-1
 349 713 l 1,20,-1
 334 775 l 1,21,-1
 322 713 l 1,22,-1
 153 713 l 1,16,-1
EndSplineSet
Position2: "'cpsp' Capital Spacing in Latin lookup 0 subtable" dx=5 dy=0 dh=10 dv=0
EndChar

StartChar: Otilde
Encoding: 213 213 150
Width: 670
GlyphClass: 2
Flags: W
LayerCount: 2
Fore
SplineSet
266.5 212.5 m 128,-1,1
 283 175 283 175 335.5 175 c 128,-1,2
 388 175 388 175 404 212 c 128,-1,3
 420 249 420 249 420 335.5 c 128,-1,4
 420 422 420 422 404.5 458.5 c 128,-1,5
 389 495 389 495 336 495 c 128,-1,6
 283 495 283 495 266.5 457.5 c 128,-1,7
 250 420 250 420 250 335 c 128,-1,0
 250 250 250 250 266.5 212.5 c 128,-1,1
578 69.5 m 128,-1,9
 502 -13 502 -13 335.5 -13 c 128,-1,10
 169 -13 169 -13 92.5 70 c 128,-1,11
 16 153 16 153 16 335.5 c 128,-1,12
 16 518 16 518 92 600.5 c 128,-1,13
 168 683 168 683 335 683 c 128,-1,14
 502 683 502 683 578 600.5 c 128,-1,15
 654 518 654 518 654 335 c 128,-1,8
 654 152 654 152 578 69.5 c 128,-1,9
463 728 m 128,-1,17
 435 712 435 712 409 712 c 128,-1,18
 383 712 383 712 329.5 729 c 128,-1,19
 276 746 276 746 263 746 c 0,20,21
 236 746 236 746 196 728 c 1,22,-1
 182 721 l 1,23,-1
 153 827 l 1,24,25
 170 847 170 847 203 866.5 c 128,-1,26
 236 886 236 886 265.5 886 c 128,-1,27
 295 886 295 886 346 870 c 128,-1,28
 397 854 397 854 408 854 c 0,29,30
 428 854 428 854 474 872 c 1,31,-1
 489 877 l 1,32,-1
 518 770 l 1,33,34
 512 764 512 764 501.5 754 c 128,-1,16
 491 744 491 744 463 728 c 128,-1,17
EndSplineSet
Position2: "'cpsp' Capital Spacing in Latin lookup 0 subtable" dx=5 dy=0 dh=10 dv=0
EndChar

StartChar: Odieresis
Encoding: 214 214 151
Width: 670
GlyphClass: 2
Flags: W
LayerCount: 2
Fore
SplineSet
266.5 212.5 m 128,-1,1
 283 175 283 175 335.5 175 c 128,-1,2
 388 175 388 175 404 212 c 128,-1,3
 420 249 420 249 420 335.5 c 128,-1,4
 420 422 420 422 404.5 458.5 c 128,-1,5
 389 495 389 495 336 495 c 128,-1,6
 283 495 283 495 266.5 457.5 c 128,-1,7
 250 420 250 420 250 335 c 128,-1,0
 250 250 250 250 266.5 212.5 c 128,-1,1
578 69.5 m 128,-1,9
 502 -13 502 -13 335.5 -13 c 128,-1,10
 169 -13 169 -13 92.5 70 c 128,-1,11
 16 153 16 153 16 335.5 c 128,-1,12
 16 518 16 518 92 600.5 c 128,-1,13
 168 683 168 683 335 683 c 128,-1,14
 502 683 502 683 578 600.5 c 128,-1,15
 654 518 654 518 654 335 c 128,-1,8
 654 152 654 152 578 69.5 c 128,-1,9
358 713 m 1,16,-1
 358 857 l 1,17,-1
 519 857 l 1,18,-1
 519 713 l 1,19,-1
 358 713 l 1,16,-1
151 713 m 1,20,-1
 151 857 l 1,21,-1
 312 857 l 1,22,-1
 312 713 l 1,23,-1
 151 713 l 1,20,-1
EndSplineSet
Position2: "'cpsp' Capital Spacing in Latin lookup 0 subtable" dx=5 dy=0 dh=10 dv=0
EndChar

StartChar: multiply
Encoding: 215 215 152
Width: 550
GlyphClass: 2
Flags: W
LayerCount: 2
Fore
SplineSet
148 503 m 1,0,-1
 274 376 l 1,1,-1
 401 503 l 1,2,-1
 525 380 l 1,3,-1
 398 253 l 1,4,-1
 525 126 l 1,5,-1
 402 3 l 1,6,-1
 274 129 l 1,7,-1
 148 3 l 1,8,-1
 25 125 l 1,9,-1
 151 253 l 1,10,-1
 25 381 l 1,11,-1
 148 503 l 1,0,-1
EndSplineSet
EndChar

StartChar: Oslash
Encoding: 216 216 153
Width: 670
GlyphClass: 2
Flags: W
LayerCount: 2
Fore
SplineSet
83 -10 m 1,0,1
 86 -1 86 -1 109 53 c 1,2,3
 16 136 16 136 16 327 c 128,-1,4
 16 518 16 518 92 600.5 c 128,-1,5
 168 683 168 683 335 683 c 1,6,-1
 363 682 l 1,7,-1
 381 724 l 1,8,-1
 598 680 l 1,9,-1
 569 609 l 1,10,11
 654 527 654 527 654 339.5 c 128,-1,12
 654 152 654 152 578 69.5 c 128,-1,13
 502 -13 502 -13 335 -13 c 2,14,-1
 316 -13 l 1,15,-1
 300 -54 l 1,16,-1
 83 -10 l 1,0,1
266.5 212.5 m 128,-1,18
 283 175 283 175 335.5 175 c 128,-1,19
 388 175 388 175 404 212 c 128,-1,20
 420 249 420 249 420 335.5 c 128,-1,21
 420 422 420 422 404.5 458.5 c 128,-1,22
 389 495 389 495 336 495 c 128,-1,23
 283 495 283 495 266.5 457.5 c 128,-1,24
 250 420 250 420 250 335 c 128,-1,17
 250 250 250 250 266.5 212.5 c 128,-1,18
EndSplineSet
Position2: "'cpsp' Capital Spacing in Latin lookup 0 subtable" dx=5 dy=0 dh=10 dv=0
EndChar

StartChar: Ugrave
Encoding: 217 217 154
Width: 634
GlyphClass: 2
Flags: W
LayerCount: 2
Fore
SplineSet
252 670 m 1,0,-1
 252 231 l 2,1,2
 252 202 252 202 266.5 190 c 128,-1,3
 281 178 281 178 317 178 c 128,-1,4
 353 178 353 178 367.5 190 c 128,-1,5
 382 202 382 202 382 231 c 2,6,-1
 382 670 l 1,7,-1
 608 670 l 1,8,-1
 608 244 l 2,9,10
 608 103 608 103 538 45 c 128,-1,11
 468 -13 468 -13 317 -13 c 128,-1,12
 166 -13 166 -13 96 43 c 128,-1,13
 26 99 26 99 26 240 c 2,14,-1
 26 670 l 1,15,-1
 252 670 l 1,0,-1
170 849 m 1,16,-1
 412 849 l 1,17,-1
 446 713 l 1,18,-1
 274 713 l 1,19,-1
 170 849 l 1,16,-1
EndSplineSet
Position2: "'cpsp' Capital Spacing in Latin lookup 0 subtable" dx=5 dy=0 dh=10 dv=0
EndChar

StartChar: Uacute
Encoding: 218 218 155
Width: 641
GlyphClass: 2
Flags: W
LayerCount: 2
Fore
SplineSet
258 670 m 1,0,-1
 258 231 l 2,1,2
 258 202 258 202 272.5 190 c 128,-1,3
 287 178 287 178 321 178 c 128,-1,4
 355 178 355 178 369 190 c 128,-1,5
 383 202 383 202 383 231 c 2,6,-1
 383 670 l 1,7,-1
 615 670 l 1,8,-1
 615 244 l 2,9,10
 615 102 615 102 544 44.5 c 128,-1,11
 473 -13 473 -13 320.5 -13 c 128,-1,12
 168 -13 168 -13 97 43 c 128,-1,13
 26 99 26 99 26 240 c 2,14,-1
 26 670 l 1,15,-1
 258 670 l 1,0,-1
229 849 m 1,16,-1
 471 849 l 1,17,-1
 362 713 l 1,18,-1
 186 713 l 1,19,-1
 229 849 l 1,16,-1
EndSplineSet
Position2: "'cpsp' Capital Spacing in Latin lookup 0 subtable" dx=5 dy=0 dh=10 dv=0
EndChar

StartChar: Ucircumflex
Encoding: 219 219 156
Width: 634
GlyphClass: 2
Flags: W
LayerCount: 2
Fore
SplineSet
252 670 m 1,0,-1
 252 231 l 2,1,2
 252 202 252 202 266.5 190 c 128,-1,3
 281 178 281 178 317 178 c 128,-1,4
 353 178 353 178 367.5 190 c 128,-1,5
 382 202 382 202 382 231 c 2,6,-1
 382 670 l 1,7,-1
 608 670 l 1,8,-1
 608 244 l 2,9,10
 608 103 608 103 538 45 c 128,-1,11
 468 -13 468 -13 317 -13 c 128,-1,12
 166 -13 166 -13 96 43 c 128,-1,13
 26 99 26 99 26 240 c 2,14,-1
 26 670 l 1,15,-1
 252 670 l 1,0,-1
135 713 m 1,16,-1
 236 849 l 1,17,-1
 388 849 l 1,18,-1
 500 713 l 1,19,-1
 331 713 l 1,20,-1
 316 775 l 1,21,-1
 304 713 l 1,22,-1
 135 713 l 1,16,-1
EndSplineSet
Position2: "'cpsp' Capital Spacing in Latin lookup 0 subtable" dx=5 dy=0 dh=10 dv=0
EndChar

StartChar: Udieresis
Encoding: 220 220 157
Width: 641
GlyphClass: 2
Flags: W
LayerCount: 2
Fore
SplineSet
258 670 m 1,0,-1
 258 231 l 2,1,2
 258 202 258 202 272.5 190 c 128,-1,3
 287 178 287 178 321 178 c 128,-1,4
 355 178 355 178 369 190 c 128,-1,5
 383 202 383 202 383 231 c 2,6,-1
 383 670 l 1,7,-1
 615 670 l 1,8,-1
 615 244 l 2,9,10
 615 102 615 102 544 44.5 c 128,-1,11
 473 -13 473 -13 320.5 -13 c 128,-1,12
 168 -13 168 -13 97 43 c 128,-1,13
 26 99 26 99 26 240 c 2,14,-1
 26 670 l 1,15,-1
 258 670 l 1,0,-1
343 713 m 1,16,-1
 343 857 l 1,17,-1
 504 857 l 1,18,-1
 504 713 l 1,19,-1
 343 713 l 1,16,-1
136 713 m 1,20,-1
 136 857 l 1,21,-1
 297 857 l 1,22,-1
 297 713 l 1,23,-1
 136 713 l 1,20,-1
EndSplineSet
Position2: "'cpsp' Capital Spacing in Latin lookup 0 subtable" dx=5 dy=0 dh=10 dv=0
EndChar

StartChar: Yacute
Encoding: 221 221 158
Width: 590
GlyphClass: 2
Flags: W
LayerCount: 2
Fore
SplineSet
410 0 m 1,0,-1
 178 0 l 1,1,-1
 178 210 l 1,2,-1
 -13 670 l 1,3,-1
 233 670 l 1,4,-1
 296 473 l 1,5,-1
 361 670 l 1,6,-1
 606 670 l 1,7,-1
 410 210 l 1,8,-1
 410 0 l 1,0,-1
236 849 m 1,9,-1
 478 849 l 1,10,-1
 369 713 l 1,11,-1
 193 713 l 1,12,-1
 236 849 l 1,9,-1
EndSplineSet
Position2: "'cpsp' Capital Spacing in Latin lookup 0 subtable" dx=5 dy=0 dh=10 dv=0
EndChar

StartChar: Thorn
Encoding: 222 222 159
Width: 611
GlyphClass: 2
Flags: W
LayerCount: 2
Fore
SplineSet
290 72 m 2,0,-1
 256 72 l 1,1,-1
 256 0 l 1,2,-1
 30 0 l 1,3,-1
 30 670 l 1,4,-1
 256 670 l 1,5,-1
 256 600 l 1,6,-1
 290 600 l 2,7,8
 368 600 368 600 421 588.5 c 128,-1,9
 474 577 474 577 514 548 c 0,10,11
 591 494 591 494 591 341 c 128,-1,12
 591 188 591 188 518.5 130 c 128,-1,13
 446 72 446 72 290 72 c 2,0,-1
256 255 m 1,14,-1
 280 255 l 2,15,16
 325 255 325 255 344 273.5 c 128,-1,17
 363 292 363 292 363 338.5 c 128,-1,18
 363 385 363 385 345 401 c 128,-1,19
 327 417 327 417 280 417 c 2,20,-1
 256 417 l 1,21,-1
 256 255 l 1,14,-1
EndSplineSet
Position2: "'cpsp' Capital Spacing in Latin lookup 0 subtable" dx=5 dy=0 dh=10 dv=0
EndChar

StartChar: germandbls
Encoding: 223 223 160
Width: 697
GlyphClass: 2
Flags: W
LayerCount: 2
Fore
SplineSet
252 0 m 1,0,-1
 28 0 l 1,1,-1
 28 453 l 2,2,3
 28 597 28 597 96.5 650 c 128,-1,4
 165 703 165 703 327 703 c 128,-1,5
 489 703 489 703 552 663.5 c 128,-1,6
 615 624 615 624 615 538 c 0,7,8
 615 489 615 489 604 470 c 128,-1,9
 593 451 593 451 554 430 c 128,-1,10
 515 409 515 409 504.5 400.5 c 128,-1,11
 494 392 494 392 494 379.5 c 128,-1,12
 494 367 494 367 508.5 358.5 c 128,-1,13
 523 350 523 350 584 328 c 128,-1,14
 645 306 645 306 668.5 275 c 128,-1,15
 692 244 692 244 692 175 c 0,16,17
 692 74 692 74 649.5 30.5 c 128,-1,18
 607 -13 607 -13 500 -13 c 0,19,20
 396 -13 396 -13 318 5 c 2,21,-1
 292 11 l 1,22,-1
 299 158 l 1,23,24
 377 148 377 148 438 148 c 0,25,26
 476 148 476 148 476 167 c 0,27,28
 476 174 476 174 459 182.5 c 128,-1,29
 442 191 442 191 384.5 213 c 128,-1,30
 327 235 327 235 307.5 260 c 128,-1,31
 288 285 288 285 288 322.5 c 128,-1,32
 288 360 288 360 300.5 382 c 128,-1,33
 313 404 313 404 351 434.5 c 128,-1,34
 389 465 389 465 389 484 c 0,35,36
 389 515 389 515 342 515 c 128,-1,37
 295 515 295 515 273.5 502.5 c 128,-1,38
 252 490 252 490 252 460 c 2,39,-1
 252 0 l 1,0,-1
EndSplineSet
EndChar

StartChar: agrave
Encoding: 224 224 161
Width: 557
GlyphClass: 2
Flags: W
LayerCount: 2
Fore
SplineSet
518 342 m 2,0,-1
 518 152 l 1,1,2
 527 145 527 145 542 141 c 1,3,-1
 539 -1 l 1,4,5
 461 -13 461 -13 432 -13 c 128,-1,6
 403 -13 403 -13 379 -4.5 c 128,-1,7
 355 4 355 4 347 13 c 2,8,-1
 339 22 l 1,9,10
 277 -13 277 -13 188.5 -13 c 128,-1,11
 100 -13 100 -13 55 27.5 c 128,-1,12
 10 68 10 68 10 158 c 128,-1,13
 10 248 10 248 61 278.5 c 128,-1,14
 112 309 112 309 222 313 c 2,15,-1
 294 316 l 1,16,-1
 294 325 l 2,17,18
 294 344 294 344 252 344 c 0,19,20
 161 344 161 344 70 334 c 1,21,-1
 37 331 l 1,22,-1
 32 483 l 1,23,24
 164 518 164 518 273 518 c 0,25,26
 387 518 387 518 450 484 c 0,27,28
 518 448 518 448 518 342 c 2,0,-1
256 141 m 0,29,30
 275 141 275 141 294 156 c 1,31,-1
 294 193 l 1,32,-1
 260 191 l 2,33,34
 234 189 234 189 234 165 c 128,-1,35
 234 141 234 141 256 141 c 0,29,30
94 723 m 1,36,-1
 331 723 l 1,37,-1
 374 557 l 1,38,-1
 203 557 l 1,39,-1
 94 723 l 1,36,-1
EndSplineSet
EndChar

StartChar: aacute
Encoding: 225 225 162
Width: 557
GlyphClass: 2
Flags: W
LayerCount: 2
Fore
SplineSet
518 342 m 2,0,-1
 518 152 l 1,1,2
 527 145 527 145 542 141 c 1,3,-1
 539 -1 l 1,4,5
 461 -13 461 -13 432 -13 c 128,-1,6
 403 -13 403 -13 379 -4.5 c 128,-1,7
 355 4 355 4 347 13 c 2,8,-1
 339 22 l 1,9,10
 277 -13 277 -13 188.5 -13 c 128,-1,11
 100 -13 100 -13 55 27.5 c 128,-1,12
 10 68 10 68 10 158 c 128,-1,13
 10 248 10 248 61 278.5 c 128,-1,14
 112 309 112 309 222 313 c 2,15,-1
 294 316 l 1,16,-1
 294 325 l 2,17,18
 294 344 294 344 252 344 c 0,19,20
 161 344 161 344 70 334 c 1,21,-1
 37 331 l 1,22,-1
 32 483 l 1,23,24
 164 518 164 518 273 518 c 0,25,26
 387 518 387 518 450 484 c 0,27,28
 518 448 518 448 518 342 c 2,0,-1
256 141 m 0,29,30
 275 141 275 141 294 156 c 1,31,-1
 294 193 l 1,32,-1
 260 191 l 2,33,34
 234 189 234 189 234 165 c 128,-1,35
 234 141 234 141 256 141 c 0,29,30
221 723 m 1,36,-1
 458 723 l 1,37,-1
 349 557 l 1,38,-1
 178 557 l 1,39,-1
 221 723 l 1,36,-1
EndSplineSet
EndChar

StartChar: acircumflex
Encoding: 226 226 163
Width: 557
GlyphClass: 2
Flags: W
LayerCount: 2
Fore
SplineSet
518 342 m 2,0,-1
 518 152 l 1,1,2
 527 145 527 145 542 141 c 1,3,-1
 539 -1 l 1,4,5
 461 -13 461 -13 432 -13 c 128,-1,6
 403 -13 403 -13 379 -4.5 c 128,-1,7
 355 4 355 4 347 13 c 2,8,-1
 339 22 l 1,9,10
 277 -13 277 -13 188.5 -13 c 128,-1,11
 100 -13 100 -13 55 27.5 c 128,-1,12
 10 68 10 68 10 158 c 128,-1,13
 10 248 10 248 61 278.5 c 128,-1,14
 112 309 112 309 222 313 c 2,15,-1
 294 316 l 1,16,-1
 294 325 l 2,17,18
 294 344 294 344 252 344 c 0,19,20
 161 344 161 344 70 334 c 1,21,-1
 37 331 l 1,22,-1
 32 483 l 1,23,24
 164 518 164 518 273 518 c 0,25,26
 387 518 387 518 450 484 c 0,27,28
 518 448 518 448 518 342 c 2,0,-1
256 141 m 0,29,30
 275 141 275 141 294 156 c 1,31,-1
 294 193 l 1,32,-1
 260 191 l 2,33,34
 234 189 234 189 234 165 c 128,-1,35
 234 141 234 141 256 141 c 0,29,30
101 557 m 1,36,-1
 192 723 l 1,37,-1
 350 723 l 1,38,-1
 452 557 l 1,39,-1
 290 557 l 1,40,-1
 275 629 l 1,41,-1
 263 557 l 1,42,-1
 101 557 l 1,36,-1
EndSplineSet
EndChar

StartChar: atilde
Encoding: 227 227 164
Width: 557
GlyphClass: 2
Flags: W
LayerCount: 2
Fore
SplineSet
518 342 m 2,0,-1
 518 152 l 1,1,2
 527 145 527 145 542 141 c 1,3,-1
 539 -1 l 1,4,5
 461 -13 461 -13 432 -13 c 128,-1,6
 403 -13 403 -13 379 -4.5 c 128,-1,7
 355 4 355 4 347 13 c 2,8,-1
 339 22 l 1,9,10
 277 -13 277 -13 188.5 -13 c 128,-1,11
 100 -13 100 -13 55 27.5 c 128,-1,12
 10 68 10 68 10 158 c 128,-1,13
 10 248 10 248 61 278.5 c 128,-1,14
 112 309 112 309 222 313 c 2,15,-1
 294 316 l 1,16,-1
 294 325 l 2,17,18
 294 344 294 344 252 344 c 0,19,20
 161 344 161 344 70 334 c 1,21,-1
 37 331 l 1,22,-1
 32 483 l 1,23,24
 164 518 164 518 273 518 c 0,25,26
 387 518 387 518 450 484 c 0,27,28
 518 448 518 448 518 342 c 2,0,-1
256 141 m 0,29,30
 275 141 275 141 294 156 c 1,31,-1
 294 193 l 1,32,-1
 260 191 l 2,33,34
 234 189 234 189 234 165 c 128,-1,35
 234 141 234 141 256 141 c 0,29,30
350 547 m 128,-1,37
 324 547 324 547 270.5 569 c 128,-1,38
 217 591 217 591 204 591 c 0,39,40
 179 591 179 591 137 561 c 2,41,-1
 123 551 l 1,42,-1
 94 667 l 1,43,44
 114 691 114 691 145.5 711 c 128,-1,45
 177 731 177 731 206.5 731 c 128,-1,46
 236 731 236 731 287 709.5 c 128,-1,47
 338 688 338 688 349 688 c 0,48,49
 370 688 370 688 416 718 c 2,50,-1
 430 727 l 1,51,-1
 459 610 l 1,52,53
 438 586 438 586 407 566.5 c 128,-1,36
 376 547 376 547 350 547 c 128,-1,37
EndSplineSet
EndChar

StartChar: adieresis
Encoding: 228 228 165
Width: 557
GlyphClass: 2
Flags: W
LayerCount: 2
Fore
SplineSet
518 342 m 2,0,-1
 518 152 l 1,1,2
 527 145 527 145 542 141 c 1,3,-1
 539 -1 l 1,4,5
 461 -13 461 -13 432 -13 c 128,-1,6
 403 -13 403 -13 379 -4.5 c 128,-1,7
 355 4 355 4 347 13 c 2,8,-1
 339 22 l 1,9,10
 277 -13 277 -13 188.5 -13 c 128,-1,11
 100 -13 100 -13 55 27.5 c 128,-1,12
 10 68 10 68 10 158 c 128,-1,13
 10 248 10 248 61 278.5 c 128,-1,14
 112 309 112 309 222 313 c 2,15,-1
 294 316 l 1,16,-1
 294 325 l 2,17,18
 294 344 294 344 252 344 c 0,19,20
 161 344 161 344 70 334 c 1,21,-1
 37 331 l 1,22,-1
 32 483 l 1,23,24
 164 518 164 518 273 518 c 0,25,26
 387 518 387 518 450 484 c 0,27,28
 518 448 518 448 518 342 c 2,0,-1
256 141 m 0,29,30
 275 141 275 141 294 156 c 1,31,-1
 294 193 l 1,32,-1
 260 191 l 2,33,34
 234 189 234 189 234 165 c 128,-1,35
 234 141 234 141 256 141 c 0,29,30
299 559 m 1,36,-1
 299 713 l 1,37,-1
 463 713 l 1,38,-1
 463 559 l 1,39,-1
 299 559 l 1,36,-1
89 559 m 1,40,-1
 89 713 l 1,41,-1
 253 713 l 1,42,-1
 253 559 l 1,43,-1
 89 559 l 1,40,-1
EndSplineSet
EndChar

StartChar: aring
Encoding: 229 229 166
Width: 557
GlyphClass: 2
Flags: W
LayerCount: 2
Fore
SplineSet
518 342 m 2,0,-1
 518 152 l 1,1,2
 527 145 527 145 542 141 c 1,3,-1
 539 -1 l 1,4,5
 461 -13 461 -13 432 -13 c 128,-1,6
 403 -13 403 -13 379 -4.5 c 128,-1,7
 355 4 355 4 347 13 c 2,8,-1
 339 22 l 1,9,10
 277 -13 277 -13 188.5 -13 c 128,-1,11
 100 -13 100 -13 55 27.5 c 128,-1,12
 10 68 10 68 10 158 c 128,-1,13
 10 248 10 248 61 278.5 c 128,-1,14
 112 309 112 309 222 313 c 2,15,-1
 294 316 l 1,16,-1
 294 325 l 2,17,18
 294 344 294 344 252 344 c 0,19,20
 161 344 161 344 70 334 c 1,21,-1
 37 331 l 1,22,-1
 32 483 l 1,23,24
 164 518 164 518 273 518 c 0,25,26
 387 518 387 518 450 484 c 0,27,28
 518 448 518 448 518 342 c 2,0,-1
256 141 m 0,29,30
 275 141 275 141 294 156 c 1,31,-1
 294 193 l 1,32,-1
 260 191 l 2,33,34
 234 189 234 189 234 165 c 128,-1,35
 234 141 234 141 256 141 c 0,29,30
142 642 m 128,-1,37
 142 692 142 692 178 716.5 c 128,-1,38
 214 741 214 741 275.5 741 c 128,-1,39
 337 741 337 741 373.5 716.5 c 128,-1,40
 410 692 410 692 410 643 c 128,-1,41
 410 594 410 594 374.5 568.5 c 128,-1,42
 339 543 339 543 276.5 543 c 128,-1,43
 214 543 214 543 178 567.5 c 128,-1,36
 142 592 142 592 142 642 c 128,-1,37
246 641.5 m 128,-1,45
 246 620 246 620 276.5 620 c 128,-1,46
 307 620 307 620 307 641.5 c 128,-1,47
 307 663 307 663 276.5 663 c 128,-1,44
 246 663 246 663 246 641.5 c 128,-1,45
EndSplineSet
EndChar

StartChar: ae
Encoding: 230 230 167
Width: 807
GlyphClass: 2
Flags: W
LayerCount: 2
Fore
SplineSet
494 187 m 1,0,1
 495 152 495 152 540 152 c 0,2,3
 639 152 639 152 740 158 c 1,4,-1
 778 161 l 1,5,-1
 783 16 l 1,6,7
 650 -13 650 -13 539.5 -13 c 128,-1,8
 429 -13 429 -13 383 21 c 1,9,10
 281 -13 281 -13 192 -13 c 0,11,12
 10 -13 10 -13 10 157 c 0,13,14
 10 232 10 232 43 268 c 0,15,16
 78 307 78 307 220 313 c 2,17,-1
 288 316 l 1,18,-1
 288 325 l 2,19,20
 288 344 288 344 246 344 c 0,21,22
 156 344 156 344 69 334 c 1,23,-1
 37 331 l 1,24,-1
 32 483 l 1,25,26
 158 518 158 518 263 518 c 128,-1,27
 368 518 368 518 408 492 c 1,28,29
 455 518 455 518 532 518 c 0,30,31
 663 518 663 518 728 461 c 128,-1,32
 793 404 793 404 793 286 c 1,33,-1
 783 187 l 1,34,-1
 494 187 l 1,0,1
571 309 m 1,35,36
 571 338 571 338 562 350 c 128,-1,37
 553 362 553 362 531.5 362 c 128,-1,38
 510 362 510 362 502 350 c 128,-1,39
 494 338 494 338 493 309 c 1,40,-1
 571 309 l 1,35,36
250 141 m 0,41,42
 269 141 269 141 288 156 c 1,43,-1
 288 193 l 1,44,-1
 254 191 l 2,45,46
 228 189 228 189 228 165 c 128,-1,47
 228 141 228 141 250 141 c 0,41,42
EndSplineSet
EndChar

StartChar: ccedilla
Encoding: 231 231 168
Width: 466
GlyphClass: 2
Flags: W
LayerCount: 2
Fore
SplineSet
389.5 -51.5 m 128,-1,1
 419 -69 419 -69 419 -124 c 128,-1,2
 419 -179 419 -179 387.5 -205 c 128,-1,3
 356 -231 356 -231 292 -231 c 0,4,5
 227 -231 227 -231 182 -223 c 2,6,-1
 165 -220 l 1,7,-1
 169 -142 l 1,8,9
 200 -143 200 -143 217 -143 c 0,10,11
 255 -143 255 -143 255 -121 c 0,12,13
 255 -109 255 -109 247 -105 c 128,-1,14
 239 -101 239 -101 217 -101 c 2,15,-1
 208 -101 l 1,16,-1
 208 -10 l 1,17,18
 100 1 100 1 58.5 61.5 c 128,-1,19
 17 122 17 122 17 262.5 c 128,-1,20
 17 403 17 403 74 460.5 c 128,-1,21
 131 518 131 518 267 518 c 0,22,23
 336 518 336 518 420 498 c 1,24,-1
 448 492 l 1,25,-1
 441 315 l 1,26,27
 338 323 338 323 303 323 c 128,-1,28
 268 323 268 323 255.5 307.5 c 128,-1,29
 243 292 243 292 243 252.5 c 128,-1,30
 243 213 243 213 255.5 198 c 128,-1,31
 268 183 268 183 300 183 c 1,32,-1
 443 190 l 1,33,-1
 450 15 l 1,34,35
 364 -10 364 -10 281 -13 c 1,36,-1
 281 -33 l 1,37,0
 360 -34 360 -34 389.5 -51.5 c 128,-1,1
EndSplineSet
EndChar

StartChar: egrave
Encoding: 232 232 169
Width: 552
GlyphClass: 2
Flags: W
LayerCount: 2
Fore
SplineSet
239 187 m 1,0,1
 240 152 240 152 284 152 c 0,2,3
 384 152 384 152 484 158 c 1,4,-1
 523 161 l 1,5,-1
 528 16 l 1,6,7
 395 -13 395 -13 263.5 -13 c 128,-1,8
 132 -13 132 -13 73.5 47.5 c 128,-1,9
 15 108 15 108 15 243.5 c 128,-1,10
 15 379 15 379 78 448.5 c 128,-1,11
 141 518 141 518 274.5 518 c 128,-1,12
 408 518 408 518 473 461 c 128,-1,13
 538 404 538 404 538 286 c 1,14,-1
 528 187 l 1,15,-1
 239 187 l 1,0,1
314 309 m 1,16,17
 314 338 314 338 305.5 350 c 128,-1,18
 297 362 297 362 276 362 c 128,-1,19
 255 362 255 362 247 350 c 128,-1,20
 239 338 239 338 238 309 c 1,21,-1
 314 309 l 1,16,17
105 723 m 1,22,-1
 342 723 l 1,23,-1
 385 557 l 1,24,-1
 214 557 l 1,25,-1
 105 723 l 1,22,-1
EndSplineSet
EndChar

StartChar: eacute
Encoding: 233 233 170
Width: 552
GlyphClass: 2
Flags: W
LayerCount: 2
Fore
SplineSet
239 187 m 1,0,1
 240 152 240 152 284 152 c 0,2,3
 384 152 384 152 484 158 c 1,4,-1
 523 161 l 1,5,-1
 528 16 l 1,6,7
 395 -13 395 -13 263.5 -13 c 128,-1,8
 132 -13 132 -13 73.5 47.5 c 128,-1,9
 15 108 15 108 15 243.5 c 128,-1,10
 15 379 15 379 78 448.5 c 128,-1,11
 141 518 141 518 274.5 518 c 128,-1,12
 408 518 408 518 473 461 c 128,-1,13
 538 404 538 404 538 286 c 1,14,-1
 528 187 l 1,15,-1
 239 187 l 1,0,1
314 309 m 1,16,17
 314 338 314 338 305.5 350 c 128,-1,18
 297 362 297 362 276 362 c 128,-1,19
 255 362 255 362 247 350 c 128,-1,20
 239 338 239 338 238 309 c 1,21,-1
 314 309 l 1,16,17
210 723 m 1,22,-1
 447 723 l 1,23,-1
 338 557 l 1,24,-1
 167 557 l 1,25,-1
 210 723 l 1,22,-1
EndSplineSet
EndChar

StartChar: ecircumflex
Encoding: 234 234 171
Width: 552
GlyphClass: 2
Flags: W
LayerCount: 2
Fore
SplineSet
239 187 m 1,0,1
 240 152 240 152 284 152 c 0,2,3
 384 152 384 152 484 158 c 1,4,-1
 523 161 l 1,5,-1
 528 16 l 1,6,7
 395 -13 395 -13 263.5 -13 c 128,-1,8
 132 -13 132 -13 73.5 47.5 c 128,-1,9
 15 108 15 108 15 243.5 c 128,-1,10
 15 379 15 379 78 448.5 c 128,-1,11
 141 518 141 518 274.5 518 c 128,-1,12
 408 518 408 518 473 461 c 128,-1,13
 538 404 538 404 538 286 c 1,14,-1
 528 187 l 1,15,-1
 239 187 l 1,0,1
314 309 m 1,16,17
 314 338 314 338 305.5 350 c 128,-1,18
 297 362 297 362 276 362 c 128,-1,19
 255 362 255 362 247 350 c 128,-1,20
 239 338 239 338 238 309 c 1,21,-1
 314 309 l 1,16,17
101 557 m 1,22,-1
 192 723 l 1,23,-1
 350 723 l 1,24,-1
 452 557 l 1,25,-1
 290 557 l 1,26,-1
 275 629 l 1,27,-1
 263 557 l 1,28,-1
 101 557 l 1,22,-1
EndSplineSet
EndChar

StartChar: edieresis
Encoding: 235 235 172
Width: 552
GlyphClass: 2
Flags: W
LayerCount: 2
Fore
SplineSet
239 187 m 1,0,1
 240 152 240 152 284 152 c 0,2,3
 384 152 384 152 484 158 c 1,4,-1
 523 161 l 1,5,-1
 528 16 l 1,6,7
 395 -13 395 -13 263.5 -13 c 128,-1,8
 132 -13 132 -13 73.5 47.5 c 128,-1,9
 15 108 15 108 15 243.5 c 128,-1,10
 15 379 15 379 78 448.5 c 128,-1,11
 141 518 141 518 274.5 518 c 128,-1,12
 408 518 408 518 473 461 c 128,-1,13
 538 404 538 404 538 286 c 1,14,-1
 528 187 l 1,15,-1
 239 187 l 1,0,1
314 309 m 1,16,17
 314 338 314 338 305.5 350 c 128,-1,18
 297 362 297 362 276 362 c 128,-1,19
 255 362 255 362 247 350 c 128,-1,20
 239 338 239 338 238 309 c 1,21,-1
 314 309 l 1,16,17
299 559 m 1,22,-1
 299 713 l 1,23,-1
 463 713 l 1,24,-1
 463 559 l 1,25,-1
 299 559 l 1,22,-1
89 559 m 1,26,-1
 89 713 l 1,27,-1
 253 713 l 1,28,-1
 253 559 l 1,29,-1
 89 559 l 1,26,-1
EndSplineSet
EndChar

StartChar: igrave
Encoding: 236 236 173
Width: 280
GlyphClass: 2
Flags: W
LayerCount: 2
Fore
SplineSet
28 0 m 1,0,-1
 28 505 l 1,1,-1
 252 505 l 1,2,-1
 252 0 l 1,3,-1
 28 0 l 1,0,-1
-38 723 m 1,4,-1
 199 723 l 1,5,-1
 242 557 l 1,6,-1
 71 557 l 1,7,-1
 -38 723 l 1,4,-1
EndSplineSet
EndChar

StartChar: iacute
Encoding: 237 237 174
Width: 280
GlyphClass: 2
Flags: W
LayerCount: 2
Fore
SplineSet
28 0 m 1,0,-1
 28 505 l 1,1,-1
 252 505 l 1,2,-1
 252 0 l 1,3,-1
 28 0 l 1,0,-1
81 723 m 1,4,-1
 318 723 l 1,5,-1
 209 557 l 1,6,-1
 38 557 l 1,7,-1
 81 723 l 1,4,-1
EndSplineSet
EndChar

StartChar: icircumflex
Encoding: 238 238 175
Width: 280
GlyphClass: 2
Flags: W
LayerCount: 2
Fore
SplineSet
28 0 m 1,0,-1
 28 505 l 1,1,-1
 252 505 l 1,2,-1
 252 0 l 1,3,-1
 28 0 l 1,0,-1
-35 557 m 1,4,-1
 56 723 l 1,5,-1
 214 723 l 1,6,-1
 316 557 l 1,7,-1
 154 557 l 1,8,-1
 139 629 l 1,9,-1
 127 557 l 1,10,-1
 -35 557 l 1,4,-1
EndSplineSet
EndChar

StartChar: idieresis
Encoding: 239 239 176
Width: 280
GlyphClass: 2
Flags: W
LayerCount: 2
Fore
SplineSet
28 0 m 1,0,-1
 28 505 l 1,1,-1
 252 505 l 1,2,-1
 252 0 l 1,3,-1
 28 0 l 1,0,-1
162 559 m 1,4,-1
 162 713 l 1,5,-1
 326 713 l 1,6,-1
 326 559 l 1,7,-1
 162 559 l 1,4,-1
-48 559 m 1,8,-1
 -48 713 l 1,9,-1
 116 713 l 1,10,-1
 116 559 l 1,11,-1
 -48 559 l 1,8,-1
EndSplineSet
EndChar

StartChar: eth
Encoding: 240 240 177
Width: 529
GlyphClass: 2
Flags: W
LayerCount: 2
Fore
SplineSet
384 735 m 1,0,-1
 446 646 l 1,1,-1
 403 617 l 1,2,3
 512 533 512 533 512 350 c 128,-1,4
 512 167 512 167 448.5 79 c 128,-1,5
 385 -9 385 -9 246 -9 c 0,6,7
 126 -9 126 -9 66 46 c 128,-1,8
 6 101 6 101 6 211.5 c 128,-1,9
 6 322 6 322 61 381.5 c 128,-1,10
 116 441 116 441 218 441 c 128,-1,11
 320 441 320 441 343 423 c 1,12,13
 332 499 332 499 275 533 c 1,14,-1
 142 444 l 1,15,-1
 79 533 l 1,16,-1
 146 577 l 1,17,18
 101 586 101 586 46 595 c 1,19,-1
 65 705 l 1,20,21
 205 700 205 700 291 673 c 1,22,-1
 384 735 l 1,0,-1
237 302 m 0,23,24
 206 302 206 302 191 276.5 c 128,-1,25
 176 251 176 251 176 213.5 c 128,-1,26
 176 176 176 176 191.5 154.5 c 128,-1,27
 207 133 207 133 246 133 c 0,28,29
 342 133 342 133 342 286 c 1,30,31
 297 302 297 302 237 302 c 0,23,24
EndSplineSet
EndChar

StartChar: ntilde
Encoding: 241 241 178
Width: 578
GlyphClass: 2
Flags: W
LayerCount: 2
Fore
SplineSet
252 0 m 1,0,-1
 28 0 l 1,1,-1
 28 505 l 1,2,-1
 251 505 l 1,3,-1
 251 479 l 1,4,5
 314 518 314 518 361 518 c 0,6,7
 469 518 469 518 512 459.5 c 128,-1,8
 555 401 555 401 555 253 c 2,9,-1
 555 0 l 1,10,-1
 331 0 l 1,11,-1
 331 238 l 2,12,13
 331 325 331 325 295 325 c 1,14,-1
 252 318 l 1,15,-1
 252 0 l 1,0,-1
370 547 m 128,-1,17
 344 547 344 547 290.5 569 c 128,-1,18
 237 591 237 591 224 591 c 0,19,20
 199 591 199 591 157 561 c 2,21,-1
 143 551 l 1,22,-1
 114 667 l 1,23,24
 134 691 134 691 165.5 711 c 128,-1,25
 197 731 197 731 226.5 731 c 128,-1,26
 256 731 256 731 307 709.5 c 128,-1,27
 358 688 358 688 369 688 c 0,28,29
 390 688 390 688 436 718 c 2,30,-1
 450 727 l 1,31,-1
 479 610 l 1,32,33
 458 586 458 586 427 566.5 c 128,-1,16
 396 547 396 547 370 547 c 128,-1,17
EndSplineSet
EndChar

StartChar: ograve
Encoding: 242 242 179
Width: 564
GlyphClass: 2
Flags: W
LayerCount: 2
Fore
SplineSet
282 518 m 128,-1,1
 416 518 416 518 482.5 455.5 c 128,-1,2
 549 393 549 393 549 252 c 128,-1,3
 549 111 549 111 482.5 49 c 128,-1,4
 416 -13 416 -13 282 -13 c 128,-1,5
 148 -13 148 -13 81.5 49 c 128,-1,6
 15 111 15 111 15 252 c 128,-1,7
 15 393 15 393 81.5 455.5 c 128,-1,0
 148 518 148 518 282 518 c 128,-1,1
282 168 m 128,-1,9
 305 168 305 168 314 186 c 128,-1,10
 323 204 323 204 323 252.5 c 128,-1,11
 323 301 323 301 314 319 c 128,-1,12
 305 337 305 337 282 337 c 128,-1,13
 259 337 259 337 250 319 c 128,-1,14
 241 301 241 301 241 252.5 c 128,-1,15
 241 204 241 204 250 186 c 128,-1,8
 259 168 259 168 282 168 c 128,-1,9
100 723 m 1,16,-1
 337 723 l 1,17,-1
 380 557 l 1,18,-1
 209 557 l 1,19,-1
 100 723 l 1,16,-1
EndSplineSet
EndChar

StartChar: oacute
Encoding: 243 243 180
Width: 564
GlyphClass: 2
Flags: W
LayerCount: 2
Fore
SplineSet
282 518 m 128,-1,1
 416 518 416 518 482.5 455.5 c 128,-1,2
 549 393 549 393 549 252 c 128,-1,3
 549 111 549 111 482.5 49 c 128,-1,4
 416 -13 416 -13 282 -13 c 128,-1,5
 148 -13 148 -13 81.5 49 c 128,-1,6
 15 111 15 111 15 252 c 128,-1,7
 15 393 15 393 81.5 455.5 c 128,-1,0
 148 518 148 518 282 518 c 128,-1,1
282 168 m 128,-1,9
 305 168 305 168 314 186 c 128,-1,10
 323 204 323 204 323 252.5 c 128,-1,11
 323 301 323 301 314 319 c 128,-1,12
 305 337 305 337 282 337 c 128,-1,13
 259 337 259 337 250 319 c 128,-1,14
 241 301 241 301 241 252.5 c 128,-1,15
 241 204 241 204 250 186 c 128,-1,8
 259 168 259 168 282 168 c 128,-1,9
227 723 m 1,16,-1
 464 723 l 1,17,-1
 355 557 l 1,18,-1
 184 557 l 1,19,-1
 227 723 l 1,16,-1
EndSplineSet
EndChar

StartChar: ocircumflex
Encoding: 244 244 181
Width: 564
GlyphClass: 2
Flags: W
LayerCount: 2
Fore
SplineSet
282 518 m 128,-1,1
 416 518 416 518 482.5 455.5 c 128,-1,2
 549 393 549 393 549 252 c 128,-1,3
 549 111 549 111 482.5 49 c 128,-1,4
 416 -13 416 -13 282 -13 c 128,-1,5
 148 -13 148 -13 81.5 49 c 128,-1,6
 15 111 15 111 15 252 c 128,-1,7
 15 393 15 393 81.5 455.5 c 128,-1,0
 148 518 148 518 282 518 c 128,-1,1
282 168 m 128,-1,9
 305 168 305 168 314 186 c 128,-1,10
 323 204 323 204 323 252.5 c 128,-1,11
 323 301 323 301 314 319 c 128,-1,12
 305 337 305 337 282 337 c 128,-1,13
 259 337 259 337 250 319 c 128,-1,14
 241 301 241 301 241 252.5 c 128,-1,15
 241 204 241 204 250 186 c 128,-1,8
 259 168 259 168 282 168 c 128,-1,9
107 557 m 1,16,-1
 198 723 l 1,17,-1
 356 723 l 1,18,-1
 458 557 l 1,19,-1
 296 557 l 1,20,-1
 281 629 l 1,21,-1
 269 557 l 1,22,-1
 107 557 l 1,16,-1
EndSplineSet
EndChar

StartChar: otilde
Encoding: 245 245 182
Width: 564
GlyphClass: 2
Flags: W
LayerCount: 2
Fore
SplineSet
282 518 m 128,-1,1
 416 518 416 518 482.5 455.5 c 128,-1,2
 549 393 549 393 549 252 c 128,-1,3
 549 111 549 111 482.5 49 c 128,-1,4
 416 -13 416 -13 282 -13 c 128,-1,5
 148 -13 148 -13 81.5 49 c 128,-1,6
 15 111 15 111 15 252 c 128,-1,7
 15 393 15 393 81.5 455.5 c 128,-1,0
 148 518 148 518 282 518 c 128,-1,1
282 168 m 128,-1,9
 305 168 305 168 314 186 c 128,-1,10
 323 204 323 204 323 252.5 c 128,-1,11
 323 301 323 301 314 319 c 128,-1,12
 305 337 305 337 282 337 c 128,-1,13
 259 337 259 337 250 319 c 128,-1,14
 241 301 241 301 241 252.5 c 128,-1,15
 241 204 241 204 250 186 c 128,-1,8
 259 168 259 168 282 168 c 128,-1,9
356 547 m 128,-1,17
 330 547 330 547 276.5 569 c 128,-1,18
 223 591 223 591 210 591 c 0,19,20
 185 591 185 591 143 561 c 2,21,-1
 129 551 l 1,22,-1
 100 667 l 1,23,24
 120 691 120 691 151.5 711 c 128,-1,25
 183 731 183 731 212.5 731 c 128,-1,26
 242 731 242 731 293 709.5 c 128,-1,27
 344 688 344 688 355 688 c 0,28,29
 376 688 376 688 422 718 c 2,30,-1
 436 727 l 1,31,-1
 465 610 l 1,32,33
 444 586 444 586 413 566.5 c 128,-1,16
 382 547 382 547 356 547 c 128,-1,17
EndSplineSet
EndChar

StartChar: odieresis
Encoding: 246 246 183
Width: 564
GlyphClass: 2
Flags: W
LayerCount: 2
Fore
SplineSet
282 518 m 128,-1,1
 416 518 416 518 482.5 455.5 c 128,-1,2
 549 393 549 393 549 252 c 128,-1,3
 549 111 549 111 482.5 49 c 128,-1,4
 416 -13 416 -13 282 -13 c 128,-1,5
 148 -13 148 -13 81.5 49 c 128,-1,6
 15 111 15 111 15 252 c 128,-1,7
 15 393 15 393 81.5 455.5 c 128,-1,0
 148 518 148 518 282 518 c 128,-1,1
282 168 m 128,-1,9
 305 168 305 168 314 186 c 128,-1,10
 323 204 323 204 323 252.5 c 128,-1,11
 323 301 323 301 314 319 c 128,-1,12
 305 337 305 337 282 337 c 128,-1,13
 259 337 259 337 250 319 c 128,-1,14
 241 301 241 301 241 252.5 c 128,-1,15
 241 204 241 204 250 186 c 128,-1,8
 259 168 259 168 282 168 c 128,-1,9
305 559 m 1,16,-1
 305 713 l 1,17,-1
 469 713 l 1,18,-1
 469 559 l 1,19,-1
 305 559 l 1,16,-1
95 559 m 1,20,-1
 95 713 l 1,21,-1
 259 713 l 1,22,-1
 259 559 l 1,23,-1
 95 559 l 1,20,-1
EndSplineSet
EndChar

StartChar: divide
Encoding: 247 247 184
Width: 550
GlyphClass: 2
Flags: W
LayerCount: 2
Fore
SplineSet
43 340 m 1,0,-1
 507 340 l 1,1,-1
 507 170 l 1,2,-1
 43 170 l 1,3,-1
 43 340 l 1,0,-1
175 360 m 1,4,-1
 175 500 l 1,5,-1
 375 500 l 1,6,-1
 375 360 l 1,7,-1
 175 360 l 1,4,-1
175 10 m 1,8,-1
 175 150 l 1,9,-1
 375 150 l 1,10,-1
 375 10 l 1,11,-1
 175 10 l 1,8,-1
EndSplineSet
EndChar

StartChar: oslash
Encoding: 248 248 185
Width: 564
GlyphClass: 2
Flags: W
LayerCount: 2
Fore
SplineSet
282 -13 m 1,0,-1
 247 -12 l 1,1,-1
 212 -74 l 1,2,-1
 -5 -30 l 1,3,-1
 57 78 l 1,4,5
 15 141 15 141 15 253 c 0,6,7
 15 393 15 393 81.5 455.5 c 128,-1,8
 148 518 148 518 282 518 c 0,9,10
 299 518 299 518 308 517 c 1,11,-1
 349 589 l 1,12,-1
 404 578 l 2,13,14
 458 568 458 568 512 557 c 2,15,-1
 566 546 l 1,16,-1
 502 433 l 1,17,18
 549 369 549 369 549 253 c 0,19,20
 549 111 549 111 482.5 49 c 128,-1,21
 416 -13 416 -13 282 -13 c 1,0,-1
282 168 m 128,-1,23
 305 168 305 168 314 186 c 128,-1,24
 323 204 323 204 323 252.5 c 128,-1,25
 323 301 323 301 314 319 c 128,-1,26
 305 337 305 337 282 337 c 128,-1,27
 259 337 259 337 250 319 c 128,-1,28
 241 301 241 301 241 252.5 c 128,-1,29
 241 204 241 204 250 186 c 128,-1,22
 259 168 259 168 282 168 c 128,-1,23
EndSplineSet
EndChar

StartChar: ugrave
Encoding: 249 249 186
Width: 577
GlyphClass: 2
Flags: W
LayerCount: 2
Fore
SplineSet
325 505 m 1,0,-1
 549 505 l 1,1,-1
 549 0 l 1,2,-1
 327 0 l 1,3,-1
 327 24 l 1,4,5
 263 -13 263 -13 213 -13 c 0,6,7
 107 -13 107 -13 65 48.5 c 128,-1,8
 23 110 23 110 23 244 c 2,9,-1
 23 505 l 1,10,-1
 247 505 l 1,11,-1
 247 259 l 2,12,13
 247 214 247 214 255 197 c 128,-1,14
 263 180 263 180 281 180 c 1,15,-1
 325 186 l 1,16,-1
 325 505 l 1,0,-1
117 723 m 1,17,-1
 354 723 l 1,18,-1
 397 557 l 1,19,-1
 226 557 l 1,20,-1
 117 723 l 1,17,-1
EndSplineSet
EndChar

StartChar: uacute
Encoding: 250 250 187
Width: 577
GlyphClass: 2
Flags: W
LayerCount: 2
Fore
SplineSet
325 505 m 1,0,-1
 549 505 l 1,1,-1
 549 0 l 1,2,-1
 327 0 l 1,3,-1
 327 24 l 1,4,5
 263 -13 263 -13 213 -13 c 0,6,7
 107 -13 107 -13 65 48.5 c 128,-1,8
 23 110 23 110 23 244 c 2,9,-1
 23 505 l 1,10,-1
 247 505 l 1,11,-1
 247 259 l 2,12,13
 247 214 247 214 255 197 c 128,-1,14
 263 180 263 180 281 180 c 1,15,-1
 325 186 l 1,16,-1
 325 505 l 1,0,-1
229 723 m 1,17,-1
 466 723 l 1,18,-1
 357 557 l 1,19,-1
 186 557 l 1,20,-1
 229 723 l 1,17,-1
EndSplineSet
EndChar

StartChar: ucircumflex
Encoding: 251 251 188
Width: 577
GlyphClass: 2
Flags: W
LayerCount: 2
Fore
SplineSet
325 505 m 1,0,-1
 549 505 l 1,1,-1
 549 0 l 1,2,-1
 327 0 l 1,3,-1
 327 24 l 1,4,5
 263 -13 263 -13 213 -13 c 0,6,7
 107 -13 107 -13 65 48.5 c 128,-1,8
 23 110 23 110 23 244 c 2,9,-1
 23 505 l 1,10,-1
 247 505 l 1,11,-1
 247 259 l 2,12,13
 247 214 247 214 255 197 c 128,-1,14
 263 180 263 180 281 180 c 1,15,-1
 325 186 l 1,16,-1
 325 505 l 1,0,-1
116 557 m 1,17,-1
 207 723 l 1,18,-1
 365 723 l 1,19,-1
 467 557 l 1,20,-1
 305 557 l 1,21,-1
 290 629 l 1,22,-1
 278 557 l 1,23,-1
 116 557 l 1,17,-1
EndSplineSet
EndChar

StartChar: udieresis
Encoding: 252 252 189
Width: 577
GlyphClass: 2
Flags: W
LayerCount: 2
Fore
SplineSet
325 505 m 1,0,-1
 549 505 l 1,1,-1
 549 0 l 1,2,-1
 327 0 l 1,3,-1
 327 24 l 1,4,5
 263 -13 263 -13 213 -13 c 0,6,7
 107 -13 107 -13 65 48.5 c 128,-1,8
 23 110 23 110 23 244 c 2,9,-1
 23 505 l 1,10,-1
 247 505 l 1,11,-1
 247 259 l 2,12,13
 247 214 247 214 255 197 c 128,-1,14
 263 180 263 180 281 180 c 1,15,-1
 325 186 l 1,16,-1
 325 505 l 1,0,-1
314 559 m 1,17,-1
 314 713 l 1,18,-1
 478 713 l 1,19,-1
 478 559 l 1,20,-1
 314 559 l 1,17,-1
104 559 m 1,21,-1
 104 713 l 1,22,-1
 268 713 l 1,23,-1
 268 559 l 1,24,-1
 104 559 l 1,21,-1
EndSplineSet
EndChar

StartChar: yacute
Encoding: 253 253 190
Width: 546
GlyphClass: 2
Flags: W
LayerCount: 2
Fore
SplineSet
86 0 m 1,0,-1
 1 505 l 1,1,-1
 239 505 l 1,2,-1
 275 187 l 1,3,-1
 289 187 l 1,4,-1
 321 505 l 1,5,-1
 546 505 l 1,6,-1
 427 -195 l 1,7,-1
 181 -195 l 1,8,-1
 244 0 l 1,9,-1
 86 0 l 1,0,-1
223 723 m 1,10,-1
 460 723 l 1,11,-1
 351 557 l 1,12,-1
 180 557 l 1,13,-1
 223 723 l 1,10,-1
EndSplineSet
EndChar

StartChar: thorn
Encoding: 254 254 191
Width: 569
GlyphClass: 2
Flags: W
LayerCount: 2
Fore
SplineSet
251 703 m 1,0,-1
 251 502 l 1,1,2
 318 518 318 518 355 518 c 0,3,4
 461 518 461 518 507 450 c 128,-1,5
 553 382 553 382 553 247.5 c 128,-1,6
 553 113 553 113 502.5 50 c 128,-1,7
 452 -13 452 -13 333 -13 c 0,8,9
 310 -13 310 -13 264 -3 c 2,10,-1
 251 0 l 1,11,-1
 251 -195 l 1,12,-1
 27 -195 l 1,13,-1
 27 703 l 1,14,-1
 251 703 l 1,0,-1
283 168 m 0,15,16
 327 168 327 168 327 256 c 0,17,18
 327 303 327 303 317 320 c 128,-1,19
 307 337 307 337 283 337 c 1,20,-1
 251 330 l 1,21,-1
 251 171 l 1,22,23
 264 168 264 168 283 168 c 0,15,16
EndSplineSet
EndChar

StartChar: ydieresis
Encoding: 255 255 192
Width: 546
GlyphClass: 2
Flags: W
LayerCount: 2
Fore
SplineSet
86 0 m 1,0,-1
 1 505 l 1,1,-1
 239 505 l 1,2,-1
 275 187 l 1,3,-1
 289 187 l 1,4,-1
 321 505 l 1,5,-1
 546 505 l 1,6,-1
 427 -195 l 1,7,-1
 181 -195 l 1,8,-1
 244 0 l 1,9,-1
 86 0 l 1,0,-1
296 559 m 1,10,-1
 296 713 l 1,11,-1
 460 713 l 1,12,-1
 460 559 l 1,13,-1
 296 559 l 1,10,-1
86 559 m 1,14,-1
 86 713 l 1,15,-1
 250 713 l 1,16,-1
 250 559 l 1,17,-1
 86 559 l 1,14,-1
EndSplineSet
EndChar

StartChar: Amacron
Encoding: 256 256 193
Width: 639
GlyphClass: 2
Flags: W
LayerCount: 2
Fore
SplineSet
-5 0 m 1,0,-1
 143 670 l 1,1,-1
 494 670 l 1,2,-1
 645 0 l 1,3,-1
 411 0 l 1,4,-1
 392 77 l 1,5,-1
 239 77 l 1,6,-1
 223 0 l 1,7,-1
 -5 0 l 1,0,-1
307 488 m 1,8,-1
 269 254 l 1,9,-1
 368 254 l 1,10,-1
 332 488 l 1,11,-1
 307 488 l 1,8,-1
159 713 m 1,12,-1
 159 849 l 1,13,-1
 480 849 l 1,14,-1
 480 713 l 1,15,-1
 159 713 l 1,12,-1
EndSplineSet
Position2: "'cpsp' Capital Spacing in Latin lookup 0 subtable" dx=5 dy=0 dh=10 dv=0
EndChar

StartChar: amacron
Encoding: 257 257 194
Width: 557
GlyphClass: 2
Flags: W
LayerCount: 2
Fore
SplineSet
518 342 m 2,0,-1
 518 152 l 1,1,2
 527 145 527 145 542 141 c 1,3,-1
 539 -1 l 1,4,5
 461 -13 461 -13 432 -13 c 128,-1,6
 403 -13 403 -13 379 -4.5 c 128,-1,7
 355 4 355 4 347 13 c 2,8,-1
 339 22 l 1,9,10
 277 -13 277 -13 188.5 -13 c 128,-1,11
 100 -13 100 -13 55 27.5 c 128,-1,12
 10 68 10 68 10 158 c 128,-1,13
 10 248 10 248 61 278.5 c 128,-1,14
 112 309 112 309 222 313 c 2,15,-1
 294 316 l 1,16,-1
 294 325 l 2,17,18
 294 344 294 344 252 344 c 0,19,20
 161 344 161 344 70 334 c 1,21,-1
 37 331 l 1,22,-1
 32 483 l 1,23,24
 164 518 164 518 273 518 c 0,25,26
 387 518 387 518 450 484 c 0,27,28
 518 448 518 448 518 342 c 2,0,-1
256 141 m 0,29,30
 275 141 275 141 294 156 c 1,31,-1
 294 193 l 1,32,-1
 260 191 l 2,33,34
 234 189 234 189 234 165 c 128,-1,35
 234 141 234 141 256 141 c 0,29,30
113 563 m 1,36,-1
 113 707 l 1,37,-1
 440 707 l 1,38,-1
 440 563 l 1,39,-1
 113 563 l 1,36,-1
EndSplineSet
EndChar

StartChar: Abreve
Encoding: 258 258 195
Width: 639
GlyphClass: 2
Flags: W
LayerCount: 2
Fore
SplineSet
-5 0 m 1,0,-1
 143 670 l 1,1,-1
 494 670 l 1,2,-1
 645 0 l 1,3,-1
 411 0 l 1,4,-1
 392 77 l 1,5,-1
 239 77 l 1,6,-1
 223 0 l 1,7,-1
 -5 0 l 1,0,-1
307 488 m 1,8,-1
 269 254 l 1,9,-1
 368 254 l 1,10,-1
 332 488 l 1,11,-1
 307 488 l 1,8,-1
320 712 m 128,-1,13
 234 712 234 712 197 754.5 c 128,-1,14
 160 797 160 797 160 862 c 1,15,-1
 276 872 l 1,16,17
 281 827 281 827 320 827 c 128,-1,18
 359 827 359 827 364 872 c 1,19,-1
 480 862 l 1,20,21
 480 797 480 797 443 754.5 c 128,-1,12
 406 712 406 712 320 712 c 128,-1,13
EndSplineSet
Position2: "'cpsp' Capital Spacing in Latin lookup 0 subtable" dx=5 dy=0 dh=10 dv=0
EndChar

StartChar: abreve
Encoding: 259 259 196
Width: 557
GlyphClass: 2
Flags: W
LayerCount: 2
Fore
SplineSet
518 342 m 2,0,-1
 518 152 l 1,1,2
 527 145 527 145 542 141 c 1,3,-1
 539 -1 l 1,4,5
 461 -13 461 -13 432 -13 c 128,-1,6
 403 -13 403 -13 379 -4.5 c 128,-1,7
 355 4 355 4 347 13 c 2,8,-1
 339 22 l 1,9,10
 277 -13 277 -13 188.5 -13 c 128,-1,11
 100 -13 100 -13 55 27.5 c 128,-1,12
 10 68 10 68 10 158 c 128,-1,13
 10 248 10 248 61 278.5 c 128,-1,14
 112 309 112 309 222 313 c 2,15,-1
 294 316 l 1,16,-1
 294 325 l 2,17,18
 294 344 294 344 252 344 c 0,19,20
 161 344 161 344 70 334 c 1,21,-1
 37 331 l 1,22,-1
 32 483 l 1,23,24
 164 518 164 518 273 518 c 0,25,26
 387 518 387 518 450 484 c 0,27,28
 518 448 518 448 518 342 c 2,0,-1
256 141 m 0,29,30
 275 141 275 141 294 156 c 1,31,-1
 294 193 l 1,32,-1
 260 191 l 2,33,34
 234 189 234 189 234 165 c 128,-1,35
 234 141 234 141 256 141 c 0,29,30
272 548 m 128,-1,37
 112 548 112 548 112 708 c 1,38,-1
 228 718 l 1,39,40
 233 673 233 673 272 673 c 128,-1,41
 311 673 311 673 316 718 c 1,42,-1
 432 708 l 1,43,36
 432 548 432 548 272 548 c 128,-1,37
EndSplineSet
EndChar

StartChar: Aogonek
Encoding: 260 260 197
Width: 639
GlyphClass: 2
Flags: W
LayerCount: 2
Fore
SplineSet
508 -219 m 0,0,1
 353 -219 353 -219 353 -103 c 0,2,3
 353 -39 353 -39 411 0 c 1,4,-1
 392 77 l 1,5,-1
 239 77 l 1,6,-1
 223 0 l 1,7,-1
 -5 0 l 1,8,-1
 143 670 l 1,9,-1
 494 670 l 1,10,-1
 645 1 l 1,11,-1
 645 0 l 1,12,-1
 643 0 l 1,13,14
 614 -14 614 -14 588.5 -40.5 c 128,-1,15
 563 -67 563 -67 563 -82 c 0,16,17
 563 -104 563 -104 585 -104 c 1,18,-1
 631 -100 l 1,19,-1
 644 -204 l 1,20,21
 595 -219 595 -219 508 -219 c 0,0,1
307 488 m 1,22,-1
 269 254 l 1,23,-1
 368 254 l 1,24,-1
 332 488 l 1,25,-1
 307 488 l 1,22,-1
EndSplineSet
Position2: "'cpsp' Capital Spacing in Latin lookup 0 subtable" dx=5 dy=0 dh=10 dv=0
EndChar

StartChar: aogonek
Encoding: 261 261 198
Width: 557
GlyphClass: 2
Flags: W
LayerCount: 2
Fore
SplineSet
406 -220 m 0,0,1
 251 -220 251 -220 251 -104 c 0,2,3
 251 -26 251 -26 341 19 c 1,4,-1
 339 22 l 1,5,6
 277 -13 277 -13 188.5 -13 c 128,-1,7
 100 -13 100 -13 55 27.5 c 128,-1,8
 10 68 10 68 10 158 c 128,-1,9
 10 248 10 248 61 278.5 c 128,-1,10
 112 309 112 309 222 313 c 2,11,-1
 294 316 l 1,12,-1
 294 325 l 2,13,14
 294 344 294 344 252 344 c 0,15,16
 161 344 161 344 70 334 c 1,17,-1
 37 331 l 1,18,-1
 32 483 l 1,19,20
 164 518 164 518 273 518 c 0,21,22
 387 518 387 518 450 484 c 0,23,24
 518 448 518 448 518 342 c 2,25,-1
 518 152 l 1,26,27
 527 145 527 145 542 141 c 1,28,-1
 539 -1 l 1,29,30
 527 -3 527 -3 512 -5 c 1,31,32
 461 -54 461 -54 461 -79.5 c 128,-1,33
 461 -105 461 -105 483 -105 c 1,34,-1
 529 -101 l 1,35,-1
 542 -205 l 1,36,37
 493 -220 493 -220 406 -220 c 0,0,1
256 141 m 0,38,39
 275 141 275 141 294 156 c 1,40,-1
 294 193 l 1,41,-1
 260 191 l 2,42,43
 234 189 234 189 234 165 c 128,-1,44
 234 141 234 141 256 141 c 0,38,39
EndSplineSet
EndChar

StartChar: Cacute
Encoding: 262 262 199
Width: 533
GlyphClass: 2
Flags: W
LayerCount: 2
Fore
SplineSet
519 13 m 1,0,1
 413 -13 413 -13 302 -13 c 128,-1,2
 191 -13 191 -13 131 18.5 c 128,-1,3
 71 50 71 50 44.5 124 c 128,-1,4
 18 198 18 198 18 337 c 0,5,6
 18 536 18 536 79.5 609.5 c 128,-1,7
 141 683 141 683 314 683 c 0,8,9
 386 683 386 683 484 663 c 2,10,-1
 519 656 l 1,11,-1
 513 477 l 1,12,13
 431 487 431 487 361.5 487 c 128,-1,14
 292 487 292 487 272 460.5 c 128,-1,15
 252 434 252 434 252 351 c 128,-1,16
 252 268 252 268 261.5 236 c 128,-1,17
 271 204 271 204 292 193.5 c 128,-1,18
 313 183 313 183 360 183 c 1,19,-1
 516 189 l 1,20,-1
 519 13 l 1,0,1
221 849 m 1,21,-1
 463 849 l 1,22,-1
 354 713 l 1,23,-1
 178 713 l 1,24,-1
 221 849 l 1,21,-1
EndSplineSet
Position2: "'cpsp' Capital Spacing in Latin lookup 0 subtable" dx=5 dy=0 dh=10 dv=0
EndChar

StartChar: cacute
Encoding: 263 263 200
Width: 465
GlyphClass: 2
Flags: W
LayerCount: 2
Fore
SplineSet
266 518 m 0,0,1
 335 518 335 518 419 498 c 1,2,-1
 447 492 l 1,3,-1
 440 315 l 1,4,5
 337 323 337 323 302 323 c 128,-1,6
 267 323 267 323 254.5 307.5 c 128,-1,7
 242 292 242 292 242 252.5 c 128,-1,8
 242 213 242 213 254.5 198 c 128,-1,9
 267 183 267 183 299 183 c 1,10,-1
 442 190 l 1,11,-1
 449 15 l 1,12,13
 353 -13 353 -13 266 -13 c 0,14,15
 122 -13 122 -13 69 46.5 c 128,-1,16
 16 106 16 106 16 254.5 c 128,-1,17
 16 403 16 403 73 460.5 c 128,-1,18
 130 518 130 518 266 518 c 0,0,1
161 723 m 1,19,-1
 398 723 l 1,20,-1
 289 557 l 1,21,-1
 118 557 l 1,22,-1
 161 723 l 1,19,-1
EndSplineSet
EndChar

StartChar: Ccircumflex
Encoding: 264 264 201
Width: 533
GlyphClass: 2
Flags: W
LayerCount: 2
Fore
SplineSet
519 13 m 1,0,1
 413 -13 413 -13 302 -13 c 128,-1,2
 191 -13 191 -13 131 18.5 c 128,-1,3
 71 50 71 50 44.5 124 c 128,-1,4
 18 198 18 198 18 337 c 0,5,6
 18 536 18 536 79.5 609.5 c 128,-1,7
 141 683 141 683 314 683 c 0,8,9
 386 683 386 683 484 663 c 2,10,-1
 519 656 l 1,11,-1
 513 477 l 1,12,13
 431 487 431 487 361.5 487 c 128,-1,14
 292 487 292 487 272 460.5 c 128,-1,15
 252 434 252 434 252 351 c 128,-1,16
 252 268 252 268 261.5 236 c 128,-1,17
 271 204 271 204 292 193.5 c 128,-1,18
 313 183 313 183 360 183 c 1,19,-1
 516 189 l 1,20,-1
 519 13 l 1,0,1
106 713 m 1,21,-1
 207 849 l 1,22,-1
 359 849 l 1,23,-1
 471 713 l 1,24,-1
 302 713 l 1,25,-1
 287 775 l 1,26,-1
 275 713 l 1,27,-1
 106 713 l 1,21,-1
EndSplineSet
Position2: "'cpsp' Capital Spacing in Latin lookup 0 subtable" dx=5 dy=0 dh=10 dv=0
EndChar

StartChar: ccircumflex
Encoding: 265 265 202
Width: 465
GlyphClass: 2
Flags: W
LayerCount: 2
Fore
SplineSet
266 518 m 0,0,1
 335 518 335 518 419 498 c 1,2,-1
 447 492 l 1,3,-1
 440 315 l 1,4,5
 337 323 337 323 302 323 c 128,-1,6
 267 323 267 323 254.5 307.5 c 128,-1,7
 242 292 242 292 242 252.5 c 128,-1,8
 242 213 242 213 254.5 198 c 128,-1,9
 267 183 267 183 299 183 c 1,10,-1
 442 190 l 1,11,-1
 449 15 l 1,12,13
 353 -13 353 -13 266 -13 c 0,14,15
 122 -13 122 -13 69 46.5 c 128,-1,16
 16 106 16 106 16 254.5 c 128,-1,17
 16 403 16 403 73 460.5 c 128,-1,18
 130 518 130 518 266 518 c 0,0,1
57 557 m 1,19,-1
 148 723 l 1,20,-1
 306 723 l 1,21,-1
 408 557 l 1,22,-1
 246 557 l 1,23,-1
 231 629 l 1,24,-1
 219 557 l 1,25,-1
 57 557 l 1,19,-1
EndSplineSet
EndChar

StartChar: Cdotaccent
Encoding: 266 266 203
Width: 533
GlyphClass: 2
Flags: W
LayerCount: 2
Fore
SplineSet
519 13 m 1,0,1
 413 -13 413 -13 302 -13 c 128,-1,2
 191 -13 191 -13 131 18.5 c 128,-1,3
 71 50 71 50 44.5 124 c 128,-1,4
 18 198 18 198 18 337 c 0,5,6
 18 536 18 536 79.5 609.5 c 128,-1,7
 141 683 141 683 314 683 c 0,8,9
 386 683 386 683 484 663 c 2,10,-1
 519 656 l 1,11,-1
 513 477 l 1,12,13
 431 487 431 487 361.5 487 c 128,-1,14
 292 487 292 487 272 460.5 c 128,-1,15
 252 434 252 434 252 351 c 128,-1,16
 252 268 252 268 261.5 236 c 128,-1,17
 271 204 271 204 292 193.5 c 128,-1,18
 313 183 313 183 360 183 c 1,19,-1
 516 189 l 1,20,-1
 519 13 l 1,0,1
188 713 m 1,21,-1
 188 856 l 1,22,-1
 368 856 l 1,23,-1
 368 713 l 1,24,-1
 188 713 l 1,21,-1
EndSplineSet
Position2: "'cpsp' Capital Spacing in Latin lookup 0 subtable" dx=5 dy=0 dh=10 dv=0
EndChar

StartChar: cdotaccent
Encoding: 267 267 204
Width: 465
GlyphClass: 2
Flags: W
LayerCount: 2
Fore
SplineSet
266 518 m 0,0,1
 335 518 335 518 419 498 c 1,2,-1
 447 492 l 1,3,-1
 440 315 l 1,4,5
 337 323 337 323 302 323 c 128,-1,6
 267 323 267 323 254.5 307.5 c 128,-1,7
 242 292 242 292 242 252.5 c 128,-1,8
 242 213 242 213 254.5 198 c 128,-1,9
 267 183 267 183 299 183 c 1,10,-1
 442 190 l 1,11,-1
 449 15 l 1,12,13
 353 -13 353 -13 266 -13 c 0,14,15
 122 -13 122 -13 69 46.5 c 128,-1,16
 16 106 16 106 16 254.5 c 128,-1,17
 16 403 16 403 73 460.5 c 128,-1,18
 130 518 130 518 266 518 c 0,0,1
149 563 m 1,19,-1
 149 716 l 1,20,-1
 335 716 l 1,21,-1
 335 563 l 1,22,-1
 149 563 l 1,19,-1
EndSplineSet
EndChar

StartChar: Ccaron
Encoding: 268 268 205
Width: 533
GlyphClass: 2
Flags: W
LayerCount: 2
Fore
SplineSet
519 13 m 1,0,1
 413 -13 413 -13 302 -13 c 128,-1,2
 191 -13 191 -13 131 18.5 c 128,-1,3
 71 50 71 50 44.5 124 c 128,-1,4
 18 198 18 198 18 337 c 0,5,6
 18 536 18 536 79.5 609.5 c 128,-1,7
 141 683 141 683 314 683 c 0,8,9
 386 683 386 683 484 663 c 2,10,-1
 519 656 l 1,11,-1
 513 477 l 1,12,13
 431 487 431 487 361.5 487 c 128,-1,14
 292 487 292 487 272 460.5 c 128,-1,15
 252 434 252 434 252 351 c 128,-1,16
 252 268 252 268 261.5 236 c 128,-1,17
 271 204 271 204 292 193.5 c 128,-1,18
 313 183 313 183 360 183 c 1,19,-1
 516 189 l 1,20,-1
 519 13 l 1,0,1
197 712 m 1,21,-1
 96 848 l 1,22,-1
 265 848 l 1,23,-1
 279 786 l 1,24,-1
 292 848 l 1,25,-1
 461 848 l 1,26,-1
 349 712 l 1,27,-1
 197 712 l 1,21,-1
EndSplineSet
Position2: "'cpsp' Capital Spacing in Latin lookup 0 subtable" dx=5 dy=0 dh=10 dv=0
EndChar

StartChar: ccaron
Encoding: 269 269 206
Width: 465
GlyphClass: 2
Flags: W
LayerCount: 2
Fore
SplineSet
266 518 m 0,0,1
 335 518 335 518 419 498 c 1,2,-1
 447 492 l 1,3,-1
 440 315 l 1,4,5
 337 323 337 323 302 323 c 128,-1,6
 267 323 267 323 254.5 307.5 c 128,-1,7
 242 292 242 292 242 252.5 c 128,-1,8
 242 213 242 213 254.5 198 c 128,-1,9
 267 183 267 183 299 183 c 1,10,-1
 442 190 l 1,11,-1
 449 15 l 1,12,13
 353 -13 353 -13 266 -13 c 0,14,15
 122 -13 122 -13 69 46.5 c 128,-1,16
 16 106 16 106 16 254.5 c 128,-1,17
 16 403 16 403 73 460.5 c 128,-1,18
 130 518 130 518 266 518 c 0,0,1
148 557 m 1,19,-1
 57 723 l 1,20,-1
 219 723 l 1,21,-1
 233 651 l 1,22,-1
 246 723 l 1,23,-1
 408 723 l 1,24,-1
 306 557 l 1,25,-1
 148 557 l 1,19,-1
EndSplineSet
EndChar

StartChar: Dcaron
Encoding: 270 270 207
Width: 654
GlyphClass: 2
Flags: W
LayerCount: 2
Fore
SplineSet
323 0 m 2,0,-1
 30 0 l 1,1,-1
 30 670 l 1,2,-1
 313 670 l 2,3,4
 486 670 486 670 562 592 c 128,-1,5
 638 514 638 514 638 342.5 c 128,-1,6
 638 171 638 171 565 85.5 c 128,-1,7
 492 0 492 0 323 0 c 2,0,-1
385.5 451 m 128,-1,9
 367 481 367 481 303 481 c 2,10,-1
 262 481 l 1,11,-1
 262 189 l 1,12,-1
 303 189 l 2,13,14
 355 189 355 189 380 215 c 0,15,16
 404 241 404 241 404 331 c 128,-1,8
 404 421 404 421 385.5 451 c 128,-1,9
222 712 m 1,17,-1
 121 848 l 1,18,-1
 290 848 l 1,19,-1
 304 786 l 1,20,-1
 317 848 l 1,21,-1
 486 848 l 1,22,-1
 374 712 l 1,23,-1
 222 712 l 1,17,-1
EndSplineSet
Position2: "'cpsp' Capital Spacing in Latin lookup 0 subtable" dx=5 dy=0 dh=10 dv=0
EndChar

StartChar: dcaron
Encoding: 271 271 208
Width: 748
GlyphClass: 2
Flags: W
LayerCount: 2
Fore
SplineSet
581 454 m 1,0,-1
 601 669 l 1,1,-1
 805 669 l 1,2,-1
 743 454 l 1,3,-1
 581 454 l 1,0,-1
542 690 m 1,4,-1
 542 0 l 1,5,-1
 321 0 l 1,6,-1
 319 22 l 1,7,8
 264 -13 264 -13 214 -13 c 0,9,10
 104 -13 104 -13 60 54.5 c 128,-1,11
 16 122 16 122 16 252 c 0,12,13
 16 518 16 518 237 518 c 1,14,-1
 318 512 l 1,15,-1
 318 690 l 1,16,-1
 542 690 l 1,4,-1
286 337 m 0,17,18
 259 337 259 337 250.5 315 c 128,-1,19
 242 293 242 293 242 252.5 c 128,-1,20
 242 212 242 212 251 190 c 128,-1,21
 260 168 260 168 287 168 c 1,22,-1
 318 171 l 1,23,-1
 318 334 l 1,24,25
 296 337 296 337 286 337 c 0,17,18
EndSplineSet
EndChar

StartChar: Dcroat
Encoding: 272 272 209
Width: 661
GlyphClass: 2
Flags: W
LayerCount: 2
Fore
SplineSet
-1 270 m 1,0,-1
 -1 407 l 1,1,-1
 37 407 l 1,2,-1
 37 670 l 1,3,-1
 320 670 l 2,4,5
 493 670 493 670 569 592 c 128,-1,6
 645 514 645 514 645 342.5 c 128,-1,7
 645 171 645 171 572 85.5 c 128,-1,8
 499 0 499 0 330 0 c 2,9,-1
 37 0 l 1,10,-1
 37 270 l 1,11,-1
 -1 270 l 1,0,-1
392.5 451 m 128,-1,13
 374 481 374 481 310 481 c 2,14,-1
 269 481 l 1,15,-1
 269 407 l 1,16,-1
 324 407 l 1,17,-1
 324 270 l 1,18,-1
 269 270 l 1,19,-1
 269 189 l 1,20,-1
 310 189 l 2,21,22
 362 189 362 189 386 215 c 0,23,24
 411 241 411 241 411 331 c 128,-1,12
 411 421 411 421 392.5 451 c 128,-1,13
EndSplineSet
Position2: "'cpsp' Capital Spacing in Latin lookup 0 subtable" dx=5 dy=0 dh=10 dv=0
EndChar

StartChar: dcroat
Encoding: 273 273 210
Width: 570
GlyphClass: 2
Flags: W
LayerCount: 2
Fore
SplineSet
542 690 m 1,0,-1
 542 652 l 1,1,-1
 582 652 l 1,2,-1
 582 545 l 1,3,-1
 542 545 l 1,4,-1
 542 0 l 1,5,-1
 321 0 l 1,6,-1
 319 22 l 1,7,8
 264 -13 264 -13 214 -13 c 0,9,10
 104 -13 104 -13 60 54.5 c 128,-1,11
 16 122 16 122 16 252 c 0,12,13
 16 518 16 518 237 518 c 1,14,-1
 318 512 l 1,15,-1
 318 545 l 1,16,-1
 257 545 l 1,17,-1
 257 652 l 1,18,-1
 318 652 l 1,19,-1
 318 690 l 1,20,-1
 542 690 l 1,0,-1
286 337 m 0,21,22
 259 337 259 337 250.5 315 c 128,-1,23
 242 293 242 293 242 252.5 c 128,-1,24
 242 212 242 212 251 190 c 128,-1,25
 260 168 260 168 287 168 c 1,26,-1
 318 171 l 1,27,-1
 318 334 l 1,28,29
 296 337 296 337 286 337 c 0,21,22
EndSplineSet
EndChar

StartChar: Emacron
Encoding: 274 274 211
Width: 549
GlyphClass: 2
Flags: W
LayerCount: 2
Fore
SplineSet
30 0 m 1,0,-1
 30 670 l 1,1,-1
 532 670 l 1,2,-1
 532 485 l 1,3,-1
 262 485 l 1,4,-1
 262 428 l 1,5,-1
 472 428 l 1,6,-1
 472 245 l 1,7,-1
 262 245 l 1,8,-1
 262 185 l 1,9,-1
 532 185 l 1,10,-1
 532 0 l 1,11,-1
 30 0 l 1,0,-1
121 713 m 1,12,-1
 121 849 l 1,13,-1
 442 849 l 1,14,-1
 442 713 l 1,15,-1
 121 713 l 1,12,-1
EndSplineSet
Position2: "'cpsp' Capital Spacing in Latin lookup 0 subtable" dx=5 dy=0 dh=10 dv=0
EndChar

StartChar: emacron
Encoding: 275 275 212
Width: 552
GlyphClass: 2
Flags: W
LayerCount: 2
Fore
SplineSet
239 187 m 1,0,1
 240 152 240 152 284 152 c 0,2,3
 384 152 384 152 484 158 c 1,4,-1
 523 161 l 1,5,-1
 528 16 l 1,6,7
 395 -13 395 -13 263.5 -13 c 128,-1,8
 132 -13 132 -13 73.5 47.5 c 128,-1,9
 15 108 15 108 15 243.5 c 128,-1,10
 15 379 15 379 78 448.5 c 128,-1,11
 141 518 141 518 274.5 518 c 128,-1,12
 408 518 408 518 473 461 c 128,-1,13
 538 404 538 404 538 286 c 1,14,-1
 528 187 l 1,15,-1
 239 187 l 1,0,1
314 309 m 1,16,17
 314 338 314 338 305.5 350 c 128,-1,18
 297 362 297 362 276 362 c 128,-1,19
 255 362 255 362 247 350 c 128,-1,20
 239 338 239 338 238 309 c 1,21,-1
 314 309 l 1,16,17
113 563 m 1,22,-1
 113 707 l 1,23,-1
 440 707 l 1,24,-1
 440 563 l 1,25,-1
 113 563 l 1,22,-1
EndSplineSet
EndChar

StartChar: Ebreve
Encoding: 276 276 213
Width: 549
GlyphClass: 2
Flags: W
LayerCount: 2
Fore
SplineSet
30 0 m 1,0,-1
 30 670 l 1,1,-1
 532 670 l 1,2,-1
 532 485 l 1,3,-1
 262 485 l 1,4,-1
 262 428 l 1,5,-1
 472 428 l 1,6,-1
 472 245 l 1,7,-1
 262 245 l 1,8,-1
 262 185 l 1,9,-1
 532 185 l 1,10,-1
 532 0 l 1,11,-1
 30 0 l 1,0,-1
271 712 m 128,-1,13
 185 712 185 712 148 754.5 c 128,-1,14
 111 797 111 797 111 862 c 1,15,-1
 227 872 l 1,16,17
 232 827 232 827 271 827 c 128,-1,18
 310 827 310 827 315 872 c 1,19,-1
 431 862 l 1,20,21
 431 797 431 797 394 754.5 c 128,-1,12
 357 712 357 712 271 712 c 128,-1,13
EndSplineSet
Position2: "'cpsp' Capital Spacing in Latin lookup 0 subtable" dx=5 dy=0 dh=10 dv=0
EndChar

StartChar: ebreve
Encoding: 277 277 214
Width: 552
GlyphClass: 2
Flags: W
LayerCount: 2
Fore
SplineSet
239 187 m 1,0,1
 240 152 240 152 284 152 c 0,2,3
 384 152 384 152 484 158 c 1,4,-1
 523 161 l 1,5,-1
 528 16 l 1,6,7
 395 -13 395 -13 263.5 -13 c 128,-1,8
 132 -13 132 -13 73.5 47.5 c 128,-1,9
 15 108 15 108 15 243.5 c 128,-1,10
 15 379 15 379 78 448.5 c 128,-1,11
 141 518 141 518 274.5 518 c 128,-1,12
 408 518 408 518 473 461 c 128,-1,13
 538 404 538 404 538 286 c 1,14,-1
 528 187 l 1,15,-1
 239 187 l 1,0,1
314 309 m 1,16,17
 314 338 314 338 305.5 350 c 128,-1,18
 297 362 297 362 276 362 c 128,-1,19
 255 362 255 362 247 350 c 128,-1,20
 239 338 239 338 238 309 c 1,21,-1
 314 309 l 1,16,17
277 548 m 128,-1,23
 117 548 117 548 117 708 c 1,24,-1
 233 718 l 1,25,26
 238 673 238 673 277 673 c 128,-1,27
 316 673 316 673 321 718 c 1,28,-1
 437 708 l 1,29,22
 437 548 437 548 277 548 c 128,-1,23
EndSplineSet
EndChar

StartChar: Edotaccent
Encoding: 278 278 215
Width: 549
GlyphClass: 2
Flags: W
LayerCount: 2
Fore
SplineSet
30 0 m 1,0,-1
 30 670 l 1,1,-1
 532 670 l 1,2,-1
 532 485 l 1,3,-1
 262 485 l 1,4,-1
 262 428 l 1,5,-1
 472 428 l 1,6,-1
 472 245 l 1,7,-1
 262 245 l 1,8,-1
 262 185 l 1,9,-1
 532 185 l 1,10,-1
 532 0 l 1,11,-1
 30 0 l 1,0,-1
191 713 m 1,12,-1
 191 856 l 1,13,-1
 371 856 l 1,14,-1
 371 713 l 1,15,-1
 191 713 l 1,12,-1
EndSplineSet
Position2: "'cpsp' Capital Spacing in Latin lookup 0 subtable" dx=5 dy=0 dh=10 dv=0
EndChar

StartChar: edotaccent
Encoding: 279 279 216
Width: 552
GlyphClass: 2
Flags: W
LayerCount: 2
Fore
SplineSet
239 187 m 1,0,1
 240 152 240 152 284 152 c 0,2,3
 384 152 384 152 484 158 c 1,4,-1
 523 161 l 1,5,-1
 528 16 l 1,6,7
 395 -13 395 -13 263.5 -13 c 128,-1,8
 132 -13 132 -13 73.5 47.5 c 128,-1,9
 15 108 15 108 15 243.5 c 128,-1,10
 15 379 15 379 78 448.5 c 128,-1,11
 141 518 141 518 274.5 518 c 128,-1,12
 408 518 408 518 473 461 c 128,-1,13
 538 404 538 404 538 286 c 1,14,-1
 528 187 l 1,15,-1
 239 187 l 1,0,1
314 309 m 1,16,17
 314 338 314 338 305.5 350 c 128,-1,18
 297 362 297 362 276 362 c 128,-1,19
 255 362 255 362 247 350 c 128,-1,20
 239 338 239 338 238 309 c 1,21,-1
 314 309 l 1,16,17
188 563 m 1,22,-1
 188 716 l 1,23,-1
 374 716 l 1,24,-1
 374 563 l 1,25,-1
 188 563 l 1,22,-1
EndSplineSet
EndChar

StartChar: Eogonek
Encoding: 280 280 217
Width: 549
GlyphClass: 2
Flags: W
LayerCount: 2
Fore
SplineSet
30 0 m 1,0,-1
 30 670 l 1,1,-1
 532 670 l 1,2,-1
 532 485 l 1,3,-1
 262 485 l 1,4,-1
 262 428 l 1,5,-1
 472 428 l 1,6,-1
 472 245 l 1,7,-1
 262 245 l 1,8,-1
 262 185 l 1,9,-1
 532 185 l 1,10,-1
 532 0 l 1,11,-1
 508 0 l 1,12,13
 452 -56 452 -56 452 -80.5 c 128,-1,14
 452 -105 452 -105 474 -105 c 1,15,-1
 520 -101 l 1,16,-1
 533 -205 l 1,17,18
 484 -220 484 -220 397 -220 c 0,19,20
 242 -220 242 -220 242 -104 c 0,21,22
 242 -42 242 -42 300 0 c 1,23,-1
 30 0 l 1,0,-1
EndSplineSet
Position2: "'cpsp' Capital Spacing in Latin lookup 0 subtable" dx=5 dy=0 dh=10 dv=0
EndChar

StartChar: eogonek
Encoding: 281 281 218
Width: 552
GlyphClass: 2
Flags: W
LayerCount: 2
Fore
SplineSet
399 -220 m 0,0,1
 244 -220 244 -220 244 -104 c 0,2,3
 244 -51 244 -51 286 -13 c 1,4,-1
 272 -13 l 2,5,6
 132 -13 132 -13 73.5 47.5 c 128,-1,7
 15 108 15 108 15 243.5 c 128,-1,8
 15 379 15 379 78 448.5 c 128,-1,9
 141 518 141 518 274.5 518 c 128,-1,10
 408 518 408 518 473 461 c 128,-1,11
 538 404 538 404 538 286 c 1,12,-1
 528 187 l 1,13,-1
 239 187 l 1,14,15
 240 152 240 152 284 152 c 0,16,17
 384 152 384 152 484 158 c 1,18,-1
 523 161 l 1,19,-1
 528 16 l 1,20,21
 454 -48 454 -48 454 -83 c 0,22,23
 454 -105 454 -105 476 -105 c 1,24,-1
 522 -101 l 1,25,-1
 535 -205 l 1,26,27
 486 -220 486 -220 399 -220 c 0,0,1
314 309 m 1,28,29
 314 338 314 338 305.5 350 c 128,-1,30
 297 362 297 362 276 362 c 128,-1,31
 255 362 255 362 247 350 c 128,-1,32
 239 338 239 338 238 309 c 1,33,-1
 314 309 l 1,28,29
EndSplineSet
EndChar

StartChar: Ecaron
Encoding: 282 282 219
Width: 549
GlyphClass: 2
Flags: W
LayerCount: 2
Fore
SplineSet
30 0 m 1,0,-1
 30 670 l 1,1,-1
 532 670 l 1,2,-1
 532 485 l 1,3,-1
 262 485 l 1,4,-1
 262 428 l 1,5,-1
 472 428 l 1,6,-1
 472 245 l 1,7,-1
 262 245 l 1,8,-1
 262 185 l 1,9,-1
 532 185 l 1,10,-1
 532 0 l 1,11,-1
 30 0 l 1,0,-1
190 712 m 1,12,-1
 89 848 l 1,13,-1
 258 848 l 1,14,-1
 272 786 l 1,15,-1
 285 848 l 1,16,-1
 454 848 l 1,17,-1
 342 712 l 1,18,-1
 190 712 l 1,12,-1
EndSplineSet
Position2: "'cpsp' Capital Spacing in Latin lookup 0 subtable" dx=5 dy=0 dh=10 dv=0
EndChar

StartChar: ecaron
Encoding: 283 283 220
Width: 552
GlyphClass: 2
Flags: W
LayerCount: 2
Fore
SplineSet
239 187 m 1,0,1
 240 152 240 152 284 152 c 0,2,3
 384 152 384 152 484 158 c 1,4,-1
 523 161 l 1,5,-1
 528 16 l 1,6,7
 395 -13 395 -13 263.5 -13 c 128,-1,8
 132 -13 132 -13 73.5 47.5 c 128,-1,9
 15 108 15 108 15 243.5 c 128,-1,10
 15 379 15 379 78 448.5 c 128,-1,11
 141 518 141 518 274.5 518 c 128,-1,12
 408 518 408 518 473 461 c 128,-1,13
 538 404 538 404 538 286 c 1,14,-1
 528 187 l 1,15,-1
 239 187 l 1,0,1
314 309 m 1,16,17
 314 338 314 338 305.5 350 c 128,-1,18
 297 362 297 362 276 362 c 128,-1,19
 255 362 255 362 247 350 c 128,-1,20
 239 338 239 338 238 309 c 1,21,-1
 314 309 l 1,16,17
192 557 m 1,22,-1
 101 723 l 1,23,-1
 263 723 l 1,24,-1
 277 651 l 1,25,-1
 290 723 l 1,26,-1
 452 723 l 1,27,-1
 350 557 l 1,28,-1
 192 557 l 1,22,-1
EndSplineSet
EndChar

StartChar: Gcircumflex
Encoding: 284 284 221
Width: 619
GlyphClass: 2
Flags: W
LayerCount: 2
Fore
SplineSet
592 394 m 1,0,-1
 592 20 l 1,1,2
 411 -9 411 -9 324 -9 c 128,-1,3
 237 -9 237 -9 175.5 10.5 c 128,-1,4
 114 30 114 30 79 75 c 128,-1,5
 44 120 44 120 30.5 181 c 128,-1,6
 17 242 17 242 17 336 c 0,7,8
 17 529 17 529 89 606 c 128,-1,9
 161 683 161 683 332 683 c 0,10,11
 383 683 383 683 447 674.5 c 128,-1,12
 511 666 511 666 549 658 c 2,13,-1
 587 649 l 1,14,-1
 587 474 l 1,15,16
 443 487 443 487 382.5 487 c 128,-1,17
 322 487 322 487 303.5 481.5 c 128,-1,18
 285 476 285 476 274 468.5 c 128,-1,19
 263 461 263 461 258 439 c 0,20,21
 251 408 251 408 251 330 c 128,-1,22
 251 252 251 252 269 216.5 c 128,-1,23
 287 181 287 181 342 181 c 1,24,-1
 376 182 l 1,25,-1
 376 232 l 1,26,-1
 346 232 l 1,27,-1
 345 394 l 1,28,-1
 592 394 l 1,0,-1
142 713 m 1,29,-1
 243 849 l 1,30,-1
 395 849 l 1,31,-1
 507 713 l 1,32,-1
 338 713 l 1,33,-1
 323 775 l 1,34,-1
 311 713 l 1,35,-1
 142 713 l 1,29,-1
EndSplineSet
Position2: "'cpsp' Capital Spacing in Latin lookup 0 subtable" dx=5 dy=0 dh=10 dv=0
EndChar

StartChar: gcircumflex
Encoding: 285 285 222
Width: 562
GlyphClass: 2
Flags: W
LayerCount: 2
Fore
SplineSet
92 -196 m 1,0,1
 12 -170 12 -170 12 -81 c 0,2,3
 12 -45 12 -45 26 -17 c 128,-1,4
 40 11 40 11 76 39 c 1,5,6
 40 64 40 64 40 114 c 0,7,8
 40 125 40 125 54.5 143.5 c 128,-1,9
 69 162 69 162 84 174 c 1,10,-1
 98 187 l 1,11,12
 17 225 17 225 17 331 c 128,-1,13
 17 437 17 437 74.5 477.5 c 128,-1,14
 132 518 132 518 265 518 c 0,15,16
 298 518 298 518 352 510 c 1,17,-1
 368 507 l 1,18,-1
 553 510 l 1,19,-1
 553 379 l 1,20,-1
 506 379 l 1,21,22
 515 354 515 354 515 338 c 0,23,24
 515 230 515 230 460 193.5 c 128,-1,25
 405 157 405 157 273 157 c 0,26,27
 253 157 253 157 235 160 c 1,28,29
 231 154 231 154 231 148 c 0,30,31
 231 138 231 138 349 138 c 128,-1,32
 467 138 467 138 508.5 103 c 128,-1,33
 550 68 550 68 550 -24.5 c 128,-1,34
 550 -117 550 -117 482 -168.5 c 128,-1,35
 414 -220 414 -220 288 -220 c 128,-1,36
 162 -220 162 -220 92 -196 c 1,0,1
195 -53 m 0,37,38
 195 -66 195 -66 271 -66 c 128,-1,39
 347 -66 347 -66 347 -50 c 0,40,41
 347 -40 347 -40 334 -37.5 c 128,-1,42
 321 -35 321 -35 281 -35 c 1,43,-1
 204 -31 l 1,44,45
 195 -36 195 -36 195 -53 c 0,37,38
266 303 m 128,-1,47
 287 303 287 303 296 311 c 128,-1,48
 305 319 305 319 305 339 c 128,-1,49
 305 359 305 359 296 367 c 128,-1,50
 287 375 287 375 266 375 c 128,-1,51
 245 375 245 375 236 367 c 128,-1,52
 227 359 227 359 227 339 c 128,-1,53
 227 319 227 319 236 311 c 128,-1,46
 245 303 245 303 266 303 c 128,-1,47
107 557 m 1,54,-1
 198 723 l 1,55,-1
 356 723 l 1,56,-1
 458 557 l 1,57,-1
 296 557 l 1,58,-1
 281 629 l 1,59,-1
 269 557 l 1,60,-1
 107 557 l 1,54,-1
EndSplineSet
EndChar

StartChar: Gbreve
Encoding: 286 286 223
Width: 619
GlyphClass: 2
Flags: W
LayerCount: 2
Fore
SplineSet
592 394 m 1,0,-1
 592 20 l 1,1,2
 411 -9 411 -9 324 -9 c 128,-1,3
 237 -9 237 -9 175.5 10.5 c 128,-1,4
 114 30 114 30 79 75 c 128,-1,5
 44 120 44 120 30.5 181 c 128,-1,6
 17 242 17 242 17 336 c 0,7,8
 17 529 17 529 89 606 c 128,-1,9
 161 683 161 683 332 683 c 0,10,11
 383 683 383 683 447 674.5 c 128,-1,12
 511 666 511 666 549 658 c 2,13,-1
 587 649 l 1,14,-1
 587 474 l 1,15,16
 443 487 443 487 382.5 487 c 128,-1,17
 322 487 322 487 303.5 481.5 c 128,-1,18
 285 476 285 476 274 468.5 c 128,-1,19
 263 461 263 461 258 439 c 0,20,21
 251 408 251 408 251 330 c 128,-1,22
 251 252 251 252 269 216.5 c 128,-1,23
 287 181 287 181 342 181 c 1,24,-1
 376 182 l 1,25,-1
 376 232 l 1,26,-1
 346 232 l 1,27,-1
 345 394 l 1,28,-1
 592 394 l 1,0,-1
324 712 m 128,-1,30
 238 712 238 712 201 754.5 c 128,-1,31
 164 797 164 797 164 862 c 1,32,-1
 280 872 l 1,33,34
 285 827 285 827 324 827 c 128,-1,35
 363 827 363 827 368 872 c 1,36,-1
 484 862 l 1,37,38
 484 797 484 797 447 754.5 c 128,-1,29
 410 712 410 712 324 712 c 128,-1,30
EndSplineSet
Position2: "'cpsp' Capital Spacing in Latin lookup 0 subtable" dx=5 dy=0 dh=10 dv=0
EndChar

StartChar: gbreve
Encoding: 287 287 224
Width: 562
GlyphClass: 2
Flags: W
LayerCount: 2
Fore
SplineSet
92 -196 m 1,0,1
 12 -170 12 -170 12 -81 c 0,2,3
 12 -45 12 -45 26 -17 c 128,-1,4
 40 11 40 11 76 39 c 1,5,6
 40 64 40 64 40 114 c 0,7,8
 40 125 40 125 54.5 143.5 c 128,-1,9
 69 162 69 162 84 174 c 1,10,-1
 98 187 l 1,11,12
 17 225 17 225 17 331 c 128,-1,13
 17 437 17 437 74.5 477.5 c 128,-1,14
 132 518 132 518 265 518 c 0,15,16
 298 518 298 518 352 510 c 1,17,-1
 368 507 l 1,18,-1
 553 510 l 1,19,-1
 553 379 l 1,20,-1
 506 379 l 1,21,22
 515 354 515 354 515 338 c 0,23,24
 515 230 515 230 460 193.5 c 128,-1,25
 405 157 405 157 273 157 c 0,26,27
 253 157 253 157 235 160 c 1,28,29
 231 154 231 154 231 148 c 0,30,31
 231 138 231 138 349 138 c 128,-1,32
 467 138 467 138 508.5 103 c 128,-1,33
 550 68 550 68 550 -24.5 c 128,-1,34
 550 -117 550 -117 482 -168.5 c 128,-1,35
 414 -220 414 -220 288 -220 c 128,-1,36
 162 -220 162 -220 92 -196 c 1,0,1
195 -53 m 0,37,38
 195 -66 195 -66 271 -66 c 128,-1,39
 347 -66 347 -66 347 -50 c 0,40,41
 347 -40 347 -40 334 -37.5 c 128,-1,42
 321 -35 321 -35 281 -35 c 1,43,-1
 204 -31 l 1,44,45
 195 -36 195 -36 195 -53 c 0,37,38
266 303 m 128,-1,47
 287 303 287 303 296 311 c 128,-1,48
 305 319 305 319 305 339 c 128,-1,49
 305 359 305 359 296 367 c 128,-1,50
 287 375 287 375 266 375 c 128,-1,51
 245 375 245 375 236 367 c 128,-1,52
 227 359 227 359 227 339 c 128,-1,53
 227 319 227 319 236 311 c 128,-1,46
 245 303 245 303 266 303 c 128,-1,47
283 548 m 128,-1,55
 123 548 123 548 123 708 c 1,56,-1
 239 718 l 1,57,58
 244 673 244 673 283 673 c 128,-1,59
 322 673 322 673 327 718 c 1,60,-1
 443 708 l 1,61,54
 443 548 443 548 283 548 c 128,-1,55
EndSplineSet
EndChar

StartChar: Gdotaccent
Encoding: 288 288 225
Width: 619
GlyphClass: 2
Flags: W
LayerCount: 2
Fore
SplineSet
592 394 m 1,0,-1
 592 20 l 1,1,2
 411 -9 411 -9 324 -9 c 128,-1,3
 237 -9 237 -9 175.5 10.5 c 128,-1,4
 114 30 114 30 79 75 c 128,-1,5
 44 120 44 120 30.5 181 c 128,-1,6
 17 242 17 242 17 336 c 0,7,8
 17 529 17 529 89 606 c 128,-1,9
 161 683 161 683 332 683 c 0,10,11
 383 683 383 683 447 674.5 c 128,-1,12
 511 666 511 666 549 658 c 2,13,-1
 587 649 l 1,14,-1
 587 474 l 1,15,16
 443 487 443 487 382.5 487 c 128,-1,17
 322 487 322 487 303.5 481.5 c 128,-1,18
 285 476 285 476 274 468.5 c 128,-1,19
 263 461 263 461 258 439 c 0,20,21
 251 408 251 408 251 330 c 128,-1,22
 251 252 251 252 269 216.5 c 128,-1,23
 287 181 287 181 342 181 c 1,24,-1
 376 182 l 1,25,-1
 376 232 l 1,26,-1
 346 232 l 1,27,-1
 345 394 l 1,28,-1
 592 394 l 1,0,-1
211 706 m 1,29,-1
 211 859 l 1,30,-1
 397 859 l 1,31,-1
 397 706 l 1,32,-1
 211 706 l 1,29,-1
EndSplineSet
Position2: "'cpsp' Capital Spacing in Latin lookup 0 subtable" dx=5 dy=0 dh=10 dv=0
EndChar

StartChar: gdotaccent
Encoding: 289 289 226
Width: 562
GlyphClass: 2
Flags: W
LayerCount: 2
Fore
SplineSet
92 -196 m 1,0,1
 12 -170 12 -170 12 -81 c 0,2,3
 12 -45 12 -45 26 -17 c 128,-1,4
 40 11 40 11 76 39 c 1,5,6
 40 64 40 64 40 114 c 0,7,8
 40 125 40 125 54.5 143.5 c 128,-1,9
 69 162 69 162 84 174 c 1,10,-1
 98 187 l 1,11,12
 17 225 17 225 17 331 c 128,-1,13
 17 437 17 437 74.5 477.5 c 128,-1,14
 132 518 132 518 265 518 c 0,15,16
 298 518 298 518 352 510 c 1,17,-1
 368 507 l 1,18,-1
 553 510 l 1,19,-1
 553 379 l 1,20,-1
 506 379 l 1,21,22
 515 354 515 354 515 338 c 0,23,24
 515 230 515 230 460 193.5 c 128,-1,25
 405 157 405 157 273 157 c 0,26,27
 253 157 253 157 235 160 c 1,28,29
 231 154 231 154 231 148 c 0,30,31
 231 138 231 138 349 138 c 128,-1,32
 467 138 467 138 508.5 103 c 128,-1,33
 550 68 550 68 550 -24.5 c 128,-1,34
 550 -117 550 -117 482 -168.5 c 128,-1,35
 414 -220 414 -220 288 -220 c 128,-1,36
 162 -220 162 -220 92 -196 c 1,0,1
195 -53 m 0,37,38
 195 -66 195 -66 271 -66 c 128,-1,39
 347 -66 347 -66 347 -50 c 0,40,41
 347 -40 347 -40 334 -37.5 c 128,-1,42
 321 -35 321 -35 281 -35 c 1,43,-1
 204 -31 l 1,44,45
 195 -36 195 -36 195 -53 c 0,37,38
266 303 m 128,-1,47
 287 303 287 303 296 311 c 128,-1,48
 305 319 305 319 305 339 c 128,-1,49
 305 359 305 359 296 367 c 128,-1,50
 287 375 287 375 266 375 c 128,-1,51
 245 375 245 375 236 367 c 128,-1,52
 227 359 227 359 227 339 c 128,-1,53
 227 319 227 319 236 311 c 128,-1,46
 245 303 245 303 266 303 c 128,-1,47
189 563 m 1,54,-1
 189 716 l 1,55,-1
 375 716 l 1,56,-1
 375 563 l 1,57,-1
 189 563 l 1,54,-1
EndSplineSet
EndChar

StartChar: Gcommaaccent
Encoding: 290 290 227
Width: 619
GlyphClass: 2
Flags: W
LayerCount: 2
Fore
SplineSet
202 -260 m 1,0,-1
 222 -45 l 1,1,-1
 426 -45 l 1,2,-1
 364 -260 l 1,3,-1
 202 -260 l 1,0,-1
592 394 m 1,4,-1
 592 20 l 1,5,6
 411 -9 411 -9 324 -9 c 128,-1,7
 237 -9 237 -9 175.5 10.5 c 128,-1,8
 114 30 114 30 79 75 c 128,-1,9
 44 120 44 120 30.5 181 c 128,-1,10
 17 242 17 242 17 336 c 0,11,12
 17 529 17 529 89 606 c 128,-1,13
 161 683 161 683 332 683 c 0,14,15
 383 683 383 683 447 674.5 c 128,-1,16
 511 666 511 666 549 658 c 2,17,-1
 587 649 l 1,18,-1
 587 474 l 1,19,20
 443 487 443 487 382.5 487 c 128,-1,21
 322 487 322 487 303.5 481.5 c 128,-1,22
 285 476 285 476 274 468.5 c 128,-1,23
 263 461 263 461 258 439 c 0,24,25
 251 408 251 408 251 330 c 128,-1,26
 251 252 251 252 269 216.5 c 128,-1,27
 287 181 287 181 342 181 c 1,28,-1
 376 182 l 1,29,-1
 376 232 l 1,30,-1
 346 232 l 1,31,-1
 345 394 l 1,32,-1
 592 394 l 1,4,-1
EndSplineSet
Position2: "'cpsp' Capital Spacing in Latin lookup 0 subtable" dx=5 dy=0 dh=10 dv=0
EndChar

StartChar: gcommaaccent
Encoding: 291 291 228
Width: 562
GlyphClass: 2
Flags: W
LayerCount: 2
Fore
SplineSet
390 778 m 1,0,-1
 370 563 l 1,1,-1
 166 563 l 1,2,-1
 228 778 l 1,3,-1
 390 778 l 1,0,-1
92 -196 m 1,4,5
 12 -170 12 -170 12 -81 c 0,6,7
 12 -45 12 -45 26 -17 c 128,-1,8
 40 11 40 11 76 39 c 1,9,10
 40 64 40 64 40 114 c 0,11,12
 40 125 40 125 54.5 143.5 c 128,-1,13
 69 162 69 162 84 174 c 1,14,-1
 98 187 l 1,15,16
 17 225 17 225 17 331 c 128,-1,17
 17 437 17 437 74.5 477.5 c 128,-1,18
 132 518 132 518 265 518 c 0,19,20
 298 518 298 518 352 510 c 1,21,-1
 368 507 l 1,22,-1
 553 510 l 1,23,-1
 553 379 l 1,24,-1
 506 379 l 1,25,26
 515 354 515 354 515 338 c 0,27,28
 515 230 515 230 460 193.5 c 128,-1,29
 405 157 405 157 273 157 c 0,30,31
 253 157 253 157 235 160 c 1,32,33
 231 154 231 154 231 148 c 0,34,35
 231 138 231 138 349 138 c 128,-1,36
 467 138 467 138 508.5 103 c 128,-1,37
 550 68 550 68 550 -24.5 c 128,-1,38
 550 -117 550 -117 482 -168.5 c 128,-1,39
 414 -220 414 -220 288 -220 c 128,-1,40
 162 -220 162 -220 92 -196 c 1,4,5
195 -53 m 0,41,42
 195 -66 195 -66 271 -66 c 128,-1,43
 347 -66 347 -66 347 -50 c 0,44,45
 347 -40 347 -40 334 -37.5 c 128,-1,46
 321 -35 321 -35 281 -35 c 1,47,-1
 204 -31 l 1,48,49
 195 -36 195 -36 195 -53 c 0,41,42
266 303 m 128,-1,51
 287 303 287 303 296 311 c 128,-1,52
 305 319 305 319 305 339 c 128,-1,53
 305 359 305 359 296 367 c 128,-1,54
 287 375 287 375 266 375 c 128,-1,55
 245 375 245 375 236 367 c 128,-1,56
 227 359 227 359 227 339 c 128,-1,57
 227 319 227 319 236 311 c 128,-1,50
 245 303 245 303 266 303 c 128,-1,51
EndSplineSet
EndChar

StartChar: Hcircumflex
Encoding: 292 292 229
Width: 655
GlyphClass: 2
Flags: W
LayerCount: 2
Fore
SplineSet
393 0 m 1,0,-1
 393 234 l 1,1,-1
 262 234 l 1,2,-1
 262 0 l 1,3,-1
 30 0 l 1,4,-1
 30 670 l 1,5,-1
 262 670 l 1,6,-1
 262 423 l 1,7,-1
 393 423 l 1,8,-1
 393 670 l 1,9,-1
 625 670 l 1,10,-1
 625 0 l 1,11,-1
 393 0 l 1,0,-1
145 713 m 1,12,-1
 246 849 l 1,13,-1
 398 849 l 1,14,-1
 510 713 l 1,15,-1
 341 713 l 1,16,-1
 326 775 l 1,17,-1
 314 713 l 1,18,-1
 145 713 l 1,12,-1
EndSplineSet
Position2: "'cpsp' Capital Spacing in Latin lookup 0 subtable" dx=5 dy=0 dh=10 dv=0
EndChar

StartChar: hcircumflex
Encoding: 293 293 230
Width: 578
GlyphClass: 2
Flags: W
LayerCount: 2
Fore
SplineSet
252 0 m 1,0,-1
 28 0 l 1,1,-1
 28 690 l 1,2,-1
 252 690 l 1,3,-1
 252 501 l 1,4,5
 322 518 322 518 359 518 c 0,6,7
 468 518 468 518 511.5 461 c 128,-1,8
 555 404 555 404 555 261 c 2,9,-1
 555 0 l 1,10,-1
 331 0 l 1,11,-1
 331 238 l 2,12,13
 331 325 331 325 293 325 c 1,14,-1
 252 319 l 1,15,-1
 252 0 l 1,0,-1
114 741 m 1,16,-1
 205 907 l 1,17,-1
 363 907 l 1,18,-1
 465 741 l 1,19,-1
 303 741 l 1,20,-1
 288 813 l 1,21,-1
 276 741 l 1,22,-1
 114 741 l 1,16,-1
EndSplineSet
EndChar

StartChar: Hbar
Encoding: 294 294 231
Width: 659
GlyphClass: 2
Flags: W
LayerCount: 2
Fore
SplineSet
4 473 m 1,0,-1
 4 605 l 1,1,-1
 32 605 l 1,2,-1
 32 670 l 1,3,-1
 264 670 l 1,4,-1
 264 605 l 1,5,-1
 395 605 l 1,6,-1
 395 670 l 1,7,-1
 627 670 l 1,8,-1
 627 605 l 1,9,-1
 655 605 l 1,10,-1
 655 473 l 1,11,-1
 627 473 l 1,12,-1
 627 0 l 1,13,-1
 395 0 l 1,14,-1
 395 234 l 1,15,-1
 264 234 l 1,16,-1
 264 0 l 1,17,-1
 32 0 l 1,18,-1
 32 473 l 1,19,-1
 4 473 l 1,0,-1
264 423 m 1,20,-1
 395 423 l 1,21,-1
 395 473 l 1,22,-1
 264 473 l 1,23,-1
 264 423 l 1,20,-1
EndSplineSet
Position2: "'cpsp' Capital Spacing in Latin lookup 0 subtable" dx=5 dy=0 dh=10 dv=0
EndChar

StartChar: hbar
Encoding: 295 295 232
Width: 578
GlyphClass: 2
Flags: W
LayerCount: 2
Fore
SplineSet
252 0 m 1,0,-1
 28 0 l 1,1,-1
 28 545 l 1,2,-1
 -12 545 l 1,3,-1
 -12 652 l 1,4,-1
 28 652 l 1,5,-1
 28 690 l 1,6,-1
 252 690 l 1,7,-1
 252 652 l 1,8,-1
 313 652 l 1,9,-1
 313 545 l 1,10,-1
 252 545 l 1,11,-1
 252 501 l 1,12,13
 322 518 322 518 359 518 c 0,14,15
 468 518 468 518 511.5 461 c 128,-1,16
 555 404 555 404 555 261 c 2,17,-1
 555 0 l 1,18,-1
 331 0 l 1,19,-1
 331 238 l 2,20,21
 331 325 331 325 293 325 c 1,22,-1
 252 319 l 1,23,-1
 252 0 l 1,0,-1
EndSplineSet
EndChar

StartChar: Itilde
Encoding: 296 296 233
Width: 292
GlyphClass: 2
Flags: W
LayerCount: 2
Fore
SplineSet
30 0 m 1,0,-1
 30 670 l 1,1,-1
 262 670 l 1,2,-1
 262 0 l 1,3,-1
 30 0 l 1,0,-1
274 728 m 128,-1,5
 246 712 246 712 220 712 c 128,-1,6
 194 712 194 712 140.5 729 c 128,-1,7
 87 746 87 746 74 746 c 0,8,9
 47 746 47 746 7 728 c 1,10,-1
 -7 721 l 1,11,-1
 -36 827 l 1,12,13
 -19 847 -19 847 14 866.5 c 128,-1,14
 47 886 47 886 76.5 886 c 128,-1,15
 106 886 106 886 157 870 c 128,-1,16
 208 854 208 854 219 854 c 0,17,18
 239 854 239 854 286 872 c 1,19,-1
 300 877 l 1,20,-1
 329 770 l 1,21,22
 323 764 323 764 312.5 754 c 128,-1,4
 302 744 302 744 274 728 c 128,-1,5
EndSplineSet
Position2: "'cpsp' Capital Spacing in Latin lookup 0 subtable" dx=5 dy=0 dh=10 dv=0
EndChar

StartChar: itilde
Encoding: 297 297 234
Width: 280
GlyphClass: 2
Flags: W
LayerCount: 2
Fore
SplineSet
28 0 m 1,0,-1
 28 505 l 1,1,-1
 252 505 l 1,2,-1
 252 0 l 1,3,-1
 28 0 l 1,0,-1
214 547 m 128,-1,5
 188 547 188 547 134.5 569 c 128,-1,6
 81 591 81 591 68 591 c 0,7,8
 43 591 43 591 1 561 c 2,9,-1
 -13 551 l 1,10,-1
 -42 667 l 1,11,12
 -22 691 -22 691 9.5 711 c 128,-1,13
 41 731 41 731 70.5 731 c 128,-1,14
 100 731 100 731 151 709.5 c 128,-1,15
 202 688 202 688 213 688 c 0,16,17
 234 688 234 688 280 718 c 2,18,-1
 294 727 l 1,19,-1
 323 610 l 1,20,21
 302 586 302 586 271 566.5 c 128,-1,4
 240 547 240 547 214 547 c 128,-1,5
EndSplineSet
EndChar

StartChar: Imacron
Encoding: 298 298 235
Width: 292
GlyphClass: 2
Flags: W
LayerCount: 2
Fore
SplineSet
30 0 m 1,0,-1
 30 670 l 1,1,-1
 262 670 l 1,2,-1
 262 0 l 1,3,-1
 30 0 l 1,0,-1
-14 713 m 1,4,-1
 -14 849 l 1,5,-1
 307 849 l 1,6,-1
 307 713 l 1,7,-1
 -14 713 l 1,4,-1
EndSplineSet
Position2: "'cpsp' Capital Spacing in Latin lookup 0 subtable" dx=5 dy=0 dh=10 dv=0
EndChar

StartChar: imacron
Encoding: 299 299 236
Width: 280
GlyphClass: 2
Flags: W
LayerCount: 2
Fore
SplineSet
28 0 m 1,0,-1
 28 505 l 1,1,-1
 252 505 l 1,2,-1
 252 0 l 1,3,-1
 28 0 l 1,0,-1
-27 563 m 1,4,-1
 -27 707 l 1,5,-1
 300 707 l 1,6,-1
 300 563 l 1,7,-1
 -27 563 l 1,4,-1
EndSplineSet
EndChar

StartChar: Ibreve
Encoding: 300 300 237
Width: 292
GlyphClass: 2
Flags: W
LayerCount: 2
Fore
SplineSet
30 0 m 1,0,-1
 30 670 l 1,1,-1
 262 670 l 1,2,-1
 262 0 l 1,3,-1
 30 0 l 1,0,-1
146 712 m 128,-1,5
 60 712 60 712 23 754.5 c 128,-1,6
 -14 797 -14 797 -14 862 c 1,7,-1
 102 872 l 1,8,9
 107 827 107 827 146 827 c 128,-1,10
 185 827 185 827 190 872 c 1,11,-1
 306 862 l 1,12,13
 306 797 306 797 269 754.5 c 128,-1,4
 232 712 232 712 146 712 c 128,-1,5
EndSplineSet
Position2: "'cpsp' Capital Spacing in Latin lookup 0 subtable" dx=5 dy=0 dh=10 dv=0
EndChar

StartChar: ibreve
Encoding: 301 301 238
Width: 280
GlyphClass: 2
Flags: W
LayerCount: 2
Fore
SplineSet
28 0 m 1,0,-1
 28 505 l 1,1,-1
 252 505 l 1,2,-1
 252 0 l 1,3,-1
 28 0 l 1,0,-1
137 548 m 128,-1,5
 -23 548 -23 548 -23 708 c 1,6,-1
 93 718 l 1,7,8
 98 673 98 673 137 673 c 128,-1,9
 176 673 176 673 181 718 c 1,10,-1
 297 708 l 1,11,4
 297 548 297 548 137 548 c 128,-1,5
EndSplineSet
EndChar

StartChar: Iogonek
Encoding: 302 302 239
Width: 292
GlyphClass: 2
Flags: W
LayerCount: 2
Fore
SplineSet
30 0 m 1,0,-1
 30 670 l 1,1,-1
 262 670 l 1,2,-1
 262 0 l 1,3,-1
 238 0 l 1,4,5
 181 -54 181 -54 181 -80 c 128,-1,6
 181 -106 181 -106 203 -106 c 1,7,-1
 249 -102 l 1,8,-1
 262 -206 l 1,9,10
 213 -221 213 -221 126 -221 c 0,11,12
 -29 -221 -29 -221 -29 -105 c 0,13,14
 -29 -42 -29 -42 31 0 c 1,15,-1
 30 0 l 1,0,-1
EndSplineSet
Position2: "'cpsp' Capital Spacing in Latin lookup 0 subtable" dx=5 dy=0 dh=10 dv=0
EndChar

StartChar: iogonek
Encoding: 303 303 240
Width: 280
GlyphClass: 2
Flags: W
LayerCount: 2
Fore
SplineSet
115 -220 m 0,0,1
 -40 -220 -40 -220 -40 -104 c 0,2,3
 -40 -36 -40 -36 28 6 c 1,4,-1
 28 505 l 1,5,-1
 252 505 l 1,6,-1
 252 0 l 1,7,8
 223 -16 223 -16 196.5 -41.5 c 128,-1,9
 170 -67 170 -67 170 -83 c 0,10,11
 170 -105 170 -105 192 -105 c 1,12,-1
 238 -101 l 1,13,-1
 251 -205 l 1,14,15
 202 -220 202 -220 115 -220 c 0,0,1
27 537 m 1,16,-1
 27 690 l 1,17,-1
 253 690 l 1,18,-1
 253 537 l 1,19,-1
 27 537 l 1,16,-1
EndSplineSet
EndChar

StartChar: Idotaccent
Encoding: 304 304 241
Width: 292
GlyphClass: 2
Flags: W
LayerCount: 2
Fore
SplineSet
30 0 m 1,0,-1
 30 670 l 1,1,-1
 262 670 l 1,2,-1
 262 0 l 1,3,-1
 30 0 l 1,0,-1
53 706 m 1,4,-1
 53 859 l 1,5,-1
 239 859 l 1,6,-1
 239 706 l 1,7,-1
 53 706 l 1,4,-1
EndSplineSet
Position2: "'cpsp' Capital Spacing in Latin lookup 0 subtable" dx=5 dy=0 dh=10 dv=0
EndChar

StartChar: dotlessi
Encoding: 305 305 242
Width: 280
GlyphClass: 2
Flags: W
LayerCount: 2
Fore
SplineSet
28 0 m 1,0,-1
 28 505 l 1,1,-1
 252 505 l 1,2,-1
 252 0 l 1,3,-1
 28 0 l 1,0,-1
EndSplineSet
EndChar

StartChar: Jcircumflex
Encoding: 308 308 243
Width: 321
GlyphClass: 2
Flags: W
LayerCount: 2
Fore
SplineSet
294 670 m 1,0,-1
 294 177 l 2,1,2
 294 79 294 79 246 33 c 1,3,4
 209 -4 209 -4 112 -10 c 0,5,6
 75 -13 75 -13 15 -13 c 1,7,-1
 15 178 l 1,8,9
 28 178 28 178 34 178.5 c 128,-1,10
 40 179 40 179 46.5 184.5 c 128,-1,11
 53 190 53 190 55 197 c 128,-1,12
 57 204 57 204 59 222 c 0,13,14
 62 250 62 250 62 322 c 2,15,-1
 62 670 l 1,16,-1
 294 670 l 1,0,-1
2 713 m 1,17,-1
 103 849 l 1,18,-1
 255 849 l 1,19,-1
 367 713 l 1,20,-1
 198 713 l 1,21,-1
 183 775 l 1,22,-1
 171 713 l 1,23,-1
 2 713 l 1,17,-1
EndSplineSet
Position2: "'cpsp' Capital Spacing in Latin lookup 0 subtable" dx=5 dy=0 dh=10 dv=0
EndChar

StartChar: jcircumflex
Encoding: 309 309 244
Width: 280
GlyphClass: 2
Flags: W
LayerCount: 2
Fore
SplineSet
28 66 m 2,0,-1
 28 505 l 1,1,-1
 252 505 l 1,2,-1
 252 73 l 2,3,4
 252 -32 252 -32 236.5 -70 c 128,-1,5
 221 -108 221 -108 206.5 -126 c 128,-1,6
 192 -144 192 -144 161 -162 c 1,7,8
 113 -188 113 -188 11 -220 c 1,9,-1
 -61 -50 l 1,10,11
 1 -21 1 -21 14.5 -4 c 128,-1,12
 28 13 28 13 28 66 c 2,0,-1
-35 557 m 1,13,-1
 56 723 l 1,14,-1
 214 723 l 1,15,-1
 316 557 l 1,16,-1
 154 557 l 1,17,-1
 139 629 l 1,18,-1
 127 557 l 1,19,-1
 -35 557 l 1,13,-1
EndSplineSet
EndChar

StartChar: Kcommaaccent
Encoding: 310 310 245
Width: 609
GlyphClass: 2
Flags: W
LayerCount: 2
Fore
SplineSet
174 -260 m 1,0,-1
 194 -45 l 1,1,-1
 398 -45 l 1,2,-1
 336 -260 l 1,3,-1
 174 -260 l 1,0,-1
262 223 m 1,4,-1
 262 0 l 1,5,-1
 30 0 l 1,6,-1
 30 670 l 1,7,-1
 262 670 l 1,8,-1
 262 433 l 1,9,-1
 302 433 l 1,10,-1
 377 670 l 1,11,-1
 607 670 l 1,12,-1
 500 346 l 1,13,-1
 617 0 l 1,14,-1
 384 0 l 1,15,-1
 303 223 l 1,16,-1
 262 223 l 1,4,-1
EndSplineSet
Position2: "'cpsp' Capital Spacing in Latin lookup 0 subtable" dx=5 dy=0 dh=10 dv=0
EndChar

StartChar: kcommaaccent
Encoding: 311 311 246
Width: 553
GlyphClass: 2
Flags: W
LayerCount: 2
Fore
SplineSet
178 -260 m 1,0,-1
 198 -45 l 1,1,-1
 402 -45 l 1,2,-1
 340 -260 l 1,3,-1
 178 -260 l 1,0,-1
252 0 m 1,4,-1
 28 0 l 1,5,-1
 28 690 l 1,6,-1
 252 690 l 1,7,-1
 252 343 l 1,8,-1
 281 343 l 1,9,-1
 326 505 l 1,10,-1
 547 505 l 1,11,-1
 475 261 l 1,12,-1
 553 0 l 1,13,-1
 329 0 l 1,14,-1
 282 148 l 1,15,-1
 252 148 l 1,16,-1
 252 0 l 1,4,-1
EndSplineSet
EndChar

StartChar: Lacute
Encoding: 313 313 247
Width: 489
GlyphClass: 2
Flags: W
LayerCount: 2
Fore
SplineSet
480 0 m 1,0,-1
 30 0 l 1,1,-1
 30 670 l 1,2,-1
 262 670 l 1,3,-1
 262 189 l 1,4,-1
 480 189 l 1,5,-1
 480 0 l 1,0,-1
83 849 m 1,6,-1
 325 849 l 1,7,-1
 216 713 l 1,8,-1
 40 713 l 1,9,-1
 83 849 l 1,6,-1
EndSplineSet
Position2: "'cpsp' Capital Spacing in Latin lookup 0 subtable" dx=5 dy=0 dh=10 dv=0
EndChar

StartChar: lacute
Encoding: 314 314 248
Width: 280
GlyphClass: 2
Flags: W
LayerCount: 2
Fore
SplineSet
28 0 m 1,0,-1
 28 690 l 1,1,-1
 252 690 l 1,2,-1
 252 0 l 1,3,-1
 28 0 l 1,0,-1
71 907 m 1,4,-1
 308 907 l 1,5,-1
 199 741 l 1,6,-1
 28 741 l 1,7,-1
 71 907 l 1,4,-1
EndSplineSet
EndChar

StartChar: Lcommaaccent
Encoding: 315 315 249
Width: 489
GlyphClass: 2
Flags: W
LayerCount: 2
Fore
SplineSet
135 -260 m 1,0,-1
 155 -45 l 1,1,-1
 359 -45 l 1,2,-1
 297 -260 l 1,3,-1
 135 -260 l 1,0,-1
480 0 m 1,4,-1
 30 0 l 1,5,-1
 30 670 l 1,6,-1
 262 670 l 1,7,-1
 262 189 l 1,8,-1
 480 189 l 1,9,-1
 480 0 l 1,4,-1
EndSplineSet
Position2: "'cpsp' Capital Spacing in Latin lookup 0 subtable" dx=5 dy=0 dh=10 dv=0
EndChar

StartChar: lcommaaccent
Encoding: 316 316 250
Width: 280
GlyphClass: 2
Flags: W
LayerCount: 2
Fore
SplineSet
28 -260 m 1,0,-1
 48 -45 l 1,1,-1
 252 -45 l 1,2,-1
 190 -260 l 1,3,-1
 28 -260 l 1,0,-1
28 0 m 1,4,-1
 28 690 l 1,5,-1
 252 690 l 1,6,-1
 252 0 l 1,7,-1
 28 0 l 1,4,-1
EndSplineSet
EndChar

StartChar: Lcaron
Encoding: 317 317 251
Width: 512
GlyphClass: 2
Flags: W
LayerCount: 2
Fore
SplineSet
318 488 m 1,0,-1
 338 703 l 1,1,-1
 542 703 l 1,2,-1
 480 488 l 1,3,-1
 318 488 l 1,0,-1
480 0 m 1,4,-1
 30 0 l 1,5,-1
 30 670 l 1,6,-1
 262 670 l 1,7,-1
 262 189 l 1,8,-1
 480 189 l 1,9,-1
 480 0 l 1,4,-1
EndSplineSet
Position2: "'cpsp' Capital Spacing in Latin lookup 0 subtable" dx=5 dy=0 dh=10 dv=0
EndChar

StartChar: lcaron
Encoding: 318 318 252
Width: 459
GlyphClass: 2
Flags: W
LayerCount: 2
Fore
SplineSet
292 454 m 1,0,-1
 312 669 l 1,1,-1
 516 669 l 1,2,-1
 454 454 l 1,3,-1
 292 454 l 1,0,-1
28 0 m 1,4,-1
 28 690 l 1,5,-1
 252 690 l 1,6,-1
 252 0 l 1,7,-1
 28 0 l 1,4,-1
EndSplineSet
EndChar

StartChar: Lslash
Encoding: 321 321 253
Width: 493
GlyphClass: 2
Flags: W
LayerCount: 2
Fore
SplineSet
34 670 m 1,0,-1
 266 670 l 1,1,-1
 266 469 l 1,2,-1
 340 506 l 1,3,-1
 340 319 l 1,4,-1
 266 282 l 1,5,-1
 266 189 l 1,6,-1
 484 189 l 1,7,-1
 484 0 l 1,8,-1
 34 0 l 1,9,-1
 34 166 l 1,10,-1
 3 151 l 1,11,-1
 3 338 l 1,12,-1
 34 353 l 1,13,-1
 34 670 l 1,0,-1
EndSplineSet
Position2: "'cpsp' Capital Spacing in Latin lookup 0 subtable" dx=5 dy=0 dh=10 dv=0
EndChar

StartChar: lslash
Encoding: 322 322 254
Width: 308
GlyphClass: 2
Flags: W
LayerCount: 2
Fore
SplineSet
41 690 m 1,0,-1
 265 690 l 1,1,-1
 265 448 l 1,2,-1
 304 468 l 1,3,-1
 304 281 l 1,4,-1
 265 261 l 1,5,-1
 265 0 l 1,6,-1
 41 0 l 1,7,-1
 41 149 l 1,8,-1
 4 131 l 1,9,-1
 4 318 l 1,10,-1
 41 336 l 1,11,-1
 41 690 l 1,0,-1
EndSplineSet
EndChar

StartChar: Nacute
Encoding: 323 323 255
Width: 688
GlyphClass: 2
Flags: W
LayerCount: 2
Fore
SplineSet
30 0 m 1,0,-1
 30 670 l 1,1,-1
 258 670 l 1,2,-1
 412 416 l 1,3,-1
 426 416 l 1,4,-1
 426 670 l 1,5,-1
 658 670 l 1,6,-1
 658 0 l 1,7,-1
 429 0 l 1,8,-1
 277 273 l 1,9,-1
 262 273 l 1,10,-1
 262 0 l 1,11,-1
 30 0 l 1,0,-1
255 849 m 1,12,-1
 497 849 l 1,13,-1
 388 713 l 1,14,-1
 212 713 l 1,15,-1
 255 849 l 1,12,-1
EndSplineSet
Position2: "'cpsp' Capital Spacing in Latin lookup 0 subtable" dx=5 dy=0 dh=10 dv=0
EndChar

StartChar: nacute
Encoding: 324 324 256
Width: 578
GlyphClass: 2
Flags: W
LayerCount: 2
Fore
SplineSet
252 0 m 1,0,-1
 28 0 l 1,1,-1
 28 505 l 1,2,-1
 251 505 l 1,3,-1
 251 479 l 1,4,5
 314 518 314 518 361 518 c 0,6,7
 469 518 469 518 512 459.5 c 128,-1,8
 555 401 555 401 555 253 c 2,9,-1
 555 0 l 1,10,-1
 331 0 l 1,11,-1
 331 238 l 2,12,13
 331 325 331 325 295 325 c 1,14,-1
 252 318 l 1,15,-1
 252 0 l 1,0,-1
213 723 m 1,16,-1
 450 723 l 1,17,-1
 341 557 l 1,18,-1
 170 557 l 1,19,-1
 213 723 l 1,16,-1
EndSplineSet
EndChar

StartChar: Ncommaaccent
Encoding: 325 325 257
Width: 688
GlyphClass: 2
Flags: W
LayerCount: 2
Fore
SplineSet
242 -260 m 1,0,-1
 262 -45 l 1,1,-1
 466 -45 l 1,2,-1
 404 -260 l 1,3,-1
 242 -260 l 1,0,-1
30 0 m 1,4,-1
 30 670 l 1,5,-1
 258 670 l 1,6,-1
 412 416 l 1,7,-1
 426 416 l 1,8,-1
 426 670 l 1,9,-1
 658 670 l 1,10,-1
 658 0 l 1,11,-1
 429 0 l 1,12,-1
 277 273 l 1,13,-1
 262 273 l 1,14,-1
 262 0 l 1,15,-1
 30 0 l 1,4,-1
EndSplineSet
Position2: "'cpsp' Capital Spacing in Latin lookup 0 subtable" dx=5 dy=0 dh=10 dv=0
EndChar

StartChar: ncommaaccent
Encoding: 326 326 258
Width: 578
GlyphClass: 2
Flags: W
LayerCount: 2
Fore
SplineSet
179 -260 m 1,0,-1
 199 -45 l 1,1,-1
 403 -45 l 1,2,-1
 341 -260 l 1,3,-1
 179 -260 l 1,0,-1
252 0 m 1,4,-1
 28 0 l 1,5,-1
 28 505 l 1,6,-1
 251 505 l 1,7,-1
 251 479 l 1,8,9
 314 518 314 518 361 518 c 0,10,11
 469 518 469 518 512 459.5 c 128,-1,12
 555 401 555 401 555 253 c 2,13,-1
 555 0 l 1,14,-1
 331 0 l 1,15,-1
 331 238 l 2,16,17
 331 325 331 325 295 325 c 1,18,-1
 252 318 l 1,19,-1
 252 0 l 1,4,-1
EndSplineSet
EndChar

StartChar: Ncaron
Encoding: 327 327 259
Width: 688
GlyphClass: 2
Flags: W
LayerCount: 2
Fore
SplineSet
30 0 m 1,0,-1
 30 670 l 1,1,-1
 258 670 l 1,2,-1
 412 416 l 1,3,-1
 426 416 l 1,4,-1
 426 670 l 1,5,-1
 658 670 l 1,6,-1
 658 0 l 1,7,-1
 429 0 l 1,8,-1
 277 273 l 1,9,-1
 262 273 l 1,10,-1
 262 0 l 1,11,-1
 30 0 l 1,0,-1
263 712 m 1,12,-1
 162 848 l 1,13,-1
 331 848 l 1,14,-1
 345 786 l 1,15,-1
 358 848 l 1,16,-1
 527 848 l 1,17,-1
 415 712 l 1,18,-1
 263 712 l 1,12,-1
EndSplineSet
Position2: "'cpsp' Capital Spacing in Latin lookup 0 subtable" dx=5 dy=0 dh=10 dv=0
EndChar

StartChar: ncaron
Encoding: 328 328 260
Width: 578
GlyphClass: 2
Flags: W
LayerCount: 2
Fore
SplineSet
252 0 m 1,0,-1
 28 0 l 1,1,-1
 28 505 l 1,2,-1
 251 505 l 1,3,-1
 251 479 l 1,4,5
 314 518 314 518 361 518 c 0,6,7
 469 518 469 518 512 459.5 c 128,-1,8
 555 401 555 401 555 253 c 2,9,-1
 555 0 l 1,10,-1
 331 0 l 1,11,-1
 331 238 l 2,12,13
 331 325 331 325 295 325 c 1,14,-1
 252 318 l 1,15,-1
 252 0 l 1,0,-1
197 557 m 1,16,-1
 106 723 l 1,17,-1
 268 723 l 1,18,-1
 282 651 l 1,19,-1
 295 723 l 1,20,-1
 457 723 l 1,21,-1
 355 557 l 1,22,-1
 197 557 l 1,16,-1
EndSplineSet
EndChar

StartChar: Eng
Encoding: 330 330 261
Width: 688
GlyphClass: 2
Flags: W
LayerCount: 2
Fore
SplineSet
30 0 m 1,0,-1
 30 670 l 1,1,-1
 258 670 l 1,2,-1
 412 416 l 1,3,-1
 426 416 l 1,4,-1
 426 670 l 1,5,-1
 658 670 l 1,6,-1
 658 0 l 2,7,8
 658 -103 658 -103 637 -148 c 0,9,10
 624 -176 624 -176 609.5 -193.5 c 128,-1,11
 595 -211 595 -211 563 -228 c 0,12,13
 518 -252 518 -252 412 -286 c 1,14,-1
 340 -116 l 1,15,16
 402 -87 402 -87 415.5 -70 c 128,-1,17
 429 -53 429 -53 429 0 c 1,18,-1
 277 273 l 1,19,-1
 262 273 l 1,20,-1
 262 0 l 1,21,-1
 30 0 l 1,0,-1
EndSplineSet
Position2: "'cpsp' Capital Spacing in Latin lookup 0 subtable" dx=5 dy=0 dh=10 dv=0
EndChar

StartChar: eng
Encoding: 331 331 262
Width: 578
GlyphClass: 2
Flags: W
LayerCount: 2
Fore
SplineSet
331 66 m 2,0,-1
 331 238 l 2,1,2
 331 325 331 325 295 325 c 1,3,-1
 252 318 l 1,4,-1
 252 0 l 1,5,-1
 28 0 l 1,6,-1
 28 505 l 1,7,-1
 251 505 l 1,8,-1
 251 479 l 1,9,10
 314 518 314 518 361 518 c 0,11,12
 469 518 469 518 512 459.5 c 128,-1,13
 555 401 555 401 555 253 c 2,14,-1
 555 73 l 2,15,16
 555 -32 555 -32 539.5 -70 c 128,-1,17
 524 -108 524 -108 509.5 -126 c 128,-1,18
 495 -144 495 -144 464 -162 c 1,19,20
 416 -188 416 -188 314 -220 c 1,21,-1
 242 -50 l 1,22,23
 304 -21 304 -21 317.5 -4 c 128,-1,24
 331 13 331 13 331 66 c 2,0,-1
EndSplineSet
EndChar

StartChar: Omacron
Encoding: 332 332 263
Width: 670
GlyphClass: 2
Flags: W
LayerCount: 2
Fore
SplineSet
266.5 212.5 m 128,-1,1
 283 175 283 175 335.5 175 c 128,-1,2
 388 175 388 175 404 212 c 128,-1,3
 420 249 420 249 420 335.5 c 128,-1,4
 420 422 420 422 404.5 458.5 c 128,-1,5
 389 495 389 495 336 495 c 128,-1,6
 283 495 283 495 266.5 457.5 c 128,-1,7
 250 420 250 420 250 335 c 128,-1,0
 250 250 250 250 266.5 212.5 c 128,-1,1
578 69.5 m 128,-1,9
 502 -13 502 -13 335.5 -13 c 128,-1,10
 169 -13 169 -13 92.5 70 c 128,-1,11
 16 153 16 153 16 335.5 c 128,-1,12
 16 518 16 518 92 600.5 c 128,-1,13
 168 683 168 683 335 683 c 128,-1,14
 502 683 502 683 578 600.5 c 128,-1,15
 654 518 654 518 654 335 c 128,-1,8
 654 152 654 152 578 69.5 c 128,-1,9
175 713 m 1,16,-1
 175 849 l 1,17,-1
 496 849 l 1,18,-1
 496 713 l 1,19,-1
 175 713 l 1,16,-1
EndSplineSet
Position2: "'cpsp' Capital Spacing in Latin lookup 0 subtable" dx=5 dy=0 dh=10 dv=0
EndChar

StartChar: omacron
Encoding: 333 333 264
Width: 564
GlyphClass: 2
Flags: W
LayerCount: 2
Fore
SplineSet
282 518 m 128,-1,1
 416 518 416 518 482.5 455.5 c 128,-1,2
 549 393 549 393 549 252 c 128,-1,3
 549 111 549 111 482.5 49 c 128,-1,4
 416 -13 416 -13 282 -13 c 128,-1,5
 148 -13 148 -13 81.5 49 c 128,-1,6
 15 111 15 111 15 252 c 128,-1,7
 15 393 15 393 81.5 455.5 c 128,-1,0
 148 518 148 518 282 518 c 128,-1,1
282 168 m 128,-1,9
 305 168 305 168 314 186 c 128,-1,10
 323 204 323 204 323 252.5 c 128,-1,11
 323 301 323 301 314 319 c 128,-1,12
 305 337 305 337 282 337 c 128,-1,13
 259 337 259 337 250 319 c 128,-1,14
 241 301 241 301 241 252.5 c 128,-1,15
 241 204 241 204 250 186 c 128,-1,8
 259 168 259 168 282 168 c 128,-1,9
119 563 m 1,16,-1
 119 707 l 1,17,-1
 446 707 l 1,18,-1
 446 563 l 1,19,-1
 119 563 l 1,16,-1
EndSplineSet
EndChar

StartChar: Obreve
Encoding: 334 334 265
Width: 670
GlyphClass: 2
Flags: W
LayerCount: 2
Fore
SplineSet
266.5 212.5 m 128,-1,1
 283 175 283 175 335.5 175 c 128,-1,2
 388 175 388 175 404 212 c 128,-1,3
 420 249 420 249 420 335.5 c 128,-1,4
 420 422 420 422 404.5 458.5 c 128,-1,5
 389 495 389 495 336 495 c 128,-1,6
 283 495 283 495 266.5 457.5 c 128,-1,7
 250 420 250 420 250 335 c 128,-1,0
 250 250 250 250 266.5 212.5 c 128,-1,1
578 69.5 m 128,-1,9
 502 -13 502 -13 335.5 -13 c 128,-1,10
 169 -13 169 -13 92.5 70 c 128,-1,11
 16 153 16 153 16 335.5 c 128,-1,12
 16 518 16 518 92 600.5 c 128,-1,13
 168 683 168 683 335 683 c 128,-1,14
 502 683 502 683 578 600.5 c 128,-1,15
 654 518 654 518 654 335 c 128,-1,8
 654 152 654 152 578 69.5 c 128,-1,9
335 712 m 128,-1,17
 249 712 249 712 212 754.5 c 128,-1,18
 175 797 175 797 175 862 c 1,19,-1
 291 872 l 1,20,21
 296 827 296 827 335 827 c 128,-1,22
 374 827 374 827 379 872 c 1,23,-1
 495 862 l 1,24,25
 495 797 495 797 458 754.5 c 128,-1,16
 421 712 421 712 335 712 c 128,-1,17
EndSplineSet
Position2: "'cpsp' Capital Spacing in Latin lookup 0 subtable" dx=5 dy=0 dh=10 dv=0
EndChar

StartChar: obreve
Encoding: 335 335 266
Width: 564
GlyphClass: 2
Flags: W
LayerCount: 2
Fore
SplineSet
282 518 m 128,-1,1
 416 518 416 518 482.5 455.5 c 128,-1,2
 549 393 549 393 549 252 c 128,-1,3
 549 111 549 111 482.5 49 c 128,-1,4
 416 -13 416 -13 282 -13 c 128,-1,5
 148 -13 148 -13 81.5 49 c 128,-1,6
 15 111 15 111 15 252 c 128,-1,7
 15 393 15 393 81.5 455.5 c 128,-1,0
 148 518 148 518 282 518 c 128,-1,1
282 168 m 128,-1,9
 305 168 305 168 314 186 c 128,-1,10
 323 204 323 204 323 252.5 c 128,-1,11
 323 301 323 301 314 319 c 128,-1,12
 305 337 305 337 282 337 c 128,-1,13
 259 337 259 337 250 319 c 128,-1,14
 241 301 241 301 241 252.5 c 128,-1,15
 241 204 241 204 250 186 c 128,-1,8
 259 168 259 168 282 168 c 128,-1,9
284 548 m 128,-1,17
 124 548 124 548 124 708 c 1,18,-1
 240 718 l 1,19,20
 245 673 245 673 284 673 c 128,-1,21
 323 673 323 673 328 718 c 1,22,-1
 444 708 l 1,23,16
 444 548 444 548 284 548 c 128,-1,17
EndSplineSet
EndChar

StartChar: Ohungarumlaut
Encoding: 336 336 267
Width: 670
GlyphClass: 2
Flags: W
LayerCount: 2
Fore
SplineSet
266.5 212.5 m 128,-1,1
 283 175 283 175 335.5 175 c 128,-1,2
 388 175 388 175 404 212 c 128,-1,3
 420 249 420 249 420 335.5 c 128,-1,4
 420 422 420 422 404.5 458.5 c 128,-1,5
 389 495 389 495 336 495 c 128,-1,6
 283 495 283 495 266.5 457.5 c 128,-1,7
 250 420 250 420 250 335 c 128,-1,0
 250 250 250 250 266.5 212.5 c 128,-1,1
578 69.5 m 128,-1,9
 502 -13 502 -13 335.5 -13 c 128,-1,10
 169 -13 169 -13 92.5 70 c 128,-1,11
 16 153 16 153 16 335.5 c 128,-1,12
 16 518 16 518 92 600.5 c 128,-1,13
 168 683 168 683 335 683 c 128,-1,14
 502 683 502 683 578 600.5 c 128,-1,15
 654 518 654 518 654 335 c 128,-1,8
 654 152 654 152 578 69.5 c 128,-1,9
181 849 m 1,16,-1
 368 849 l 1,17,-1
 279 713 l 1,18,-1
 148 713 l 1,19,-1
 181 849 l 1,16,-1
396 849 m 1,20,-1
 583 849 l 1,21,-1
 494 713 l 1,22,-1
 363 713 l 1,23,-1
 396 849 l 1,20,-1
EndSplineSet
Position2: "'cpsp' Capital Spacing in Latin lookup 0 subtable" dx=5 dy=0 dh=10 dv=0
EndChar

StartChar: ohungarumlaut
Encoding: 337 337 268
Width: 564
GlyphClass: 2
Flags: W
LayerCount: 2
Fore
SplineSet
282 518 m 128,-1,1
 416 518 416 518 482.5 455.5 c 128,-1,2
 549 393 549 393 549 252 c 128,-1,3
 549 111 549 111 482.5 49 c 128,-1,4
 416 -13 416 -13 282 -13 c 128,-1,5
 148 -13 148 -13 81.5 49 c 128,-1,6
 15 111 15 111 15 252 c 128,-1,7
 15 393 15 393 81.5 455.5 c 128,-1,0
 148 518 148 518 282 518 c 128,-1,1
282 168 m 128,-1,9
 305 168 305 168 314 186 c 128,-1,10
 323 204 323 204 323 252.5 c 128,-1,11
 323 301 323 301 314 319 c 128,-1,12
 305 337 305 337 282 337 c 128,-1,13
 259 337 259 337 250 319 c 128,-1,14
 241 301 241 301 241 252.5 c 128,-1,15
 241 204 241 204 250 186 c 128,-1,8
 259 168 259 168 282 168 c 128,-1,9
120 725 m 1,16,-1
 312 725 l 1,17,-1
 223 559 l 1,18,-1
 87 559 l 1,19,-1
 120 725 l 1,16,-1
340 725 m 1,20,-1
 532 725 l 1,21,-1
 443 559 l 1,22,-1
 307 559 l 1,23,-1
 340 725 l 1,20,-1
EndSplineSet
EndChar

StartChar: OE
Encoding: 338 338 269
Width: 886
GlyphClass: 2
Flags: W
LayerCount: 2
Fore
SplineSet
869 670 m 1,0,-1
 869 485 l 1,1,-1
 630 485 l 1,2,-1
 630 427 l 1,3,-1
 809 427 l 1,4,-1
 809 246 l 1,5,-1
 630 246 l 1,6,-1
 630 185 l 1,7,-1
 869 185 l 1,8,-1
 869 0 l 1,9,-1
 484 0 l 1,10,11
 370 -13 370 -13 291 -13 c 0,12,13
 135 -13 135 -13 76.5 68 c 128,-1,14
 18 149 18 149 18 340 c 128,-1,15
 18 531 18 531 79 607 c 128,-1,16
 140 683 140 683 301 683 c 1,17,-1
 484 670 l 1,18,-1
 869 670 l 1,0,-1
357 175 m 2,19,-1
 398 175 l 1,20,-1
 398 493 l 1,21,22
 370 495 370 495 357 495 c 0,23,24
 286 495 286 495 266 464.5 c 128,-1,25
 246 434 246 434 246 340 c 0,26,27
 246 266 246 266 252.5 237.5 c 128,-1,28
 259 209 259 209 271 199 c 0,29,30
 300 175 300 175 357 175 c 2,19,-1
EndSplineSet
Position2: "'cpsp' Capital Spacing in Latin lookup 0 subtable" dx=5 dy=0 dh=10 dv=0
EndChar

StartChar: oe
Encoding: 339 339 270
Width: 860
GlyphClass: 2
Flags: W
LayerCount: 2
Fore
SplineSet
547 187 m 1,0,1
 548 152 548 152 592 152 c 0,2,3
 692 152 692 152 792 158 c 1,4,-1
 831 161 l 1,5,-1
 836 16 l 1,6,7
 703 -13 703 -13 589 -13 c 128,-1,8
 475 -13 475 -13 434 31 c 1,9,10
 387 -13 387 -13 282 -13 c 0,11,12
 148 -13 148 -13 81.5 49 c 128,-1,13
 15 111 15 111 15 252 c 128,-1,14
 15 393 15 393 81.5 455.5 c 128,-1,15
 148 518 148 518 272 518 c 128,-1,16
 396 518 396 518 442 470 c 1,17,18
 485 518 485 518 585 518 c 0,19,20
 716 518 716 518 781 461 c 128,-1,21
 846 404 846 404 846 286 c 1,22,-1
 836 187 l 1,23,-1
 547 187 l 1,0,1
282 168 m 128,-1,25
 305 168 305 168 314 186 c 128,-1,26
 323 204 323 204 323 252.5 c 128,-1,27
 323 301 323 301 314 319 c 128,-1,28
 305 337 305 337 282 337 c 128,-1,29
 259 337 259 337 250 319 c 128,-1,30
 241 301 241 301 241 252.5 c 128,-1,31
 241 204 241 204 250 186 c 128,-1,24
 259 168 259 168 282 168 c 128,-1,25
624 309 m 1,32,33
 624 338 624 338 615 350 c 128,-1,34
 606 362 606 362 584.5 362 c 128,-1,35
 563 362 563 362 555 350 c 128,-1,36
 547 338 547 338 546 309 c 1,37,-1
 624 309 l 1,32,33
EndSplineSet
EndChar

StartChar: Racute
Encoding: 340 340 271
Width: 617
GlyphClass: 2
Flags: W
LayerCount: 2
Fore
SplineSet
319 173 m 1,0,-1
 262 173 l 1,1,-1
 262 0 l 1,2,-1
 30 0 l 1,3,-1
 30 670 l 1,4,-1
 312 670 l 2,5,6
 467 670 467 670 534 618.5 c 128,-1,7
 601 567 601 567 601 427.5 c 128,-1,8
 601 288 601 288 527 228 c 1,9,-1
 593 0 l 1,10,-1
 357 0 l 1,11,-1
 319 173 l 1,0,-1
226 849 m 1,12,-1
 468 849 l 1,13,-1
 359 713 l 1,14,-1
 183 713 l 1,15,-1
 226 849 l 1,12,-1
318 356 m 2,16,17
 367 356 367 356 367 421.5 c 128,-1,18
 367 487 367 487 312 487 c 2,19,-1
 261 487 l 1,20,-1
 261 356 l 1,21,-1
 318 356 l 2,16,17
EndSplineSet
Position2: "'cpsp' Capital Spacing in Latin lookup 0 subtable" dx=5 dy=0 dh=10 dv=0
EndChar

StartChar: racute
Encoding: 341 341 272
Width: 368
GlyphClass: 2
Flags: W
LayerCount: 2
Fore
SplineSet
252 0 m 1,0,-1
 28 0 l 1,1,-1
 28 505 l 1,2,-1
 252 505 l 1,3,-1
 252 458 l 1,4,5
 315 518 315 518 358 518 c 1,6,-1
 358 310 l 1,7,8
 324 310 324 310 270 283 c 2,9,-1
 252 274 l 1,10,-1
 252 0 l 1,0,-1
100 723 m 1,11,-1
 337 723 l 1,12,-1
 228 557 l 1,13,-1
 57 557 l 1,14,-1
 100 723 l 1,11,-1
EndSplineSet
EndChar

StartChar: Rcommaaccent
Encoding: 342 342 273
Width: 617
GlyphClass: 2
Flags: W
LayerCount: 2
Fore
SplineSet
319 173 m 1,0,-1
 262 173 l 1,1,-1
 262 0 l 1,2,-1
 30 0 l 1,3,-1
 30 670 l 1,4,-1
 312 670 l 2,5,6
 467 670 467 670 534 618.5 c 128,-1,7
 601 567 601 567 601 427.5 c 128,-1,8
 601 288 601 288 527 228 c 1,9,-1
 593 0 l 1,10,-1
 357 0 l 1,11,-1
 319 173 l 1,0,-1
193 -260 m 1,12,-1
 213 -45 l 1,13,-1
 417 -45 l 1,14,-1
 355 -260 l 1,15,-1
 193 -260 l 1,12,-1
318 356 m 2,16,17
 367 356 367 356 367 421.5 c 128,-1,18
 367 487 367 487 312 487 c 2,19,-1
 261 487 l 1,20,-1
 261 356 l 1,21,-1
 318 356 l 2,16,17
EndSplineSet
Position2: "'cpsp' Capital Spacing in Latin lookup 0 subtable" dx=5 dy=0 dh=10 dv=0
EndChar

StartChar: rcommaaccent
Encoding: 343 343 274
Width: 368
GlyphClass: 2
Flags: W
LayerCount: 2
Fore
SplineSet
28 -260 m 1,0,-1
 48 -45 l 1,1,-1
 252 -45 l 1,2,-1
 190 -260 l 1,3,-1
 28 -260 l 1,0,-1
252 0 m 1,4,-1
 28 0 l 1,5,-1
 28 505 l 1,6,-1
 252 505 l 1,7,-1
 252 458 l 1,8,9
 315 518 315 518 358 518 c 1,10,-1
 358 310 l 1,11,12
 324 310 324 310 270 283 c 2,13,-1
 252 274 l 1,14,-1
 252 0 l 1,4,-1
EndSplineSet
EndChar

StartChar: Rcaron
Encoding: 344 344 275
Width: 617
GlyphClass: 2
Flags: W
LayerCount: 2
Fore
SplineSet
319 173 m 1,0,-1
 262 173 l 1,1,-1
 262 0 l 1,2,-1
 30 0 l 1,3,-1
 30 670 l 1,4,-1
 312 670 l 2,5,6
 467 670 467 670 534 618.5 c 128,-1,7
 601 567 601 567 601 427.5 c 128,-1,8
 601 288 601 288 527 228 c 1,9,-1
 593 0 l 1,10,-1
 357 0 l 1,11,-1
 319 173 l 1,0,-1
234 712 m 1,12,-1
 133 848 l 1,13,-1
 302 848 l 1,14,-1
 316 786 l 1,15,-1
 329 848 l 1,16,-1
 498 848 l 1,17,-1
 386 712 l 1,18,-1
 234 712 l 1,12,-1
318 356 m 2,19,20
 367 356 367 356 367 421.5 c 128,-1,21
 367 487 367 487 312 487 c 2,22,-1
 261 487 l 1,23,-1
 261 356 l 1,24,-1
 318 356 l 2,19,20
EndSplineSet
Position2: "'cpsp' Capital Spacing in Latin lookup 0 subtable" dx=5 dy=0 dh=10 dv=0
EndChar

StartChar: rcaron
Encoding: 345 345 276
Width: 368
GlyphClass: 2
Flags: W
LayerCount: 2
Fore
SplineSet
252 0 m 1,0,-1
 28 0 l 1,1,-1
 28 505 l 1,2,-1
 252 505 l 1,3,-1
 252 458 l 1,4,5
 315 518 315 518 358 518 c 1,6,-1
 358 310 l 1,7,8
 324 310 324 310 270 283 c 2,9,-1
 252 274 l 1,10,-1
 252 0 l 1,0,-1
96 557 m 1,11,-1
 5 723 l 1,12,-1
 167 723 l 1,13,-1
 181 651 l 1,14,-1
 194 723 l 1,15,-1
 356 723 l 1,16,-1
 254 557 l 1,17,-1
 96 557 l 1,11,-1
EndSplineSet
EndChar

StartChar: Sacute
Encoding: 346 346 277
Width: 578
GlyphClass: 2
Flags: W
LayerCount: 2
Fore
SplineSet
540 477 m 1,0,1
 399 492 399 492 335 492 c 128,-1,2
 271 492 271 492 260.5 488.5 c 128,-1,3
 250 485 250 485 250 474 c 128,-1,4
 250 463 250 463 262 457 c 128,-1,5
 274 451 274 451 337.5 437 c 128,-1,6
 401 423 401 423 441.5 409.5 c 128,-1,7
 482 396 482 396 514.5 371.5 c 128,-1,8
 547 347 547 347 557.5 311.5 c 128,-1,9
 568 276 568 276 568 216 c 0,10,11
 568 92 568 92 502 39 c 128,-1,12
 436 -14 436 -14 303 -14 c 0,13,14
 239 -14 239 -14 168.5 -5 c 128,-1,15
 98 4 98 4 60 13 c 2,16,-1
 21 22 l 1,17,-1
 31 199 l 1,18,19
 184 177 184 177 282 177 c 0,20,21
 334 177 334 177 334 200 c 0,22,23
 334 210 334 210 322 214.5 c 128,-1,24
 310 219 310 219 257 227 c 0,25,26
 117 249 117 249 66.5 295.5 c 128,-1,27
 16 342 16 342 16 448 c 0,28,29
 16 583 16 583 81 633 c 128,-1,30
 146 683 146 683 281 683 c 0,31,32
 376 683 376 683 504 664 c 1,33,-1
 546 657 l 1,34,-1
 540 477 l 1,0,1
204 849 m 1,35,-1
 446 849 l 1,36,-1
 337 713 l 1,37,-1
 161 713 l 1,38,-1
 204 849 l 1,35,-1
EndSplineSet
Position2: "'cpsp' Capital Spacing in Latin lookup 0 subtable" dx=5 dy=0 dh=10 dv=0
EndChar

StartChar: sacute
Encoding: 347 347 278
Width: 489
GlyphClass: 2
Flags: W
LayerCount: 2
Fore
SplineSet
457 335 m 1,0,1
 333 349 333 349 288 349 c 128,-1,2
 243 349 243 349 243 341 c 0,3,4
 243 335 243 335 321.5 326.5 c 128,-1,5
 400 318 400 318 436 281.5 c 128,-1,6
 472 245 472 245 472 157 c 128,-1,7
 472 69 472 69 417.5 28 c 128,-1,8
 363 -13 363 -13 250 -13 c 0,9,10
 187 -13 187 -13 130 -6.5 c 128,-1,11
 73 0 73 0 48 7 c 2,12,-1
 22 14 l 1,13,-1
 27 165 l 1,14,15
 151 148 151 148 199.5 148 c 128,-1,16
 248 148 248 148 248 157 c 0,17,18
 248 162 248 162 169 172.5 c 128,-1,19
 90 183 90 183 54.5 219.5 c 128,-1,20
 19 256 19 256 19 334 c 0,21,22
 19 436 19 436 77.5 477 c 128,-1,23
 136 518 136 518 243 518 c 0,24,25
 357 518 357 518 438 498 c 1,26,-1
 465 492 l 1,27,-1
 457 335 l 1,0,1
193 723 m 1,28,-1
 430 723 l 1,29,-1
 321 557 l 1,30,-1
 150 557 l 1,31,-1
 193 723 l 1,28,-1
EndSplineSet
EndChar

StartChar: Scircumflex
Encoding: 348 348 279
Width: 578
GlyphClass: 2
Flags: W
LayerCount: 2
Fore
SplineSet
540 477 m 1,0,1
 399 492 399 492 335 492 c 128,-1,2
 271 492 271 492 260.5 488.5 c 128,-1,3
 250 485 250 485 250 474 c 128,-1,4
 250 463 250 463 262 457 c 128,-1,5
 274 451 274 451 337.5 437 c 128,-1,6
 401 423 401 423 441.5 409.5 c 128,-1,7
 482 396 482 396 514.5 371.5 c 128,-1,8
 547 347 547 347 557.5 311.5 c 128,-1,9
 568 276 568 276 568 216 c 0,10,11
 568 92 568 92 502 39 c 128,-1,12
 436 -14 436 -14 303 -14 c 0,13,14
 239 -14 239 -14 168.5 -5 c 128,-1,15
 98 4 98 4 60 13 c 2,16,-1
 21 22 l 1,17,-1
 31 199 l 1,18,19
 184 177 184 177 282 177 c 0,20,21
 334 177 334 177 334 200 c 0,22,23
 334 210 334 210 322 214.5 c 128,-1,24
 310 219 310 219 257 227 c 0,25,26
 117 249 117 249 66.5 295.5 c 128,-1,27
 16 342 16 342 16 448 c 0,28,29
 16 583 16 583 81 633 c 128,-1,30
 146 683 146 683 281 683 c 0,31,32
 376 683 376 683 504 664 c 1,33,-1
 546 657 l 1,34,-1
 540 477 l 1,0,1
112 713 m 1,35,-1
 213 849 l 1,36,-1
 365 849 l 1,37,-1
 477 713 l 1,38,-1
 308 713 l 1,39,-1
 293 775 l 1,40,-1
 281 713 l 1,41,-1
 112 713 l 1,35,-1
EndSplineSet
Position2: "'cpsp' Capital Spacing in Latin lookup 0 subtable" dx=5 dy=0 dh=10 dv=0
EndChar

StartChar: scircumflex
Encoding: 349 349 280
Width: 489
GlyphClass: 2
Flags: W
LayerCount: 2
Fore
SplineSet
457 335 m 1,0,1
 333 349 333 349 288 349 c 128,-1,2
 243 349 243 349 243 341 c 0,3,4
 243 335 243 335 321.5 326.5 c 128,-1,5
 400 318 400 318 436 281.5 c 128,-1,6
 472 245 472 245 472 157 c 128,-1,7
 472 69 472 69 417.5 28 c 128,-1,8
 363 -13 363 -13 250 -13 c 0,9,10
 187 -13 187 -13 130 -6.5 c 128,-1,11
 73 0 73 0 48 7 c 2,12,-1
 22 14 l 1,13,-1
 27 165 l 1,14,15
 151 148 151 148 199.5 148 c 128,-1,16
 248 148 248 148 248 157 c 0,17,18
 248 162 248 162 169 172.5 c 128,-1,19
 90 183 90 183 54.5 219.5 c 128,-1,20
 19 256 19 256 19 334 c 0,21,22
 19 436 19 436 77.5 477 c 128,-1,23
 136 518 136 518 243 518 c 0,24,25
 357 518 357 518 438 498 c 1,26,-1
 465 492 l 1,27,-1
 457 335 l 1,0,1
70 557 m 1,28,-1
 161 723 l 1,29,-1
 319 723 l 1,30,-1
 421 557 l 1,31,-1
 259 557 l 1,32,-1
 244 629 l 1,33,-1
 232 557 l 1,34,-1
 70 557 l 1,28,-1
EndSplineSet
EndChar

StartChar: Scedilla
Encoding: 350 350 281
Width: 578
GlyphClass: 2
Flags: W
LayerCount: 2
Fore
SplineSet
402.5 -51.5 m 128,-1,1
 432 -69 432 -69 432 -124 c 128,-1,2
 432 -179 432 -179 400.5 -205 c 128,-1,3
 369 -231 369 -231 305 -231 c 0,4,5
 240 -231 240 -231 195 -223 c 2,6,-1
 178 -220 l 1,7,-1
 182 -142 l 1,8,9
 213 -143 213 -143 230 -143 c 0,10,11
 268 -143 268 -143 268 -121 c 0,12,13
 268 -109 268 -109 260 -105 c 128,-1,14
 252 -101 252 -101 230 -101 c 2,15,-1
 221 -101 l 1,16,-1
 221 -10 l 1,17,18
 123 -2 123 -2 46 16 c 2,19,-1
 21 22 l 1,20,-1
 31 199 l 1,21,22
 184 177 184 177 282 177 c 0,23,24
 334 177 334 177 334 200 c 0,25,26
 334 210 334 210 322 214.5 c 128,-1,27
 310 219 310 219 257 227 c 0,28,29
 117 249 117 249 66.5 295.5 c 128,-1,30
 16 342 16 342 16 448 c 0,31,32
 16 583 16 583 81 633 c 128,-1,33
 146 683 146 683 281 683 c 0,34,35
 376 683 376 683 504 664 c 1,36,-1
 546 657 l 1,37,-1
 540 477 l 1,38,39
 399 492 399 492 335 492 c 128,-1,40
 271 492 271 492 260.5 488.5 c 128,-1,41
 250 485 250 485 250 474 c 128,-1,42
 250 463 250 463 262 457 c 128,-1,43
 274 451 274 451 337.5 437 c 128,-1,44
 401 423 401 423 441.5 409.5 c 128,-1,45
 482 396 482 396 514.5 371.5 c 128,-1,46
 547 347 547 347 557.5 311.5 c 128,-1,47
 568 276 568 276 568 216 c 0,48,49
 568 92 568 92 502 39 c 128,-1,50
 436 -14 436 -14 303 -14 c 2,51,-1
 294 -14 l 1,52,-1
 294 -33 l 1,53,0
 373 -34 373 -34 402.5 -51.5 c 128,-1,1
EndSplineSet
Substitution2: "'locl' Localized Forms in Latin lookup 0 subtable" Scommaaccent
Position2: "'cpsp' Capital Spacing in Latin lookup 0 subtable" dx=5 dy=0 dh=10 dv=0
EndChar

StartChar: scedilla
Encoding: 351 351 282
Width: 489
GlyphClass: 2
Flags: W
LayerCount: 2
Fore
SplineSet
361.5 -51.5 m 128,-1,1
 391 -69 391 -69 391 -124 c 128,-1,2
 391 -179 391 -179 359.5 -205 c 128,-1,3
 328 -231 328 -231 264 -231 c 0,4,5
 199 -231 199 -231 154 -223 c 2,6,-1
 137 -220 l 1,7,-1
 141 -142 l 1,8,9
 172 -143 172 -143 189 -143 c 0,10,11
 227 -143 227 -143 227 -121 c 0,12,13
 227 -109 227 -109 219 -105 c 128,-1,14
 211 -101 211 -101 189 -101 c 2,15,-1
 180 -101 l 1,16,-1
 180 -11 l 1,17,18
 97 -5 97 -5 40 10 c 1,19,-1
 22 14 l 1,20,-1
 27 165 l 1,21,22
 151 148 151 148 199.5 148 c 128,-1,23
 248 148 248 148 248 157 c 0,24,25
 248 162 248 162 169 172.5 c 128,-1,26
 90 183 90 183 54.5 219.5 c 128,-1,27
 19 256 19 256 19 334 c 0,28,29
 19 436 19 436 77.5 477 c 128,-1,30
 136 518 136 518 243 518 c 0,31,32
 357 518 357 518 438 498 c 1,33,-1
 465 492 l 1,34,-1
 457 335 l 1,35,36
 333 349 333 349 288 349 c 128,-1,37
 243 349 243 349 243 341 c 0,38,39
 243 335 243 335 321.5 326.5 c 128,-1,40
 400 318 400 318 436 281.5 c 128,-1,41
 472 245 472 245 472 157.5 c 128,-1,42
 472 70 472 70 418 29 c 128,-1,43
 364 -12 364 -12 253 -13 c 1,44,-1
 253 -33 l 1,45,0
 332 -34 332 -34 361.5 -51.5 c 128,-1,1
EndSplineSet
Substitution2: "'locl' Localized Forms in Latin lookup 0 subtable" scommaaccent
EndChar

StartChar: Scaron
Encoding: 352 352 283
Width: 578
GlyphClass: 2
Flags: W
LayerCount: 2
Fore
SplineSet
540 477 m 1,0,1
 399 492 399 492 335 492 c 128,-1,2
 271 492 271 492 260.5 488.5 c 128,-1,3
 250 485 250 485 250 474 c 128,-1,4
 250 463 250 463 262 457 c 128,-1,5
 274 451 274 451 337.5 437 c 128,-1,6
 401 423 401 423 441.5 409.5 c 128,-1,7
 482 396 482 396 514.5 371.5 c 128,-1,8
 547 347 547 347 557.5 311.5 c 128,-1,9
 568 276 568 276 568 216 c 0,10,11
 568 92 568 92 502 39 c 128,-1,12
 436 -14 436 -14 303 -14 c 0,13,14
 239 -14 239 -14 168.5 -5 c 128,-1,15
 98 4 98 4 60 13 c 2,16,-1
 21 22 l 1,17,-1
 31 199 l 1,18,19
 184 177 184 177 282 177 c 0,20,21
 334 177 334 177 334 200 c 0,22,23
 334 210 334 210 322 214.5 c 128,-1,24
 310 219 310 219 257 227 c 0,25,26
 117 249 117 249 66.5 295.5 c 128,-1,27
 16 342 16 342 16 448 c 0,28,29
 16 583 16 583 81 633 c 128,-1,30
 146 683 146 683 281 683 c 0,31,32
 376 683 376 683 504 664 c 1,33,-1
 546 657 l 1,34,-1
 540 477 l 1,0,1
211 712 m 1,35,-1
 110 848 l 1,36,-1
 279 848 l 1,37,-1
 293 786 l 1,38,-1
 306 848 l 1,39,-1
 475 848 l 1,40,-1
 363 712 l 1,41,-1
 211 712 l 1,35,-1
EndSplineSet
Position2: "'cpsp' Capital Spacing in Latin lookup 0 subtable" dx=5 dy=0 dh=10 dv=0
EndChar

StartChar: scaron
Encoding: 353 353 284
Width: 489
GlyphClass: 2
Flags: W
LayerCount: 2
Fore
SplineSet
457 335 m 1,0,1
 333 349 333 349 288 349 c 128,-1,2
 243 349 243 349 243 341 c 0,3,4
 243 335 243 335 321.5 326.5 c 128,-1,5
 400 318 400 318 436 281.5 c 128,-1,6
 472 245 472 245 472 157 c 128,-1,7
 472 69 472 69 417.5 28 c 128,-1,8
 363 -13 363 -13 250 -13 c 0,9,10
 187 -13 187 -13 130 -6.5 c 128,-1,11
 73 0 73 0 48 7 c 2,12,-1
 22 14 l 1,13,-1
 27 165 l 1,14,15
 151 148 151 148 199.5 148 c 128,-1,16
 248 148 248 148 248 157 c 0,17,18
 248 162 248 162 169 172.5 c 128,-1,19
 90 183 90 183 54.5 219.5 c 128,-1,20
 19 256 19 256 19 334 c 0,21,22
 19 436 19 436 77.5 477 c 128,-1,23
 136 518 136 518 243 518 c 0,24,25
 357 518 357 518 438 498 c 1,26,-1
 465 492 l 1,27,-1
 457 335 l 1,0,1
161 557 m 1,28,-1
 70 723 l 1,29,-1
 232 723 l 1,30,-1
 246 651 l 1,31,-1
 259 723 l 1,32,-1
 421 723 l 1,33,-1
 319 557 l 1,34,-1
 161 557 l 1,28,-1
EndSplineSet
EndChar

StartChar: Tcedilla
Encoding: 354 354 285
Width: 519
GlyphClass: 2
Flags: W
LayerCount: 2
Fore
SplineSet
407.5 -51.5 m 128,-1,1
 437 -69 437 -69 437 -124 c 128,-1,2
 437 -179 437 -179 405.5 -205 c 128,-1,3
 374 -231 374 -231 310 -231 c 0,4,5
 245 -231 245 -231 200 -223 c 2,6,-1
 183 -220 l 1,7,-1
 187 -142 l 1,8,9
 218 -143 218 -143 235 -143 c 0,10,11
 273 -143 273 -143 273 -121 c 0,12,13
 273 -109 273 -109 265 -105 c 128,-1,14
 257 -101 257 -101 235 -101 c 2,15,-1
 226 -101 l 1,16,-1
 226 0 l 1,17,-1
 147 0 l 1,18,-1
 147 481 l 1,19,-1
 9 481 l 1,20,-1
 9 670 l 1,21,-1
 509 670 l 1,22,-1
 509 481 l 1,23,-1
 379 481 l 1,24,-1
 379 0 l 1,25,-1
 299 0 l 1,26,-1
 299 -33 l 1,27,0
 378 -34 378 -34 407.5 -51.5 c 128,-1,1
EndSplineSet
Substitution2: "'locl' Localized Forms in Latin lookup 0 subtable" Tcommaaccent
EndChar

StartChar: tcedilla
Encoding: 355 355 286
Width: 371
GlyphClass: 2
Flags: W
LayerCount: 2
Fore
SplineSet
333.5 -51.5 m 128,-1,1
 363 -69 363 -69 363 -124 c 128,-1,2
 363 -179 363 -179 331.5 -205 c 128,-1,3
 300 -231 300 -231 236 -231 c 0,4,5
 171 -231 171 -231 126 -223 c 2,6,-1
 109 -220 l 1,7,-1
 113 -142 l 1,8,9
 144 -143 144 -143 161 -143 c 0,10,11
 199 -143 199 -143 199 -121 c 0,12,13
 199 -109 199 -109 191 -105 c 128,-1,14
 183 -101 183 -101 161 -101 c 2,15,-1
 152 -101 l 1,16,-1
 152 -6 l 1,17,18
 98 5 98 5 73.5 45 c 128,-1,19
 49 85 49 85 49 168 c 2,20,-1
 49 324 l 1,21,-1
 10 324 l 1,22,-1
 10 505 l 1,23,-1
 49 505 l 1,24,-1
 49 605 l 1,25,-1
 273 605 l 1,26,-1
 273 505 l 1,27,-1
 354 505 l 1,28,-1
 354 324 l 1,29,-1
 273 324 l 1,30,-1
 273 220 l 2,31,32
 273 195 273 195 279.5 186.5 c 128,-1,33
 286 178 286 178 306 178 c 2,34,-1
 351 179 l 1,35,-1
 354 5 l 1,36,37
 271 -12 271 -12 225 -13 c 1,38,-1
 225 -33 l 1,39,0
 304 -34 304 -34 333.5 -51.5 c 128,-1,1
EndSplineSet
Substitution2: "'locl' Localized Forms in Latin lookup 0 subtable" tcommaaccent
EndChar

StartChar: Tcaron
Encoding: 356 356 287
Width: 519
GlyphClass: 2
Flags: W
LayerCount: 2
Fore
SplineSet
9 481 m 1,0,-1
 9 670 l 1,1,-1
 509 670 l 1,2,-1
 509 481 l 1,3,-1
 379 481 l 1,4,-1
 379 0 l 1,5,-1
 147 0 l 1,6,-1
 147 481 l 1,7,-1
 9 481 l 1,0,-1
178 712 m 1,8,-1
 77 848 l 1,9,-1
 246 848 l 1,10,-1
 260 786 l 1,11,-1
 273 848 l 1,12,-1
 442 848 l 1,13,-1
 330 712 l 1,14,-1
 178 712 l 1,8,-1
EndSplineSet
Position2: "'cpsp' Capital Spacing in Latin lookup 0 subtable" dx=5 dy=0 dh=10 dv=0
EndChar

StartChar: tcaron
Encoding: 357 357 288
Width: 371
GlyphClass: 2
Flags: W
LayerCount: 2
Fore
SplineSet
311 539 m 1,0,-1
 330 744 l 1,1,-1
 524 744 l 1,2,-1
 465 539 l 1,3,-1
 311 539 l 1,0,-1
273 324 m 1,4,-1
 273 220 l 2,5,6
 273 195 273 195 279.5 186.5 c 128,-1,7
 286 178 286 178 306 178 c 2,8,-1
 351 179 l 1,9,-1
 354 5 l 1,10,11
 268 -13 268 -13 222 -13 c 0,12,13
 129 -13 129 -13 89 25.5 c 128,-1,14
 49 64 49 64 49 168 c 2,15,-1
 49 324 l 1,16,-1
 10 324 l 1,17,-1
 10 505 l 1,18,-1
 49 505 l 1,19,-1
 49 605 l 1,20,-1
 273 605 l 1,21,-1
 273 505 l 1,22,-1
 354 505 l 1,23,-1
 354 324 l 1,24,-1
 273 324 l 1,4,-1
EndSplineSet
EndChar

StartChar: Tbar
Encoding: 358 358 289
Width: 519
GlyphClass: 2
Flags: W
LayerCount: 2
Fore
SplineSet
9 481 m 1,0,-1
 9 670 l 1,1,-1
 509 670 l 1,2,-1
 509 481 l 1,3,-1
 379 481 l 1,4,-1
 379 327 l 1,5,-1
 426 327 l 1,6,-1
 426 190 l 1,7,-1
 379 190 l 1,8,-1
 379 0 l 1,9,-1
 147 0 l 1,10,-1
 147 190 l 1,11,-1
 100 190 l 1,12,-1
 100 327 l 1,13,-1
 147 327 l 1,14,-1
 147 481 l 1,15,-1
 9 481 l 1,0,-1
EndSplineSet
Position2: "'cpsp' Capital Spacing in Latin lookup 0 subtable" dx=5 dy=0 dh=10 dv=0
EndChar

StartChar: tbar
Encoding: 359 359 290
Width: 370
GlyphClass: 2
Flags: W
LayerCount: 2
Fore
SplineSet
273 345 m 1,0,-1
 273 311 l 1,1,-1
 337 311 l 1,2,-1
 337 206 l 1,3,-1
 273 206 l 1,4,5
 273 184 273 184 279.5 176 c 128,-1,6
 286 168 286 168 306 168 c 2,7,-1
 351 169 l 1,8,-1
 354 5 l 1,9,10
 268 -13 268 -13 222 -13 c 0,11,12
 129 -13 129 -13 89 25.5 c 128,-1,13
 49 64 49 64 49 168 c 2,14,-1
 49 206 l 1,15,-1
 12 206 l 1,16,-1
 12 311 l 1,17,-1
 49 311 l 1,18,-1
 49 345 l 1,19,-1
 10 345 l 1,20,-1
 10 505 l 1,21,-1
 49 505 l 1,22,-1
 49 605 l 1,23,-1
 273 605 l 1,24,-1
 273 505 l 1,25,-1
 354 505 l 1,26,-1
 354 345 l 1,27,-1
 273 345 l 1,0,-1
EndSplineSet
EndChar

